G75*
G70*
%OFA0B0*%
%FSLAX24Y24*%
%IPPOS*%
%LPD*%
%AMOC8*
5,1,8,0,0,1.08239X$1,22.5*
%
%ADD10C,0.0100*%
%ADD11R,0.0315X0.0118*%
%ADD12R,0.0118X0.0315*%
%ADD13R,0.0748X0.0433*%
%ADD14R,0.0354X0.0276*%
%ADD15R,0.0551X0.0138*%
%ADD16R,0.0748X0.0709*%
%ADD17R,0.0276X0.0354*%
%ADD18R,0.0217X0.0472*%
%ADD19R,0.0630X0.0748*%
%ADD20R,0.0315X0.0354*%
%ADD21R,0.0433X0.0394*%
%ADD22R,0.0315X0.0315*%
%ADD23R,0.0740X0.0740*%
%ADD24C,0.0740*%
%ADD25R,0.0709X0.0315*%
%ADD26R,0.0315X0.0984*%
%ADD27R,0.0315X0.0657*%
%ADD28R,0.0657X0.0315*%
%ADD29C,0.0436*%
%ADD30C,0.0120*%
%ADD31C,0.0320*%
%ADD32C,0.0240*%
%ADD33C,0.0160*%
D10*
X002561Y002613D02*
X008150Y002613D01*
X008113Y002575D02*
X007408Y002575D01*
X007313Y002536D01*
X006648Y001871D01*
X006579Y001899D01*
X006349Y001899D01*
X006135Y001811D01*
X005972Y001648D01*
X005884Y001435D01*
X005884Y001204D01*
X005972Y000991D01*
X006135Y000828D01*
X006349Y000739D01*
X006579Y000739D01*
X006793Y000828D01*
X006956Y000991D01*
X006964Y001011D01*
X006972Y000991D01*
X007135Y000828D01*
X007349Y000739D01*
X007579Y000739D01*
X007793Y000828D01*
X007956Y000991D01*
X007997Y001091D01*
X008019Y001047D01*
X008067Y000981D01*
X008125Y000923D01*
X008191Y000875D01*
X008264Y000838D01*
X008342Y000812D01*
X008414Y000801D01*
X008414Y001269D01*
X008514Y001269D01*
X008514Y000801D01*
X008586Y000812D01*
X008664Y000838D01*
X008737Y000875D01*
X008803Y000923D01*
X008861Y000981D01*
X008884Y001013D01*
X008884Y000862D01*
X009007Y000739D01*
X009921Y000739D01*
X010044Y000862D01*
X010044Y001776D01*
X009921Y001899D01*
X009007Y001899D01*
X008884Y001776D01*
X008884Y001626D01*
X008861Y001658D01*
X008803Y001716D01*
X008737Y001764D01*
X008664Y001801D01*
X008586Y001827D01*
X008514Y001838D01*
X008514Y001369D01*
X008414Y001369D01*
X008414Y001838D01*
X008342Y001827D01*
X008264Y001801D01*
X008191Y001764D01*
X008125Y001716D01*
X008067Y001658D01*
X008019Y001592D01*
X007997Y001548D01*
X007956Y001648D01*
X007793Y001811D01*
X007579Y001899D01*
X007412Y001899D01*
X007568Y002055D01*
X008273Y002055D01*
X008368Y002095D01*
X009119Y002846D01*
X009151Y002833D01*
X009259Y002833D01*
X009283Y002843D01*
X010241Y002843D01*
X010310Y002871D01*
X010471Y002871D01*
X010629Y002937D01*
X010749Y003057D01*
X010814Y003214D01*
X010814Y003236D01*
X011225Y003236D01*
X011321Y003276D01*
X011394Y003349D01*
X011675Y003630D01*
X011853Y003630D01*
X011898Y003586D01*
X011898Y003445D01*
X011937Y003349D01*
X012011Y003276D01*
X012088Y003244D01*
X011992Y003148D01*
X011927Y002991D01*
X011927Y002821D01*
X011992Y002663D01*
X012112Y002543D01*
X012270Y002478D01*
X012440Y002478D01*
X012597Y002543D01*
X012690Y002636D01*
X012802Y002636D01*
X012901Y002677D01*
X012977Y002753D01*
X013233Y003009D01*
X013274Y003108D01*
X013274Y003155D01*
X013352Y003232D01*
X013352Y003761D01*
X013321Y003792D01*
X013352Y003823D01*
X013352Y004351D01*
X013229Y004474D01*
X013116Y004474D01*
X013116Y004909D01*
X013141Y004884D01*
X013175Y004865D01*
X013213Y004854D01*
X013533Y004854D01*
X013533Y005133D01*
X013590Y005133D01*
X013590Y004854D01*
X013910Y004854D01*
X013948Y004865D01*
X013982Y004884D01*
X014010Y004912D01*
X014030Y004946D01*
X014040Y004985D01*
X014040Y005133D01*
X013590Y005133D01*
X013590Y005191D01*
X013533Y005191D01*
X013533Y005294D01*
X013590Y005294D01*
X013590Y005191D01*
X014040Y005191D01*
X014040Y005339D01*
X014036Y005353D01*
X014100Y005417D01*
X014100Y005906D01*
X014095Y005912D01*
X014100Y005917D01*
X014100Y006406D01*
X013977Y006529D01*
X013146Y006529D01*
X013116Y006500D01*
X013116Y006891D01*
X013018Y006988D01*
X013018Y007487D01*
X013009Y007509D01*
X013044Y007500D01*
X013182Y007500D01*
X013182Y007808D01*
X013220Y007808D01*
X013220Y007500D01*
X013359Y007500D01*
X013397Y007510D01*
X013431Y007530D01*
X013459Y007558D01*
X013479Y007592D01*
X013489Y007630D01*
X013489Y007808D01*
X013220Y007808D01*
X013220Y007846D01*
X013182Y007846D01*
X013182Y008154D01*
X013044Y008154D01*
X013005Y008144D01*
X012992Y008136D01*
X012914Y008214D01*
X012465Y008214D01*
X012342Y008091D01*
X012342Y007703D01*
X011509Y007703D01*
X011416Y007796D01*
X011259Y007862D01*
X011088Y007862D01*
X010931Y007796D01*
X010811Y007676D01*
X010746Y007519D01*
X010746Y007373D01*
X010672Y007300D01*
X009533Y007300D01*
X009533Y007961D01*
X009847Y007961D01*
X009943Y008000D01*
X010016Y008074D01*
X010533Y008591D01*
X010533Y008591D01*
X010607Y008664D01*
X010646Y008760D01*
X010646Y009324D01*
X010734Y009236D01*
X010892Y009171D01*
X011062Y009171D01*
X011219Y009236D01*
X011340Y009356D01*
X011405Y009514D01*
X011405Y009684D01*
X011340Y009841D01*
X011237Y009944D01*
X011237Y010056D01*
X011352Y010056D01*
X011441Y010145D01*
X012922Y008664D01*
X012995Y008591D01*
X013090Y008551D01*
X013326Y008551D01*
X013326Y008547D01*
X013449Y008424D01*
X013898Y008424D01*
X013976Y008502D01*
X013990Y008494D01*
X014028Y008484D01*
X014167Y008484D01*
X014167Y008793D01*
X014204Y008793D01*
X014204Y008830D01*
X014167Y008830D01*
X014167Y009139D01*
X014028Y009139D01*
X013990Y009128D01*
X013976Y009121D01*
X013898Y009199D01*
X013449Y009199D01*
X013326Y009076D01*
X013326Y009071D01*
X013250Y009071D01*
X012982Y009339D01*
X013326Y009339D01*
X013326Y009335D01*
X013449Y009212D01*
X013898Y009212D01*
X013976Y009290D01*
X013990Y009282D01*
X014028Y009272D01*
X014167Y009272D01*
X014167Y009580D01*
X014204Y009580D01*
X014204Y009272D01*
X014343Y009272D01*
X014381Y009282D01*
X014415Y009302D01*
X014443Y009330D01*
X014463Y009364D01*
X014473Y009402D01*
X014473Y009580D01*
X014204Y009580D01*
X014204Y009618D01*
X014167Y009618D01*
X014167Y009926D01*
X014028Y009926D01*
X013990Y009916D01*
X013976Y009908D01*
X013898Y009986D01*
X013449Y009986D01*
X013326Y009863D01*
X013326Y009859D01*
X012856Y009859D01*
X012659Y010056D01*
X013452Y010056D01*
X013575Y010179D01*
X013575Y010668D01*
X013570Y010674D01*
X013575Y010679D01*
X013575Y011168D01*
X013570Y011174D01*
X013575Y011179D01*
X013575Y011668D01*
X013570Y011674D01*
X013575Y011679D01*
X013575Y012168D01*
X013452Y012291D01*
X012570Y012291D01*
X012447Y012168D01*
X012447Y011679D01*
X012452Y011674D01*
X012447Y011668D01*
X012447Y011179D01*
X012452Y011174D01*
X012447Y011168D01*
X012447Y010679D01*
X012452Y010674D01*
X012447Y010668D01*
X012447Y010268D01*
X012221Y010494D01*
X012221Y010832D01*
X012181Y010927D01*
X012108Y011000D01*
X011965Y011144D01*
X011869Y011184D01*
X011475Y011184D01*
X011475Y011668D01*
X011411Y011732D01*
X011415Y011746D01*
X011415Y011895D01*
X010940Y011895D01*
X010940Y011952D01*
X011415Y011952D01*
X011415Y012101D01*
X011405Y012139D01*
X011385Y012173D01*
X011357Y012201D01*
X011323Y012221D01*
X011285Y012231D01*
X010940Y012231D01*
X010940Y011952D01*
X010882Y011952D01*
X010882Y011895D01*
X010407Y011895D01*
X010407Y011746D01*
X010411Y011732D01*
X010362Y011684D01*
X009957Y011684D01*
X009883Y011758D01*
X009433Y011758D01*
X009402Y011727D01*
X009371Y011758D01*
X009127Y011758D01*
X009096Y011788D01*
X009001Y011827D01*
X008431Y011827D01*
X008431Y012225D01*
X008400Y012256D01*
X008431Y012287D01*
X008431Y012545D01*
X008461Y012618D01*
X008461Y013036D01*
X008513Y013088D01*
X008897Y013088D01*
X008943Y013107D01*
X008937Y013083D01*
X008937Y012739D01*
X009352Y012739D01*
X009352Y012639D01*
X009452Y012639D01*
X009452Y012165D01*
X009737Y012165D01*
X009775Y012176D01*
X009809Y012195D01*
X009837Y012223D01*
X009857Y012257D01*
X009867Y012296D01*
X009867Y012639D01*
X009452Y012639D01*
X009452Y012739D01*
X009867Y012739D01*
X009867Y013083D01*
X009857Y013121D01*
X009837Y013155D01*
X009809Y013183D01*
X009775Y013203D01*
X009737Y013213D01*
X009452Y013213D01*
X009452Y012739D01*
X009352Y012739D01*
X009352Y013213D01*
X009093Y013213D01*
X009285Y013405D01*
X009804Y013405D01*
X009927Y013528D01*
X009927Y014450D01*
X009804Y014573D01*
X009000Y014573D01*
X008877Y014450D01*
X008877Y013930D01*
X008694Y013748D01*
X008513Y013748D01*
X008396Y013864D01*
X008006Y013864D01*
X007883Y013741D01*
X007883Y013512D01*
X007871Y013483D01*
X007871Y013352D01*
X007883Y013324D01*
X007883Y013094D01*
X007941Y013036D01*
X007941Y012939D01*
X007858Y012939D01*
X007780Y012861D01*
X007767Y012869D01*
X007729Y012879D01*
X007590Y012879D01*
X007590Y012570D01*
X007552Y012570D01*
X007552Y012533D01*
X007283Y012533D01*
X007283Y012355D01*
X007294Y012317D01*
X007313Y012282D01*
X007339Y012256D01*
X007313Y012230D01*
X007294Y012196D01*
X007283Y012158D01*
X007283Y011980D01*
X007552Y011980D01*
X007552Y011942D01*
X007283Y011942D01*
X007283Y011827D01*
X006795Y011827D01*
X006692Y011930D01*
X006534Y011995D01*
X006364Y011995D01*
X006207Y011930D01*
X006086Y011810D01*
X006021Y011652D01*
X006021Y011482D01*
X006086Y011325D01*
X006207Y011204D01*
X006364Y011139D01*
X006534Y011139D01*
X006692Y011204D01*
X006795Y011307D01*
X007823Y011307D01*
X007823Y010472D01*
X007863Y010377D01*
X008706Y009533D01*
X008665Y009533D01*
X008615Y009482D01*
X008564Y009533D01*
X007497Y009533D01*
X007497Y009783D01*
X007501Y009783D01*
X007624Y009906D01*
X007624Y010355D01*
X007546Y010433D01*
X007554Y010446D01*
X007564Y010485D01*
X007564Y010623D01*
X007256Y010623D01*
X007256Y010661D01*
X007564Y010661D01*
X007564Y010800D01*
X007554Y010838D01*
X007534Y010872D01*
X007506Y010900D01*
X007472Y010920D01*
X007434Y010930D01*
X007256Y010930D01*
X007256Y010661D01*
X007218Y010661D01*
X007218Y010930D01*
X007040Y010930D01*
X007002Y010920D01*
X006967Y010900D01*
X006939Y010872D01*
X006920Y010838D01*
X006909Y010800D01*
X006909Y010661D01*
X007218Y010661D01*
X007218Y010623D01*
X006909Y010623D01*
X006909Y010485D01*
X006920Y010446D01*
X006927Y010433D01*
X006849Y010355D01*
X006849Y009906D01*
X006972Y009783D01*
X006977Y009783D01*
X006977Y009636D01*
X006866Y009746D01*
X006793Y009819D01*
X006698Y009859D01*
X006201Y009859D01*
X006105Y009819D01*
X006032Y009746D01*
X005919Y009633D01*
X005774Y009633D01*
X005616Y009568D01*
X005496Y009448D01*
X005431Y009290D01*
X005431Y009120D01*
X005496Y008963D01*
X005584Y008875D01*
X004429Y008875D01*
X004333Y008835D01*
X004176Y008678D01*
X003522Y008678D01*
X003543Y008699D01*
X003557Y008691D01*
X003595Y008681D01*
X003733Y008681D01*
X003733Y008989D01*
X003771Y008989D01*
X003771Y008681D01*
X003910Y008681D01*
X003948Y008691D01*
X003982Y008711D01*
X004010Y008739D01*
X004030Y008773D01*
X004040Y008811D01*
X004040Y008989D01*
X003771Y008989D01*
X003771Y009027D01*
X003733Y009027D01*
X003733Y009335D01*
X003595Y009335D01*
X003557Y009325D01*
X003543Y009317D01*
X003465Y009395D01*
X003016Y009395D01*
X002893Y009272D01*
X002893Y008744D01*
X002959Y008678D01*
X002645Y008678D01*
X002645Y010056D01*
X003384Y010056D01*
X003546Y009895D01*
X003759Y009806D01*
X003990Y009806D01*
X004203Y009895D01*
X004366Y010058D01*
X004407Y010157D01*
X004430Y010114D01*
X004478Y010047D01*
X004536Y009990D01*
X004602Y009941D01*
X004675Y009904D01*
X004753Y009879D01*
X004824Y009868D01*
X004824Y010336D01*
X004924Y010336D01*
X004924Y009868D01*
X004996Y009879D01*
X005074Y009904D01*
X005147Y009941D01*
X005213Y009990D01*
X005271Y010047D01*
X005319Y010114D01*
X005356Y010187D01*
X005382Y010264D01*
X005393Y010336D01*
X004924Y010336D01*
X004924Y010436D01*
X004824Y010436D01*
X004824Y010905D01*
X004753Y010893D01*
X004675Y010868D01*
X004602Y010831D01*
X004536Y010783D01*
X004478Y010725D01*
X004430Y010659D01*
X004407Y010615D01*
X004366Y010715D01*
X004203Y010878D01*
X003990Y010966D01*
X003759Y010966D01*
X003546Y010878D01*
X003384Y010716D01*
X002645Y010716D01*
X002645Y011037D01*
X003163Y011554D01*
X003284Y011554D01*
X003315Y011585D01*
X003346Y011554D01*
X003954Y011554D01*
X004077Y011677D01*
X004077Y011921D01*
X004533Y012377D01*
X004580Y012377D01*
X004703Y012500D01*
X004703Y013028D01*
X004580Y013151D01*
X004091Y013151D01*
X003968Y013028D01*
X003968Y012745D01*
X003590Y012368D01*
X003346Y012368D01*
X003315Y012337D01*
X003284Y012368D01*
X002677Y012368D01*
X002554Y012245D01*
X002554Y011879D01*
X002036Y011361D01*
X001985Y011239D01*
X001985Y008549D01*
X002013Y008483D01*
X001927Y008396D01*
X001927Y007317D01*
X001987Y007257D01*
X001987Y007217D01*
X002027Y007217D01*
X001987Y007217D01*
X001987Y007128D01*
X001997Y007090D01*
X002017Y007056D01*
X002045Y007028D01*
X002079Y007008D01*
X002117Y006998D01*
X002412Y006998D01*
X002412Y007194D01*
X002412Y007194D01*
X002412Y006998D01*
X002708Y006998D01*
X002746Y007008D01*
X002780Y007028D01*
X002808Y007056D01*
X002828Y007090D01*
X002834Y007116D01*
X002909Y007042D01*
X003358Y007042D01*
X003389Y007073D01*
X003420Y007042D01*
X003870Y007042D01*
X003993Y007165D01*
X003993Y007171D01*
X004090Y007173D01*
X004139Y007173D01*
X004142Y007175D01*
X004145Y007175D01*
X004189Y007194D01*
X004234Y007213D01*
X004237Y007215D01*
X004239Y007217D01*
X004273Y007252D01*
X004982Y007961D01*
X005010Y007961D01*
X005000Y007924D01*
X005000Y007785D01*
X005308Y007785D01*
X005308Y007748D01*
X005000Y007748D01*
X005000Y007609D01*
X005010Y007571D01*
X005018Y007557D01*
X004940Y007480D01*
X004940Y007030D01*
X005063Y006907D01*
X005358Y006907D01*
X005357Y006906D01*
X003051Y006906D01*
X002955Y006866D01*
X002168Y006079D01*
X002095Y006006D01*
X002055Y005910D01*
X002055Y005675D01*
X002051Y005675D01*
X001928Y005552D01*
X001928Y005102D01*
X001959Y005071D01*
X001928Y005040D01*
X001928Y004591D01*
X002018Y004500D01*
X001948Y004430D01*
X001948Y003941D01*
X001999Y003890D01*
X001948Y003839D01*
X001948Y003350D01*
X002071Y003227D01*
X002560Y003227D01*
X002611Y003278D01*
X002661Y003227D01*
X003150Y003227D01*
X003273Y003350D01*
X003273Y003433D01*
X003351Y003433D01*
X003447Y003473D01*
X003520Y003546D01*
X003560Y003642D01*
X003560Y005160D01*
X003604Y005205D01*
X005064Y005205D01*
X005221Y005196D01*
X005228Y005193D01*
X005273Y005193D01*
X005317Y005191D01*
X005324Y005193D01*
X005444Y005193D01*
X005532Y005105D01*
X006060Y005105D01*
X006148Y005193D01*
X006883Y005193D01*
X006978Y005233D01*
X007370Y005625D01*
X007370Y005210D01*
X006961Y004938D01*
X004823Y004938D01*
X004727Y004898D01*
X004428Y004599D01*
X004355Y004526D01*
X004315Y004430D01*
X004315Y004130D01*
X004311Y004130D01*
X004188Y004007D01*
X004188Y003558D01*
X004266Y003480D01*
X004258Y003466D01*
X004248Y003428D01*
X004248Y003289D01*
X004556Y003289D01*
X004556Y003252D01*
X004248Y003252D01*
X004248Y003113D01*
X004258Y003075D01*
X004278Y003041D01*
X004306Y003013D01*
X004340Y002993D01*
X004378Y002983D01*
X004556Y002983D01*
X004556Y003252D01*
X004594Y003252D01*
X004594Y002983D01*
X004772Y002983D01*
X004804Y002991D01*
X004804Y002850D01*
X004927Y002727D01*
X005849Y002727D01*
X005972Y002850D01*
X005972Y003457D01*
X005849Y003580D01*
X005348Y003580D01*
X005343Y003593D01*
X005302Y003633D01*
X005849Y003633D01*
X005972Y003756D01*
X005972Y004363D01*
X005917Y004418D01*
X006315Y004418D01*
X006260Y004363D01*
X006260Y003756D01*
X006383Y003633D01*
X007305Y003633D01*
X007426Y003753D01*
X007426Y003638D01*
X007504Y003560D01*
X007496Y003546D01*
X007486Y003508D01*
X007486Y003370D01*
X007794Y003370D01*
X007794Y003332D01*
X007486Y003332D01*
X007486Y003193D01*
X007496Y003155D01*
X007516Y003121D01*
X007544Y003093D01*
X007578Y003073D01*
X007616Y003063D01*
X007794Y003063D01*
X007794Y003332D01*
X007832Y003332D01*
X007832Y003370D01*
X008140Y003370D01*
X008140Y003508D01*
X008130Y003546D01*
X008122Y003560D01*
X008200Y003638D01*
X008200Y004087D01*
X008077Y004210D01*
X008049Y004210D01*
X008033Y004248D01*
X007998Y004284D01*
X008048Y004333D01*
X008087Y004429D01*
X008087Y004640D01*
X008197Y004530D01*
X008270Y004457D01*
X008366Y004418D01*
X008704Y004418D01*
X008945Y004176D01*
X008945Y003421D01*
X008878Y003354D01*
X008868Y003330D01*
X008113Y002575D01*
X008249Y002711D02*
X002461Y002711D01*
X002492Y002675D02*
X001827Y003467D01*
X001278Y004345D01*
X000857Y005290D01*
X000572Y006285D01*
X000428Y007310D01*
X000428Y008345D01*
X000572Y009369D01*
X000857Y010364D01*
X001278Y011309D01*
X001827Y012187D01*
X002492Y012980D01*
X003261Y013672D01*
X004119Y014251D01*
X005049Y014704D01*
X006033Y015024D01*
X007052Y015204D01*
X008086Y015240D01*
X009115Y015132D01*
X010119Y014881D01*
X011079Y014494D01*
X011975Y013976D01*
X012790Y013339D01*
X013509Y012595D01*
X014117Y011758D01*
X014603Y010844D01*
X014957Y009872D01*
X015172Y008859D01*
X015244Y007827D01*
X015172Y006795D01*
X014957Y005783D01*
X014603Y004810D01*
X014117Y003897D01*
X013509Y003060D01*
X012790Y002315D01*
X011975Y001678D01*
X011079Y001161D01*
X010119Y000773D01*
X009115Y000523D01*
X008086Y000415D01*
X007052Y000451D01*
X006033Y000630D01*
X005049Y000950D01*
X004119Y001404D01*
X003261Y001982D01*
X002492Y002675D01*
X002379Y002810D02*
X004845Y002810D01*
X004804Y002908D02*
X002296Y002908D01*
X002213Y003007D02*
X004317Y003007D01*
X004250Y003105D02*
X002131Y003105D01*
X002048Y003204D02*
X004248Y003204D01*
X004248Y003302D02*
X003225Y003302D01*
X003273Y003401D02*
X004248Y003401D01*
X004247Y003499D02*
X003473Y003499D01*
X003541Y003598D02*
X004188Y003598D01*
X004188Y003696D02*
X003560Y003696D01*
X003560Y003795D02*
X004188Y003795D01*
X004188Y003893D02*
X003560Y003893D01*
X003560Y003992D02*
X004188Y003992D01*
X004271Y004090D02*
X003560Y004090D01*
X003560Y004189D02*
X004315Y004189D01*
X004315Y004287D02*
X003560Y004287D01*
X003560Y004386D02*
X004315Y004386D01*
X004338Y004484D02*
X003560Y004484D01*
X003560Y004583D02*
X004412Y004583D01*
X004510Y004681D02*
X003560Y004681D01*
X003560Y004780D02*
X004609Y004780D01*
X004707Y004878D02*
X003560Y004878D01*
X003560Y004977D02*
X007019Y004977D01*
X007040Y005071D02*
X004481Y005071D01*
X003890Y004481D01*
X003890Y003300D01*
X003103Y002512D01*
X002889Y002317D02*
X007094Y002317D01*
X007192Y002416D02*
X002780Y002416D01*
X002670Y002514D02*
X007291Y002514D01*
X007305Y002727D02*
X007429Y002850D01*
X007429Y003457D01*
X007305Y003580D01*
X006383Y003580D01*
X006260Y003457D01*
X006260Y002850D01*
X006383Y002727D01*
X007305Y002727D01*
X007388Y002810D02*
X008347Y002810D01*
X008446Y002908D02*
X007429Y002908D01*
X007429Y003007D02*
X008544Y003007D01*
X008643Y003105D02*
X008094Y003105D01*
X008082Y003093D02*
X008110Y003121D01*
X008130Y003155D01*
X008140Y003193D01*
X008140Y003332D01*
X007832Y003332D01*
X007832Y003063D01*
X008010Y003063D01*
X008048Y003073D01*
X008082Y003093D01*
X008140Y003204D02*
X008741Y003204D01*
X008840Y003302D02*
X008140Y003302D01*
X008221Y003300D02*
X007827Y003300D01*
X007832Y003302D02*
X007794Y003302D01*
X007794Y003204D02*
X007832Y003204D01*
X007832Y003105D02*
X007794Y003105D01*
X007532Y003105D02*
X007429Y003105D01*
X007429Y003204D02*
X007486Y003204D01*
X007486Y003302D02*
X007429Y003302D01*
X007429Y003401D02*
X007486Y003401D01*
X007486Y003499D02*
X007387Y003499D01*
X007466Y003598D02*
X005338Y003598D01*
X005122Y003445D02*
X005122Y003154D01*
X005388Y003154D01*
X005337Y003103D01*
X005122Y003154D02*
X005071Y003103D01*
X005122Y003445D02*
X004785Y003782D01*
X004575Y003782D01*
X004575Y004378D01*
X004874Y004678D01*
X007040Y004678D01*
X007630Y005071D01*
X007630Y006489D01*
X007433Y006489D02*
X007433Y005662D01*
X007040Y005268D01*
X007040Y005071D01*
X007167Y005075D02*
X003560Y005075D01*
X003573Y005174D02*
X005463Y005174D01*
X005280Y005453D02*
X005071Y005465D01*
X003496Y005465D01*
X003300Y005268D01*
X003300Y003693D01*
X003004Y003693D01*
X002906Y003595D01*
X002315Y003595D01*
X001948Y003598D02*
X001745Y003598D01*
X001684Y003696D02*
X001948Y003696D01*
X001948Y003795D02*
X001622Y003795D01*
X001561Y003893D02*
X001996Y003893D01*
X001948Y003992D02*
X001499Y003992D01*
X001438Y004090D02*
X001948Y004090D01*
X001948Y004189D02*
X001376Y004189D01*
X001314Y004287D02*
X001948Y004287D01*
X001948Y004386D02*
X001260Y004386D01*
X001216Y004484D02*
X002002Y004484D01*
X001936Y004583D02*
X001172Y004583D01*
X001129Y004681D02*
X001928Y004681D01*
X001928Y004780D02*
X001085Y004780D01*
X001041Y004878D02*
X001928Y004878D01*
X001928Y004977D02*
X000997Y004977D01*
X000953Y005075D02*
X001956Y005075D01*
X001928Y005174D02*
X000909Y005174D01*
X000865Y005272D02*
X001928Y005272D01*
X001928Y005371D02*
X000834Y005371D01*
X000806Y005469D02*
X001928Y005469D01*
X001944Y005568D02*
X000778Y005568D01*
X000750Y005666D02*
X000831Y005666D01*
X000785Y005713D02*
X000908Y005590D01*
X001830Y005590D01*
X001953Y005713D01*
X001953Y006595D01*
X001830Y006718D01*
X000908Y006718D01*
X000785Y006595D01*
X000785Y005713D01*
X000785Y005765D02*
X000721Y005765D01*
X000693Y005863D02*
X000785Y005863D01*
X000785Y005962D02*
X000665Y005962D01*
X000637Y006060D02*
X000785Y006060D01*
X000785Y006159D02*
X000608Y006159D01*
X000580Y006257D02*
X000785Y006257D01*
X000785Y006356D02*
X000562Y006356D01*
X000548Y006454D02*
X000785Y006454D01*
X000785Y006553D02*
X000534Y006553D01*
X000521Y006651D02*
X000841Y006651D01*
X000507Y006750D02*
X002839Y006750D01*
X002937Y006848D02*
X000493Y006848D01*
X000479Y006947D02*
X005023Y006947D01*
X004940Y007045D02*
X003873Y007045D01*
X003972Y007144D02*
X004940Y007144D01*
X004940Y007242D02*
X004264Y007242D01*
X004362Y007341D02*
X004940Y007341D01*
X004940Y007439D02*
X004460Y007439D01*
X004559Y007538D02*
X004998Y007538D01*
X005000Y007636D02*
X004657Y007636D01*
X004756Y007735D02*
X005000Y007735D01*
X005000Y007833D02*
X004854Y007833D01*
X004953Y007932D02*
X005002Y007932D01*
X004874Y008221D02*
X004087Y007433D01*
X003885Y007429D01*
X003645Y007429D01*
X003417Y007045D02*
X003362Y007045D01*
X003133Y007429D02*
X002833Y007729D01*
X002412Y007729D01*
X002412Y007985D02*
X003369Y007985D01*
X003232Y008044D01*
X003300Y008418D02*
X003241Y008477D01*
X003241Y009008D01*
X002893Y009015D02*
X002645Y009015D01*
X002645Y008917D02*
X002893Y008917D01*
X002893Y008818D02*
X002645Y008818D01*
X002645Y008720D02*
X002917Y008720D01*
X002589Y008418D02*
X002412Y008241D01*
X002589Y008418D02*
X003300Y008418D01*
X004284Y008418D01*
X004481Y008615D01*
X006489Y008615D01*
X006843Y008615D01*
X006843Y007630D01*
X006489Y007630D01*
X006489Y007433D02*
X007040Y007433D01*
X007237Y007630D01*
X007237Y008221D01*
X007433Y008418D01*
X000150Y007827D02*
X000159Y008204D01*
X000187Y008579D01*
X000233Y008953D01*
X000298Y009325D01*
X000380Y009692D01*
X000481Y010056D01*
X000599Y010413D01*
X000734Y010765D01*
X000887Y011109D01*
X001056Y011446D01*
X001242Y011774D01*
X001444Y012092D01*
X001661Y012400D01*
X001893Y012697D01*
X002139Y012983D01*
X002399Y013255D01*
X002671Y013515D01*
X002957Y013761D01*
X003254Y013993D01*
X003562Y014210D01*
X003880Y014412D01*
X004208Y014598D01*
X004545Y014767D01*
X004889Y014920D01*
X005241Y015055D01*
X005598Y015173D01*
X005962Y015274D01*
X006329Y015356D01*
X006701Y015421D01*
X007075Y015467D01*
X007450Y015495D01*
X007827Y015504D01*
X008204Y015495D01*
X008579Y015467D01*
X008953Y015421D01*
X009325Y015356D01*
X009692Y015274D01*
X010056Y015173D01*
X010413Y015055D01*
X010765Y014920D01*
X011109Y014767D01*
X011446Y014598D01*
X011774Y014412D01*
X012092Y014210D01*
X012400Y013993D01*
X012697Y013761D01*
X012983Y013515D01*
X013255Y013255D01*
X013515Y012983D01*
X013761Y012697D01*
X013993Y012400D01*
X014210Y012092D01*
X014412Y011774D01*
X014598Y011446D01*
X014767Y011109D01*
X014920Y010765D01*
X015055Y010413D01*
X015173Y010056D01*
X015274Y009692D01*
X015356Y009325D01*
X015421Y008953D01*
X015467Y008579D01*
X015495Y008204D01*
X015504Y007827D01*
X015495Y007450D01*
X015467Y007075D01*
X015421Y006701D01*
X015356Y006329D01*
X015274Y005962D01*
X015173Y005598D01*
X015055Y005241D01*
X014920Y004889D01*
X014767Y004545D01*
X014598Y004208D01*
X014412Y003880D01*
X014210Y003562D01*
X013993Y003254D01*
X013761Y002957D01*
X013515Y002671D01*
X013255Y002399D01*
X012983Y002139D01*
X012697Y001893D01*
X012400Y001661D01*
X012092Y001444D01*
X011774Y001242D01*
X011446Y001056D01*
X011109Y000887D01*
X010765Y000734D01*
X010413Y000599D01*
X010056Y000481D01*
X009692Y000380D01*
X009325Y000298D01*
X008953Y000233D01*
X008579Y000187D01*
X008204Y000159D01*
X007827Y000150D01*
X007450Y000159D01*
X007075Y000187D01*
X006701Y000233D01*
X006329Y000298D01*
X005962Y000380D01*
X005598Y000481D01*
X005241Y000599D01*
X004889Y000734D01*
X004545Y000887D01*
X004208Y001056D01*
X003880Y001242D01*
X003562Y001444D01*
X003254Y001661D01*
X002957Y001893D01*
X002671Y002139D01*
X002399Y002399D01*
X002139Y002671D01*
X001893Y002957D01*
X001661Y003254D01*
X001444Y003562D01*
X001242Y003880D01*
X001056Y004208D01*
X000887Y004545D01*
X000734Y004889D01*
X000599Y005241D01*
X000481Y005598D01*
X000380Y005962D01*
X000298Y006329D01*
X000233Y006701D01*
X000187Y007075D01*
X000159Y007450D01*
X000150Y007827D01*
X000428Y007833D02*
X001927Y007833D01*
X001927Y007735D02*
X000428Y007735D01*
X000428Y007636D02*
X001927Y007636D01*
X001927Y007538D02*
X000428Y007538D01*
X000428Y007439D02*
X001927Y007439D01*
X001927Y007341D02*
X000428Y007341D01*
X000438Y007242D02*
X001987Y007242D01*
X002027Y007217D02*
X002027Y007217D01*
X001987Y007144D02*
X000451Y007144D01*
X000465Y007045D02*
X002027Y007045D01*
X001725Y007237D02*
X002512Y007237D01*
X002412Y007144D02*
X002412Y007144D01*
X002412Y007045D02*
X002412Y007045D01*
X002797Y007045D02*
X002905Y007045D01*
X002740Y006651D02*
X001897Y006651D01*
X001953Y006553D02*
X002642Y006553D01*
X002543Y006454D02*
X001953Y006454D01*
X001953Y006356D02*
X002445Y006356D01*
X002346Y006257D02*
X001953Y006257D01*
X001953Y006159D02*
X002248Y006159D01*
X002149Y006060D02*
X001953Y006060D01*
X001953Y005962D02*
X002077Y005962D01*
X002055Y005863D02*
X001953Y005863D01*
X001953Y005765D02*
X002055Y005765D01*
X002042Y005666D02*
X001906Y005666D01*
X002315Y005859D02*
X002315Y005327D01*
X002315Y005859D02*
X003103Y006646D01*
X005465Y006646D01*
X006056Y007237D01*
X006489Y007237D01*
X007237Y007237D01*
X007827Y007827D01*
X007827Y007040D02*
X008615Y007827D01*
X009166Y008221D02*
X009796Y008221D01*
X010386Y008811D01*
X010386Y010189D01*
X009993Y010583D01*
X009993Y010977D01*
X010858Y010977D01*
X010911Y010924D01*
X011817Y010924D01*
X011961Y010780D01*
X011961Y010386D01*
X012748Y009599D01*
X013674Y009599D01*
X013364Y009902D02*
X012813Y009902D01*
X012715Y010000D02*
X014910Y010000D01*
X014874Y010099D02*
X013495Y010099D01*
X013575Y010197D02*
X014839Y010197D01*
X014803Y010296D02*
X013575Y010296D01*
X013575Y010394D02*
X014767Y010394D01*
X014731Y010493D02*
X013575Y010493D01*
X013575Y010591D02*
X014695Y010591D01*
X014659Y010690D02*
X013575Y010690D01*
X013575Y010788D02*
X014623Y010788D01*
X014580Y010887D02*
X013575Y010887D01*
X013575Y010985D02*
X014528Y010985D01*
X014476Y011084D02*
X013575Y011084D01*
X013575Y011182D02*
X014423Y011182D01*
X014371Y011281D02*
X013575Y011281D01*
X013575Y011379D02*
X014319Y011379D01*
X014266Y011478D02*
X013575Y011478D01*
X013575Y011576D02*
X014214Y011576D01*
X014161Y011675D02*
X013571Y011675D01*
X013575Y011773D02*
X014106Y011773D01*
X014035Y011872D02*
X013575Y011872D01*
X013575Y011970D02*
X013963Y011970D01*
X013891Y012069D02*
X013575Y012069D01*
X013575Y012167D02*
X013820Y012167D01*
X013748Y012266D02*
X013478Y012266D01*
X013677Y012364D02*
X009867Y012364D01*
X009867Y012463D02*
X013605Y012463D01*
X013534Y012561D02*
X009867Y012561D01*
X009867Y012758D02*
X013351Y012758D01*
X013256Y012857D02*
X009867Y012857D01*
X009867Y012955D02*
X013161Y012955D01*
X013066Y013054D02*
X009867Y013054D01*
X009839Y013152D02*
X012971Y013152D01*
X012876Y013251D02*
X009131Y013251D01*
X009229Y013349D02*
X012778Y013349D01*
X012790Y013339D02*
X012790Y013339D01*
X012652Y013448D02*
X009847Y013448D01*
X009927Y013546D02*
X012525Y013546D01*
X012399Y013645D02*
X009927Y013645D01*
X009927Y013743D02*
X012273Y013743D01*
X012147Y013842D02*
X009927Y013842D01*
X009927Y013940D02*
X012021Y013940D01*
X011975Y013976D02*
X011975Y013976D01*
X011867Y014039D02*
X009927Y014039D01*
X009927Y014137D02*
X011696Y014137D01*
X011526Y014236D02*
X009927Y014236D01*
X009927Y014334D02*
X011355Y014334D01*
X011185Y014433D02*
X009927Y014433D01*
X009845Y014531D02*
X010986Y014531D01*
X010742Y014630D02*
X008519Y014630D01*
X008519Y014728D02*
X010499Y014728D01*
X010255Y014827D02*
X008481Y014827D01*
X008481Y014803D02*
X008481Y014965D01*
X008441Y015061D01*
X008368Y015134D01*
X008273Y015174D01*
X007382Y015174D01*
X007286Y015134D01*
X007213Y015061D01*
X007173Y014965D01*
X007173Y014803D01*
X007135Y014765D01*
X007135Y014653D01*
X006974Y014653D01*
X006853Y014603D01*
X006760Y014510D01*
X006738Y014489D01*
X006654Y014573D01*
X005850Y014573D01*
X005727Y014450D01*
X005727Y014232D01*
X005672Y014209D01*
X005383Y013921D01*
X005011Y013921D01*
X004954Y013978D01*
X004465Y013978D01*
X004342Y013855D01*
X004342Y013327D01*
X004465Y013204D01*
X004954Y013204D01*
X005011Y013261D01*
X005586Y013261D01*
X005707Y013311D01*
X005800Y013404D01*
X005825Y013430D01*
X005850Y013405D01*
X006654Y013405D01*
X006777Y013528D01*
X006777Y013661D01*
X006892Y013709D01*
X007176Y013993D01*
X007401Y013993D01*
X007405Y013995D01*
X007648Y013995D01*
X007708Y014055D01*
X007823Y014055D01*
X007823Y014437D01*
X007831Y014437D01*
X007831Y014055D01*
X007946Y014055D01*
X008006Y013995D01*
X008396Y013995D01*
X008519Y014118D01*
X008519Y014765D01*
X008481Y014803D01*
X008481Y014925D02*
X009944Y014925D01*
X009549Y015024D02*
X008457Y015024D01*
X008380Y015122D02*
X009154Y015122D01*
X008958Y014531D02*
X008519Y014531D01*
X008519Y014433D02*
X008877Y014433D01*
X008877Y014334D02*
X008519Y014334D01*
X008519Y014236D02*
X008877Y014236D01*
X008877Y014137D02*
X008519Y014137D01*
X008440Y014039D02*
X008877Y014039D01*
X008877Y013940D02*
X007123Y013940D01*
X007025Y013842D02*
X007236Y013842D01*
X007258Y013864D02*
X007135Y013741D01*
X007135Y013094D01*
X007258Y012971D01*
X007648Y012971D01*
X007771Y013094D01*
X007771Y013741D01*
X007648Y013864D01*
X007258Y013864D01*
X007137Y013743D02*
X006926Y013743D01*
X006777Y013645D02*
X007135Y013645D01*
X007135Y013546D02*
X006777Y013546D01*
X006697Y013448D02*
X007135Y013448D01*
X007135Y013349D02*
X005745Y013349D01*
X005845Y013183D02*
X005817Y013155D01*
X005798Y013121D01*
X005787Y013083D01*
X005787Y012739D01*
X006202Y012739D01*
X006202Y012639D01*
X006302Y012639D01*
X006302Y012165D01*
X006587Y012165D01*
X006625Y012176D01*
X006659Y012195D01*
X006687Y012223D01*
X006707Y012257D01*
X006717Y012296D01*
X006717Y012639D01*
X006302Y012639D01*
X006302Y012739D01*
X006202Y012739D01*
X006202Y013213D01*
X005918Y013213D01*
X005880Y013203D01*
X005845Y013183D01*
X005815Y013152D02*
X002683Y013152D01*
X002574Y013054D02*
X003993Y013054D01*
X003968Y012955D02*
X002471Y012955D01*
X002388Y012857D02*
X003968Y012857D01*
X003968Y012758D02*
X002306Y012758D01*
X002223Y012660D02*
X003882Y012660D01*
X003783Y012561D02*
X002141Y012561D01*
X002058Y012463D02*
X003685Y012463D01*
X003343Y012364D02*
X003288Y012364D01*
X002673Y012364D02*
X001975Y012364D01*
X001893Y012266D02*
X002575Y012266D01*
X002554Y012167D02*
X001814Y012167D01*
X001753Y012069D02*
X002554Y012069D01*
X002554Y011970D02*
X001691Y011970D01*
X001630Y011872D02*
X002547Y011872D01*
X002448Y011773D02*
X001568Y011773D01*
X001506Y011675D02*
X002350Y011675D01*
X002251Y011576D02*
X001445Y011576D01*
X001383Y011478D02*
X002153Y011478D01*
X002054Y011379D02*
X001322Y011379D01*
X001265Y011281D02*
X002002Y011281D01*
X001985Y011182D02*
X001222Y011182D01*
X001178Y011084D02*
X001985Y011084D01*
X001985Y010985D02*
X001134Y010985D01*
X001090Y010887D02*
X001985Y010887D01*
X001985Y010788D02*
X001046Y010788D01*
X001002Y010690D02*
X001985Y010690D01*
X001985Y010591D02*
X000958Y010591D01*
X000915Y010493D02*
X001985Y010493D01*
X001985Y010394D02*
X000871Y010394D01*
X000838Y010296D02*
X001985Y010296D01*
X001985Y010197D02*
X000809Y010197D01*
X000781Y010099D02*
X001985Y010099D01*
X001985Y010000D02*
X000753Y010000D01*
X000725Y009902D02*
X001985Y009902D01*
X001985Y009803D02*
X001895Y009803D01*
X001953Y009745D02*
X001830Y009868D01*
X000908Y009868D01*
X000785Y009745D01*
X000785Y008862D01*
X000908Y008739D01*
X001830Y008739D01*
X001953Y008862D01*
X001953Y009745D01*
X001953Y009705D02*
X001985Y009705D01*
X001985Y009606D02*
X001953Y009606D01*
X001953Y009508D02*
X001985Y009508D01*
X001985Y009409D02*
X001953Y009409D01*
X001953Y009311D02*
X001985Y009311D01*
X001985Y009212D02*
X001953Y009212D01*
X001953Y009114D02*
X001985Y009114D01*
X001985Y009015D02*
X001953Y009015D01*
X001953Y008917D02*
X001985Y008917D01*
X001985Y008818D02*
X001909Y008818D01*
X001985Y008720D02*
X000481Y008720D01*
X000495Y008818D02*
X000829Y008818D01*
X000785Y008917D02*
X000508Y008917D01*
X000522Y009015D02*
X000785Y009015D01*
X000785Y009114D02*
X000536Y009114D01*
X000550Y009212D02*
X000785Y009212D01*
X000785Y009311D02*
X000564Y009311D01*
X000583Y009409D02*
X000785Y009409D01*
X000785Y009508D02*
X000612Y009508D01*
X000640Y009606D02*
X000785Y009606D01*
X000785Y009705D02*
X000668Y009705D01*
X000696Y009803D02*
X000843Y009803D01*
X000467Y008621D02*
X001985Y008621D01*
X001996Y008523D02*
X000453Y008523D01*
X000439Y008424D02*
X001954Y008424D01*
X001927Y008326D02*
X000428Y008326D01*
X000428Y008227D02*
X001927Y008227D01*
X001927Y008129D02*
X000428Y008129D01*
X000428Y008030D02*
X001927Y008030D01*
X001927Y007932D02*
X000428Y007932D01*
X002645Y009114D02*
X002893Y009114D01*
X002893Y009212D02*
X002645Y009212D01*
X002645Y009311D02*
X002931Y009311D01*
X002645Y009409D02*
X005480Y009409D01*
X005439Y009311D02*
X003973Y009311D01*
X003982Y009305D02*
X003948Y009325D01*
X003910Y009335D01*
X003771Y009335D01*
X003771Y009027D01*
X004040Y009027D01*
X004040Y009205D01*
X004030Y009243D01*
X004010Y009278D01*
X003982Y009305D01*
X004038Y009212D02*
X005431Y009212D01*
X005433Y009114D02*
X004040Y009114D01*
X003771Y009114D02*
X003733Y009114D01*
X003733Y009212D02*
X003771Y009212D01*
X003771Y009311D02*
X003733Y009311D01*
X003771Y009015D02*
X005474Y009015D01*
X005542Y008917D02*
X004040Y008917D01*
X004040Y008818D02*
X004316Y008818D01*
X004218Y008720D02*
X003991Y008720D01*
X003771Y008720D02*
X003733Y008720D01*
X003733Y008818D02*
X003771Y008818D01*
X003771Y008917D02*
X003733Y008917D01*
X003744Y008044D02*
X004304Y008044D01*
X004678Y008418D01*
X006489Y008418D01*
X006489Y008221D02*
X004874Y008221D01*
X005346Y007785D02*
X005654Y007785D01*
X005654Y007924D01*
X005644Y007961D01*
X006018Y007961D01*
X005650Y007592D01*
X005654Y007609D01*
X005654Y007748D01*
X005346Y007748D01*
X005346Y007785D01*
X005654Y007833D02*
X005891Y007833D01*
X005859Y007827D02*
X006056Y008024D01*
X006489Y008024D01*
X006489Y007827D02*
X006252Y007827D01*
X005662Y007237D01*
X005345Y007237D01*
X005327Y007255D01*
X005654Y007636D02*
X005694Y007636D01*
X005654Y007735D02*
X005792Y007735D01*
X005652Y007932D02*
X005989Y007932D01*
X006489Y007040D02*
X007827Y007040D01*
X007827Y006489D02*
X007827Y004481D01*
X007630Y004284D01*
X007813Y004101D01*
X007813Y003863D01*
X007827Y003863D01*
X008099Y004189D02*
X008933Y004189D01*
X008945Y004090D02*
X008198Y004090D01*
X008200Y003992D02*
X008945Y003992D01*
X008945Y003893D02*
X008200Y003893D01*
X008200Y003795D02*
X008945Y003795D01*
X008945Y003696D02*
X008200Y003696D01*
X008160Y003598D02*
X008945Y003598D01*
X008945Y003499D02*
X008140Y003499D01*
X008140Y003401D02*
X008924Y003401D01*
X009107Y003201D02*
X008221Y002315D01*
X007460Y002315D01*
X006464Y001319D01*
X006050Y001726D02*
X003641Y001726D01*
X003787Y001628D02*
X005964Y001628D01*
X005923Y001529D02*
X003933Y001529D01*
X004079Y001431D02*
X005884Y001431D01*
X005884Y001332D02*
X004266Y001332D01*
X004468Y001234D02*
X005884Y001234D01*
X005913Y001135D02*
X004670Y001135D01*
X004871Y001037D02*
X005953Y001037D01*
X006025Y000938D02*
X005086Y000938D01*
X005389Y000840D02*
X006124Y000840D01*
X005995Y000643D02*
X009596Y000643D01*
X009923Y000741D02*
X009991Y000741D01*
X010021Y000840D02*
X010284Y000840D01*
X010044Y000938D02*
X010528Y000938D01*
X010771Y001037D02*
X010044Y001037D01*
X010044Y001135D02*
X011015Y001135D01*
X011205Y001234D02*
X010044Y001234D01*
X010044Y001332D02*
X011375Y001332D01*
X011546Y001431D02*
X010044Y001431D01*
X010044Y001529D02*
X011717Y001529D01*
X011887Y001628D02*
X010044Y001628D01*
X010044Y001726D02*
X012036Y001726D01*
X012162Y001825D02*
X009996Y001825D01*
X008932Y001825D02*
X008592Y001825D01*
X008514Y001825D02*
X008414Y001825D01*
X008336Y001825D02*
X007760Y001825D01*
X007878Y001726D02*
X008139Y001726D01*
X008045Y001628D02*
X007964Y001628D01*
X007534Y002022D02*
X012414Y002022D01*
X012288Y001923D02*
X007435Y001923D01*
X006995Y002219D02*
X002998Y002219D01*
X003108Y002120D02*
X006897Y002120D01*
X006798Y002022D02*
X003217Y002022D01*
X003349Y001923D02*
X006700Y001923D01*
X006168Y001825D02*
X003495Y001825D01*
X004556Y003007D02*
X004594Y003007D01*
X004594Y003105D02*
X004556Y003105D01*
X004556Y003204D02*
X004594Y003204D01*
X005930Y003499D02*
X006302Y003499D01*
X006260Y003401D02*
X005972Y003401D01*
X005972Y003302D02*
X006260Y003302D01*
X006260Y003204D02*
X005972Y003204D01*
X005972Y003105D02*
X006260Y003105D01*
X006260Y003007D02*
X005972Y003007D01*
X005972Y002908D02*
X006260Y002908D01*
X006301Y002810D02*
X005931Y002810D01*
X005912Y003696D02*
X006320Y003696D01*
X006260Y003795D02*
X005972Y003795D01*
X005972Y003893D02*
X006260Y003893D01*
X006260Y003992D02*
X005972Y003992D01*
X005972Y004090D02*
X006260Y004090D01*
X006260Y004189D02*
X005972Y004189D01*
X005972Y004287D02*
X006260Y004287D01*
X006283Y004386D02*
X005949Y004386D01*
X006128Y005174D02*
X007315Y005174D01*
X007370Y005272D02*
X007018Y005272D01*
X007116Y005371D02*
X007370Y005371D01*
X007370Y005469D02*
X007215Y005469D01*
X007313Y005568D02*
X007370Y005568D01*
X007237Y005859D02*
X007237Y006489D01*
X007237Y006843D01*
X008615Y006843D01*
X008811Y007040D01*
X009166Y007040D01*
X010780Y007040D01*
X011174Y007433D01*
X011489Y007144D02*
X012478Y007144D01*
X012478Y007163D02*
X012478Y006988D01*
X012381Y006891D01*
X012381Y006500D01*
X012351Y006529D01*
X011520Y006529D01*
X011397Y006406D01*
X011397Y005917D01*
X011402Y005912D01*
X011397Y005906D01*
X011397Y005859D01*
X010829Y005292D01*
X010756Y005219D01*
X010717Y005123D01*
X010717Y004785D01*
X010643Y004712D01*
X010585Y004712D01*
X010617Y004789D01*
X010617Y004960D01*
X010552Y005117D01*
X010432Y005237D01*
X010275Y005303D01*
X010129Y005303D01*
X010016Y005415D01*
X009943Y005489D01*
X009847Y005528D01*
X009313Y005528D01*
X009071Y005770D01*
X009071Y006235D01*
X009080Y006244D01*
X009080Y006634D01*
X009166Y006634D01*
X009343Y006634D01*
X009381Y006644D01*
X009415Y006664D01*
X009443Y006692D01*
X009463Y006726D01*
X009473Y006764D01*
X009473Y006780D01*
X010832Y006780D01*
X010927Y006819D01*
X011000Y006892D01*
X011000Y006892D01*
X011113Y007005D01*
X011259Y007005D01*
X011416Y007071D01*
X011509Y007163D01*
X012478Y007163D01*
X012478Y007045D02*
X011355Y007045D01*
X011054Y006947D02*
X012437Y006947D01*
X012381Y006848D02*
X010956Y006848D01*
X010713Y007341D02*
X009533Y007341D01*
X009533Y007439D02*
X010746Y007439D01*
X010753Y007538D02*
X009533Y007538D01*
X009533Y007636D02*
X010794Y007636D01*
X010869Y007735D02*
X009533Y007735D01*
X009533Y007833D02*
X011020Y007833D01*
X011328Y007833D02*
X012342Y007833D01*
X012342Y007735D02*
X011478Y007735D01*
X012342Y007932D02*
X009533Y007932D01*
X009973Y008030D02*
X012342Y008030D01*
X012379Y008129D02*
X010071Y008129D01*
X010170Y008227D02*
X015216Y008227D01*
X015209Y008326D02*
X010268Y008326D01*
X010367Y008424D02*
X015203Y008424D01*
X015196Y008523D02*
X014424Y008523D01*
X014415Y008514D02*
X014443Y008542D01*
X014463Y008576D01*
X014473Y008615D01*
X014473Y008793D01*
X014204Y008793D01*
X014204Y008484D01*
X014343Y008484D01*
X014381Y008494D01*
X014415Y008514D01*
X014473Y008621D02*
X015189Y008621D01*
X015182Y008720D02*
X014473Y008720D01*
X014473Y008830D02*
X014473Y009008D01*
X014463Y009046D01*
X014443Y009081D01*
X014415Y009109D01*
X014381Y009128D01*
X014343Y009139D01*
X014204Y009139D01*
X014204Y008830D01*
X014473Y008830D01*
X014473Y008917D02*
X015160Y008917D01*
X015175Y008818D02*
X014204Y008818D01*
X014204Y008720D02*
X014167Y008720D01*
X014167Y008621D02*
X014204Y008621D01*
X014204Y008523D02*
X014167Y008523D01*
X014167Y008917D02*
X014204Y008917D01*
X014204Y009015D02*
X014167Y009015D01*
X014167Y009114D02*
X014204Y009114D01*
X014204Y009311D02*
X014167Y009311D01*
X014167Y009409D02*
X014204Y009409D01*
X014204Y009508D02*
X014167Y009508D01*
X014204Y009606D02*
X015013Y009606D01*
X014993Y009705D02*
X014473Y009705D01*
X014473Y009618D02*
X014473Y009796D01*
X014463Y009834D01*
X014443Y009868D01*
X014415Y009896D01*
X014381Y009916D01*
X014343Y009926D01*
X014204Y009926D01*
X014204Y009618D01*
X014473Y009618D01*
X014473Y009508D02*
X015034Y009508D01*
X015055Y009409D02*
X014473Y009409D01*
X014424Y009311D02*
X015076Y009311D01*
X015097Y009212D02*
X013899Y009212D01*
X013674Y008811D02*
X013142Y008811D01*
X011530Y010424D01*
X010977Y010424D01*
X010977Y009599D01*
X011280Y009902D02*
X011684Y009902D01*
X011586Y010000D02*
X011237Y010000D01*
X011395Y010099D02*
X011487Y010099D01*
X011356Y009803D02*
X011783Y009803D01*
X011881Y009705D02*
X011396Y009705D01*
X011405Y009606D02*
X011980Y009606D01*
X012078Y009508D02*
X011402Y009508D01*
X011362Y009409D02*
X012177Y009409D01*
X012275Y009311D02*
X011294Y009311D01*
X011162Y009212D02*
X012374Y009212D01*
X012472Y009114D02*
X010646Y009114D01*
X010646Y009212D02*
X010792Y009212D01*
X010660Y009311D02*
X010646Y009311D01*
X010646Y009015D02*
X012571Y009015D01*
X012669Y008917D02*
X010646Y008917D01*
X010646Y008818D02*
X012768Y008818D01*
X012866Y008720D02*
X010630Y008720D01*
X010564Y008621D02*
X012965Y008621D01*
X013351Y008523D02*
X010465Y008523D01*
X010052Y008870D02*
X009796Y008615D01*
X009166Y008615D01*
X009166Y008418D02*
X008615Y008418D01*
X008418Y008615D01*
X008615Y009166D02*
X008615Y009402D01*
X008418Y009599D01*
X008535Y009705D02*
X007497Y009705D01*
X007497Y009606D02*
X008633Y009606D01*
X008640Y009508D02*
X008589Y009508D01*
X008436Y009803D02*
X007521Y009803D01*
X007620Y009902D02*
X008338Y009902D01*
X008239Y010000D02*
X007624Y010000D01*
X007624Y010099D02*
X008141Y010099D01*
X008042Y010197D02*
X007624Y010197D01*
X007624Y010296D02*
X007944Y010296D01*
X007855Y010394D02*
X007585Y010394D01*
X007564Y010493D02*
X007823Y010493D01*
X007823Y010591D02*
X007564Y010591D01*
X007564Y010690D02*
X007823Y010690D01*
X007823Y010788D02*
X007564Y010788D01*
X007519Y010887D02*
X007823Y010887D01*
X007823Y010985D02*
X002645Y010985D01*
X002645Y010887D02*
X003567Y010887D01*
X003456Y010788D02*
X002645Y010788D01*
X002692Y011084D02*
X007823Y011084D01*
X007823Y011182D02*
X006638Y011182D01*
X006768Y011281D02*
X007823Y011281D01*
X008083Y011567D02*
X008949Y011567D01*
X009146Y011370D01*
X009111Y011773D02*
X010407Y011773D01*
X010407Y011872D02*
X008431Y011872D01*
X008431Y011970D02*
X010407Y011970D01*
X010407Y011952D02*
X010882Y011952D01*
X010882Y012231D01*
X010537Y012231D01*
X010499Y012221D01*
X010465Y012201D01*
X010437Y012173D01*
X010417Y012139D01*
X010407Y012101D01*
X010407Y011952D01*
X010407Y012069D02*
X008431Y012069D01*
X008431Y012167D02*
X009061Y012167D01*
X009067Y012165D02*
X009352Y012165D01*
X009352Y012639D01*
X008937Y012639D01*
X008937Y012296D01*
X008947Y012257D01*
X008967Y012223D01*
X008995Y012195D01*
X009029Y012176D01*
X009067Y012165D01*
X008945Y012266D02*
X008409Y012266D01*
X008431Y012364D02*
X008937Y012364D01*
X008937Y012463D02*
X008431Y012463D01*
X008438Y012561D02*
X008937Y012561D01*
X008937Y012758D02*
X008461Y012758D01*
X008461Y012660D02*
X009352Y012660D01*
X009352Y012758D02*
X009452Y012758D01*
X009452Y012660D02*
X013447Y012660D01*
X012544Y012266D02*
X009859Y012266D01*
X009743Y012167D02*
X010433Y012167D01*
X010882Y012167D02*
X010940Y012167D01*
X010940Y012069D02*
X010882Y012069D01*
X010882Y011970D02*
X010940Y011970D01*
X010940Y011895D02*
X010940Y011791D01*
X010882Y011791D01*
X010882Y011895D01*
X010940Y011895D01*
X010940Y011872D02*
X010882Y011872D01*
X010911Y011424D02*
X009711Y011424D01*
X009658Y011370D01*
X009658Y010524D01*
X010052Y010130D01*
X010052Y008870D01*
X009599Y009599D02*
X009008Y009599D01*
X008083Y010524D01*
X008083Y011567D01*
X006449Y011567D01*
X006148Y011872D02*
X004077Y011872D01*
X004077Y011773D02*
X006071Y011773D01*
X006030Y011675D02*
X004074Y011675D01*
X003975Y011576D02*
X006021Y011576D01*
X006023Y011478D02*
X003086Y011478D01*
X002987Y011379D02*
X006064Y011379D01*
X006131Y011281D02*
X002889Y011281D01*
X002790Y011182D02*
X006261Y011182D01*
X006508Y010642D02*
X006449Y010583D01*
X006449Y010189D01*
X007040Y009599D01*
X007040Y009166D01*
X006843Y009166D02*
X006843Y009402D01*
X006646Y009599D01*
X006252Y009599D01*
X005859Y009205D01*
X005556Y009508D02*
X002645Y009508D01*
X002645Y009606D02*
X005708Y009606D01*
X005990Y009705D02*
X002645Y009705D01*
X002645Y009803D02*
X006089Y009803D01*
X006032Y009746D02*
X006032Y009746D01*
X005360Y010197D02*
X006849Y010197D01*
X006849Y010099D02*
X005308Y010099D01*
X005224Y010000D02*
X006849Y010000D01*
X006853Y009902D02*
X005065Y009902D01*
X004924Y009902D02*
X004824Y009902D01*
X004824Y010000D02*
X004924Y010000D01*
X004924Y010099D02*
X004824Y010099D01*
X004824Y010197D02*
X004924Y010197D01*
X004924Y010296D02*
X004824Y010296D01*
X004924Y010394D02*
X006888Y010394D01*
X006909Y010493D02*
X005384Y010493D01*
X005382Y010508D02*
X005356Y010586D01*
X005319Y010659D01*
X005271Y010725D01*
X005213Y010783D01*
X005147Y010831D01*
X005074Y010868D01*
X004996Y010893D01*
X004924Y010905D01*
X004924Y010436D01*
X005393Y010436D01*
X005382Y010508D01*
X005354Y010591D02*
X006909Y010591D01*
X006909Y010690D02*
X005297Y010690D01*
X005206Y010788D02*
X006909Y010788D01*
X006954Y010887D02*
X005017Y010887D01*
X004924Y010887D02*
X004824Y010887D01*
X004731Y010887D02*
X004182Y010887D01*
X004293Y010788D02*
X004543Y010788D01*
X004452Y010690D02*
X004377Y010690D01*
X004824Y010690D02*
X004924Y010690D01*
X004924Y010788D02*
X004824Y010788D01*
X004824Y010591D02*
X004924Y010591D01*
X004924Y010493D02*
X004824Y010493D01*
X004441Y010099D02*
X004383Y010099D01*
X004308Y010000D02*
X004525Y010000D01*
X004683Y009902D02*
X004210Y009902D01*
X003539Y009902D02*
X002645Y009902D01*
X002645Y010000D02*
X003440Y010000D01*
X003325Y011576D02*
X003306Y011576D01*
X004126Y011970D02*
X006303Y011970D01*
X006302Y012167D02*
X006202Y012167D01*
X006202Y012165D02*
X006202Y012639D01*
X005787Y012639D01*
X005787Y012296D01*
X005798Y012257D01*
X005817Y012223D01*
X005845Y012195D01*
X005880Y012176D01*
X005918Y012165D01*
X006202Y012165D01*
X006202Y012266D02*
X006302Y012266D01*
X006302Y012364D02*
X006202Y012364D01*
X006202Y012463D02*
X006302Y012463D01*
X006302Y012561D02*
X006202Y012561D01*
X006202Y012660D02*
X005451Y012660D01*
X005451Y012758D02*
X005787Y012758D01*
X005787Y012857D02*
X005451Y012857D01*
X005451Y012955D02*
X005787Y012955D01*
X005787Y013054D02*
X005425Y013054D01*
X005451Y013028D02*
X005328Y013151D01*
X004839Y013151D01*
X004716Y013028D01*
X004716Y012500D01*
X004839Y012377D01*
X005328Y012377D01*
X005451Y012500D01*
X005451Y013028D01*
X005451Y012561D02*
X005787Y012561D01*
X005787Y012463D02*
X005413Y012463D01*
X005787Y012364D02*
X004520Y012364D01*
X004421Y012266D02*
X005795Y012266D01*
X005911Y012167D02*
X004323Y012167D01*
X004224Y012069D02*
X007283Y012069D01*
X007286Y012167D02*
X006593Y012167D01*
X006709Y012266D02*
X007330Y012266D01*
X007283Y012364D02*
X006717Y012364D01*
X006717Y012463D02*
X007283Y012463D01*
X007283Y012570D02*
X007552Y012570D01*
X007552Y012879D01*
X007414Y012879D01*
X007376Y012869D01*
X007341Y012849D01*
X007313Y012821D01*
X007294Y012787D01*
X007283Y012748D01*
X007283Y012570D01*
X007283Y012660D02*
X006302Y012660D01*
X006302Y012739D02*
X006717Y012739D01*
X006717Y013083D01*
X006707Y013121D01*
X006687Y013155D01*
X006659Y013183D01*
X006625Y013203D01*
X006587Y013213D01*
X006302Y013213D01*
X006302Y012739D01*
X006302Y012758D02*
X006202Y012758D01*
X006202Y012857D02*
X006302Y012857D01*
X006302Y012955D02*
X006202Y012955D01*
X006202Y013054D02*
X006302Y013054D01*
X006302Y013152D02*
X006202Y013152D01*
X006689Y013152D02*
X007135Y013152D01*
X007135Y013251D02*
X005000Y013251D01*
X004741Y013054D02*
X004677Y013054D01*
X004703Y012955D02*
X004716Y012955D01*
X004703Y012857D02*
X004716Y012857D01*
X004703Y012758D02*
X004716Y012758D01*
X004703Y012660D02*
X004716Y012660D01*
X004703Y012561D02*
X004716Y012561D01*
X004753Y012463D02*
X004665Y012463D01*
X004418Y013251D02*
X002793Y013251D01*
X002902Y013349D02*
X004342Y013349D01*
X004342Y013448D02*
X003011Y013448D01*
X003121Y013546D02*
X004342Y013546D01*
X004342Y013645D02*
X003230Y013645D01*
X003366Y013743D02*
X004342Y013743D01*
X004342Y013842D02*
X003512Y013842D01*
X003658Y013940D02*
X004427Y013940D01*
X004290Y014334D02*
X005727Y014334D01*
X005727Y014236D02*
X004096Y014236D01*
X003950Y014137D02*
X005599Y014137D01*
X005501Y014039D02*
X003804Y014039D01*
X004492Y014433D02*
X005727Y014433D01*
X005809Y014531D02*
X004694Y014531D01*
X004895Y014630D02*
X006917Y014630D01*
X006781Y014531D02*
X006696Y014531D01*
X007135Y014728D02*
X005122Y014728D01*
X005425Y014827D02*
X007173Y014827D01*
X007173Y014925D02*
X005728Y014925D01*
X006031Y015024D02*
X007198Y015024D01*
X007274Y015122D02*
X006589Y015122D01*
X007433Y014914D02*
X007433Y014461D01*
X007453Y014441D01*
X007823Y014433D02*
X007831Y014433D01*
X007823Y014334D02*
X007831Y014334D01*
X007823Y014236D02*
X007831Y014236D01*
X007823Y014137D02*
X007831Y014137D01*
X007963Y014039D02*
X007692Y014039D01*
X007671Y013842D02*
X007984Y013842D01*
X007885Y013743D02*
X007769Y013743D01*
X007771Y013645D02*
X007883Y013645D01*
X007883Y013546D02*
X007771Y013546D01*
X007771Y013448D02*
X007871Y013448D01*
X007872Y013349D02*
X007771Y013349D01*
X007771Y013251D02*
X007883Y013251D01*
X007883Y013152D02*
X007771Y013152D01*
X007730Y013054D02*
X007924Y013054D01*
X007941Y012955D02*
X006717Y012955D01*
X006717Y012857D02*
X007355Y012857D01*
X007286Y012758D02*
X006717Y012758D01*
X006717Y012561D02*
X007552Y012561D01*
X007552Y012533D02*
X007590Y012533D01*
X007590Y011980D01*
X007552Y011980D01*
X007552Y012288D01*
X007552Y012533D01*
X007552Y012463D02*
X007590Y012463D01*
X007590Y012364D02*
X007552Y012364D01*
X007552Y012266D02*
X007590Y012266D01*
X007590Y012167D02*
X007552Y012167D01*
X007552Y012069D02*
X007590Y012069D01*
X007552Y011970D02*
X006596Y011970D01*
X006750Y011872D02*
X007283Y011872D01*
X008083Y011961D02*
X008083Y012552D01*
X008201Y012670D01*
X008201Y013418D01*
X008479Y013054D02*
X008937Y013054D01*
X008937Y012955D02*
X008461Y012955D01*
X008461Y012857D02*
X008937Y012857D01*
X009352Y012857D02*
X009452Y012857D01*
X009452Y012955D02*
X009352Y012955D01*
X009352Y013054D02*
X009452Y013054D01*
X009452Y013152D02*
X009352Y013152D01*
X009352Y012561D02*
X009452Y012561D01*
X009452Y012463D02*
X009352Y012463D01*
X009352Y012364D02*
X009452Y012364D01*
X009452Y012266D02*
X009352Y012266D01*
X009352Y012167D02*
X009452Y012167D01*
X008083Y011961D02*
X008083Y011567D01*
X007256Y010887D02*
X007218Y010887D01*
X007218Y010788D02*
X007256Y010788D01*
X007256Y010690D02*
X007218Y010690D01*
X007237Y010642D02*
X006508Y010642D01*
X006849Y010296D02*
X005387Y010296D01*
X006810Y009803D02*
X006952Y009803D01*
X006977Y009705D02*
X006908Y009705D01*
X007237Y010130D02*
X007237Y009166D01*
X008811Y009166D02*
X009008Y009363D01*
X009008Y009599D01*
X010911Y010424D02*
X010977Y010424D01*
X011873Y011182D02*
X012447Y011182D01*
X012447Y011084D02*
X012025Y011084D01*
X012124Y010985D02*
X012447Y010985D01*
X012447Y010887D02*
X012198Y010887D01*
X012221Y010788D02*
X012447Y010788D01*
X012447Y010690D02*
X012221Y010690D01*
X012221Y010591D02*
X012447Y010591D01*
X012447Y010493D02*
X012222Y010493D01*
X012321Y010394D02*
X012447Y010394D01*
X012447Y010296D02*
X012419Y010296D01*
X013011Y009311D02*
X013350Y009311D01*
X013448Y009212D02*
X013109Y009212D01*
X013208Y009114D02*
X013364Y009114D01*
X014167Y009705D02*
X014204Y009705D01*
X014204Y009803D02*
X014167Y009803D01*
X014167Y009902D02*
X014204Y009902D01*
X014406Y009902D02*
X014946Y009902D01*
X014972Y009803D02*
X014471Y009803D01*
X014407Y009114D02*
X015118Y009114D01*
X015139Y009015D02*
X014471Y009015D01*
X015223Y008129D02*
X013424Y008129D01*
X013431Y008124D02*
X013397Y008144D01*
X013359Y008154D01*
X013220Y008154D01*
X013220Y007846D01*
X013489Y007846D01*
X013489Y008024D01*
X013479Y008062D01*
X013459Y008096D01*
X013431Y008124D01*
X013487Y008030D02*
X015230Y008030D01*
X015237Y007932D02*
X013489Y007932D01*
X013489Y007735D02*
X015238Y007735D01*
X015244Y007833D02*
X013220Y007833D01*
X013220Y007735D02*
X013182Y007735D01*
X013182Y007636D02*
X013220Y007636D01*
X013220Y007538D02*
X013182Y007538D01*
X013018Y007439D02*
X015217Y007439D01*
X015210Y007341D02*
X013018Y007341D01*
X013018Y007242D02*
X015203Y007242D01*
X015197Y007144D02*
X013018Y007144D01*
X013018Y007045D02*
X015190Y007045D01*
X015183Y006947D02*
X013060Y006947D01*
X013116Y006848D02*
X015176Y006848D01*
X015172Y006795D02*
X015172Y006795D01*
X015163Y006750D02*
X013116Y006750D01*
X013116Y006651D02*
X015142Y006651D01*
X015121Y006553D02*
X013116Y006553D01*
X012381Y006553D02*
X009080Y006553D01*
X009080Y006454D02*
X011444Y006454D01*
X011397Y006356D02*
X009080Y006356D01*
X009080Y006257D02*
X011397Y006257D01*
X011397Y006159D02*
X009071Y006159D01*
X009071Y006060D02*
X011397Y006060D01*
X011397Y005962D02*
X009071Y005962D01*
X009071Y005863D02*
X011397Y005863D01*
X011302Y005765D02*
X009076Y005765D01*
X009175Y005666D02*
X011204Y005666D01*
X011105Y005568D02*
X009273Y005568D01*
X009205Y005268D02*
X009796Y005268D01*
X010189Y004874D01*
X010617Y004878D02*
X010717Y004878D01*
X010717Y004977D02*
X010610Y004977D01*
X010570Y005075D02*
X010717Y005075D01*
X010738Y005174D02*
X010496Y005174D01*
X010348Y005272D02*
X010810Y005272D01*
X010908Y005371D02*
X010061Y005371D01*
X009962Y005469D02*
X011007Y005469D01*
X010977Y005071D02*
X010977Y004678D01*
X010583Y004284D01*
X010613Y004780D02*
X010711Y004780D01*
X010977Y005071D02*
X011567Y005662D01*
X011935Y005662D01*
X011935Y005162D02*
X011658Y005162D01*
X011370Y004874D01*
X011370Y004284D01*
X012296Y004284D01*
X012493Y004087D01*
X012158Y003693D02*
X011961Y003890D01*
X011567Y003890D01*
X011174Y003496D01*
X010583Y003496D01*
X010386Y003300D01*
X010189Y003103D01*
X009205Y003103D01*
X009107Y003201D02*
X009205Y003300D01*
X009205Y004284D01*
X008811Y004678D01*
X008418Y004678D01*
X008024Y005071D01*
X008024Y006489D01*
X008221Y006489D02*
X008221Y005268D01*
X008418Y005071D01*
X008811Y005071D01*
X009599Y004284D01*
X009599Y003890D01*
X010977Y003890D01*
X011370Y004284D01*
X011642Y003598D02*
X011886Y003598D01*
X011898Y003499D02*
X011544Y003499D01*
X011445Y003401D02*
X011916Y003401D01*
X011985Y003302D02*
X011347Y003302D01*
X010810Y003204D02*
X012047Y003204D01*
X011974Y003105D02*
X010769Y003105D01*
X010699Y003007D02*
X011933Y003007D01*
X011927Y002908D02*
X010560Y002908D01*
X009599Y003496D02*
X009599Y003890D01*
X008834Y004287D02*
X008001Y004287D01*
X008069Y004386D02*
X008736Y004386D01*
X008244Y004484D02*
X008087Y004484D01*
X008087Y004583D02*
X008145Y004583D01*
X007630Y004284D02*
X007406Y004059D01*
X006844Y004059D01*
X006844Y004087D01*
X006858Y004073D02*
X006844Y004059D01*
X007369Y003696D02*
X007426Y003696D01*
X008221Y003300D02*
X008615Y003693D01*
X009083Y002810D02*
X011931Y002810D01*
X011972Y002711D02*
X008984Y002711D01*
X008886Y002613D02*
X012043Y002613D01*
X012182Y002514D02*
X008787Y002514D01*
X008689Y002416D02*
X012887Y002416D01*
X012982Y002514D02*
X012527Y002514D01*
X012667Y002613D02*
X013077Y002613D01*
X013173Y002711D02*
X012935Y002711D01*
X013034Y002810D02*
X013268Y002810D01*
X013363Y002908D02*
X013132Y002908D01*
X013231Y003007D02*
X013458Y003007D01*
X013542Y003105D02*
X013273Y003105D01*
X013323Y003204D02*
X013614Y003204D01*
X013685Y003302D02*
X013352Y003302D01*
X013352Y003401D02*
X013757Y003401D01*
X013828Y003499D02*
X013352Y003499D01*
X013352Y003598D02*
X013900Y003598D01*
X013971Y003696D02*
X013352Y003696D01*
X013324Y003795D02*
X014043Y003795D01*
X014115Y003893D02*
X013352Y003893D01*
X013352Y003992D02*
X014168Y003992D01*
X014220Y004090D02*
X013352Y004090D01*
X013352Y004189D02*
X014272Y004189D01*
X014325Y004287D02*
X013352Y004287D01*
X013318Y004386D02*
X014377Y004386D01*
X014430Y004484D02*
X013116Y004484D01*
X013116Y004583D02*
X014482Y004583D01*
X014534Y004681D02*
X013116Y004681D01*
X013116Y004780D02*
X014587Y004780D01*
X014628Y004878D02*
X013971Y004878D01*
X014038Y004977D02*
X014664Y004977D01*
X014699Y005075D02*
X014040Y005075D01*
X014040Y005272D02*
X014771Y005272D01*
X014735Y005174D02*
X013590Y005174D01*
X013533Y005174D02*
X013116Y005174D01*
X013116Y005191D02*
X013533Y005191D01*
X013533Y005133D01*
X013116Y005133D01*
X013116Y005191D01*
X013116Y004878D02*
X013151Y004878D01*
X013533Y004878D02*
X013590Y004878D01*
X013590Y004977D02*
X013533Y004977D01*
X013533Y005075D02*
X013590Y005075D01*
X013590Y005272D02*
X013533Y005272D01*
X014053Y005371D02*
X014807Y005371D01*
X014843Y005469D02*
X014100Y005469D01*
X014100Y005568D02*
X014879Y005568D01*
X014915Y005666D02*
X014100Y005666D01*
X014100Y005765D02*
X014950Y005765D01*
X014974Y005863D02*
X014100Y005863D01*
X014100Y005962D02*
X014995Y005962D01*
X015016Y006060D02*
X014100Y006060D01*
X014100Y006159D02*
X015037Y006159D01*
X015058Y006257D02*
X014100Y006257D01*
X014100Y006356D02*
X015079Y006356D01*
X015100Y006454D02*
X014052Y006454D01*
X013439Y007538D02*
X015224Y007538D01*
X015231Y007636D02*
X013489Y007636D01*
X013220Y007932D02*
X013182Y007932D01*
X013182Y008030D02*
X013220Y008030D01*
X013220Y008129D02*
X013182Y008129D01*
X012381Y006750D02*
X009469Y006750D01*
X009393Y006651D02*
X012381Y006651D01*
X013004Y004087D02*
X013004Y003496D01*
X013004Y003162D01*
X012493Y003496D02*
X012158Y003496D01*
X012158Y003693D01*
X012792Y002317D02*
X008590Y002317D01*
X008492Y002219D02*
X012667Y002219D01*
X012540Y002120D02*
X008393Y002120D01*
X008414Y001726D02*
X008514Y001726D01*
X008514Y001628D02*
X008414Y001628D01*
X008414Y001529D02*
X008514Y001529D01*
X008514Y001431D02*
X008414Y001431D01*
X008414Y001234D02*
X008514Y001234D01*
X008514Y001135D02*
X008414Y001135D01*
X008414Y001037D02*
X008514Y001037D01*
X008514Y000938D02*
X008414Y000938D01*
X008414Y000840D02*
X008514Y000840D01*
X008667Y000840D02*
X008907Y000840D01*
X008884Y000938D02*
X008818Y000938D01*
X009005Y000741D02*
X007583Y000741D01*
X007804Y000840D02*
X008261Y000840D01*
X008110Y000938D02*
X007903Y000938D01*
X007975Y001037D02*
X008027Y001037D01*
X008381Y000446D02*
X007199Y000446D01*
X007345Y000741D02*
X006583Y000741D01*
X006522Y000544D02*
X009201Y000544D01*
X008883Y001628D02*
X008884Y001628D01*
X008884Y001726D02*
X008789Y001726D01*
X007124Y000840D02*
X006804Y000840D01*
X006903Y000938D02*
X007025Y000938D01*
X006345Y000741D02*
X005692Y000741D01*
X002906Y004185D02*
X002906Y004815D01*
X002906Y005327D02*
X002906Y005465D01*
X003496Y006056D01*
X004481Y006056D02*
X004678Y006252D01*
X005071Y006252D01*
X005465Y006252D01*
X006056Y006843D01*
X006489Y006843D01*
X007040Y006489D02*
X007040Y006056D01*
X006646Y005662D01*
X006449Y005662D01*
X006252Y005859D01*
X005902Y005859D01*
X005796Y005965D01*
X005796Y005453D02*
X005280Y005453D01*
X005796Y005453D02*
X006831Y005453D01*
X007237Y005859D01*
X008811Y005662D02*
X009205Y005268D01*
X008811Y005662D02*
X008811Y006489D01*
X009166Y006634D02*
X009166Y006771D01*
X009166Y006634D01*
X009166Y006651D02*
X009166Y006651D01*
X009166Y006750D02*
X009166Y006750D01*
X009166Y006771D02*
X009166Y006771D01*
X011475Y011281D02*
X012447Y011281D01*
X012447Y011379D02*
X011475Y011379D01*
X011475Y011478D02*
X012447Y011478D01*
X012447Y011576D02*
X011475Y011576D01*
X011469Y011675D02*
X012451Y011675D01*
X012447Y011773D02*
X011415Y011773D01*
X011415Y011872D02*
X012447Y011872D01*
X012447Y011970D02*
X011415Y011970D01*
X011415Y012069D02*
X012447Y012069D01*
X012447Y012167D02*
X011389Y012167D01*
X008788Y013842D02*
X008419Y013842D01*
X008221Y014441D02*
X008201Y014441D01*
X008221Y014441D02*
X008221Y014914D01*
X007433Y014914D01*
X007534Y015221D02*
X008269Y015221D01*
X007176Y013054D02*
X006717Y013054D01*
X007552Y012857D02*
X007590Y012857D01*
X007590Y012758D02*
X007552Y012758D01*
X007552Y012660D02*
X007590Y012660D01*
X005402Y013940D02*
X004992Y013940D01*
X002315Y004815D02*
X002315Y004185D01*
X001948Y003499D02*
X001807Y003499D01*
X001883Y003401D02*
X001948Y003401D01*
X001965Y003302D02*
X001996Y003302D01*
D11*
X006489Y006843D03*
X006489Y007040D03*
X006489Y007237D03*
X006489Y007433D03*
X006489Y007630D03*
X006489Y007827D03*
X006489Y008024D03*
X006489Y008221D03*
X006489Y008418D03*
X006489Y008615D03*
X006489Y008811D03*
X009166Y008811D03*
X009166Y008615D03*
X009166Y008418D03*
X009166Y008221D03*
X009166Y008024D03*
X009166Y007827D03*
X009166Y007630D03*
X009166Y007433D03*
X009166Y007237D03*
X009166Y007040D03*
X009166Y006843D03*
D12*
X008811Y006489D03*
X008615Y006489D03*
X008418Y006489D03*
X008221Y006489D03*
X008024Y006489D03*
X007827Y006489D03*
X007630Y006489D03*
X007433Y006489D03*
X007237Y006489D03*
X007040Y006489D03*
X006843Y006489D03*
X006843Y009166D03*
X007040Y009166D03*
X007237Y009166D03*
X007433Y009166D03*
X007630Y009166D03*
X007827Y009166D03*
X008024Y009166D03*
X008221Y009166D03*
X008418Y009166D03*
X008615Y009166D03*
X008811Y009166D03*
D13*
X006844Y004059D03*
X006844Y003154D03*
X005388Y003154D03*
X005388Y004059D03*
D14*
X004575Y003782D03*
X004575Y003270D03*
X002906Y004815D03*
X002906Y005327D03*
X002315Y005327D03*
X002315Y004815D03*
X005327Y007255D03*
X005327Y007767D03*
X005796Y005965D03*
X005796Y005453D03*
X007813Y003863D03*
X007813Y003351D03*
X007237Y010130D03*
X007237Y010642D03*
D15*
X002412Y008241D03*
X002412Y007985D03*
X002412Y007729D03*
X002412Y007473D03*
X002412Y007217D03*
D16*
X001369Y006154D03*
X001369Y009304D03*
D17*
X003241Y009008D03*
X003752Y009008D03*
X003744Y008044D03*
X003232Y008044D03*
X003133Y007429D03*
X003645Y007429D03*
X007571Y011961D03*
X008083Y011961D03*
X008083Y012552D03*
X007571Y012552D03*
X009146Y011370D03*
X009658Y011370D03*
X012689Y007827D03*
X013201Y007827D03*
X013674Y008811D03*
X014185Y008811D03*
X014185Y009599D03*
X013674Y009599D03*
X013004Y004087D03*
X012493Y004087D03*
X012493Y003496D03*
X013004Y003496D03*
D18*
X008201Y013418D03*
X007453Y013418D03*
X007453Y014441D03*
X007827Y014441D03*
X008201Y014441D03*
D19*
X009402Y013989D03*
X009402Y012689D03*
X006252Y012689D03*
X006252Y013989D03*
D20*
X005083Y012764D03*
X004335Y012764D03*
X004709Y013591D03*
D21*
X003650Y011961D03*
X002981Y011961D03*
D22*
X002906Y004185D03*
X002906Y003595D03*
X002315Y003595D03*
X002315Y004185D03*
D23*
X009464Y001319D03*
D24*
X008464Y001319D03*
X007464Y001319D03*
X006464Y001319D03*
X004874Y010386D03*
X003874Y010386D03*
D25*
X010911Y010424D03*
X010911Y010924D03*
X010911Y011424D03*
X010911Y011924D03*
X013011Y011924D03*
X013011Y011424D03*
X013011Y010924D03*
X013011Y010424D03*
D26*
X012748Y005012D03*
D27*
X012748Y006475D03*
D28*
X011935Y006162D03*
X011935Y005662D03*
X011935Y005162D03*
X013561Y005162D03*
X013561Y005662D03*
X013561Y006162D03*
D29*
X014520Y007237D03*
X012059Y006941D03*
X011174Y007433D03*
X011174Y008811D03*
X010977Y009599D03*
X009599Y009599D03*
X008418Y008615D03*
X008615Y007827D03*
X007827Y007827D03*
X007433Y008418D03*
X005859Y009205D03*
X004678Y007237D03*
X004481Y006056D03*
X003496Y006056D03*
X001528Y005071D03*
X001331Y007630D03*
X001528Y010386D03*
X003496Y013142D03*
X005465Y011961D03*
X006449Y011567D03*
X010386Y013733D03*
X010189Y004874D03*
X010583Y004284D03*
X010386Y003300D03*
X009796Y002709D03*
X009599Y003496D03*
X008615Y003693D03*
X011370Y001922D03*
X012355Y002906D03*
X003103Y002512D03*
D30*
X009107Y003201D02*
X009205Y003103D01*
X012355Y002906D02*
X012748Y002906D01*
X013004Y003162D01*
X013061Y006162D02*
X012748Y006475D01*
X012748Y007433D01*
X012689Y007493D01*
X012689Y007827D01*
X012748Y007433D02*
X011174Y007433D01*
X011961Y006843D02*
X012059Y006941D01*
X011961Y006843D02*
X009166Y006843D01*
X013061Y006162D02*
X013561Y006162D01*
D31*
X001331Y006056D02*
X001331Y005465D01*
X001331Y006056D02*
X000741Y006056D01*
X001331Y006056D02*
X001331Y006843D01*
X001331Y008615D02*
X001331Y009205D01*
X001331Y009402D02*
X001331Y009993D01*
X001331Y009402D02*
X000741Y009402D01*
D32*
X002315Y008615D02*
X002315Y010386D01*
X003874Y010386D01*
X002981Y011839D02*
X002315Y011174D01*
X002315Y010386D01*
X002981Y011839D02*
X002981Y011961D01*
X003650Y011961D02*
X004335Y012646D01*
X004335Y012764D01*
X004709Y013591D02*
X005520Y013591D01*
X005859Y013930D01*
X006193Y013930D01*
X006252Y013989D01*
X006705Y013989D01*
X007040Y014323D01*
X007335Y014323D01*
X007453Y014441D01*
X008201Y013418D02*
X008831Y013418D01*
X009402Y013989D01*
D33*
X002412Y008241D02*
X002315Y008337D01*
X002315Y008615D01*
M02*
