G75*
G70*
%OFA0B0*%
%FSLAX24Y24*%
%IPPOS*%
%LPD*%
%AMOC8*
5,1,8,0,0,1.08239X$1,22.5*
%
%ADD10C,0.0040*%
%ADD11C,0.0080*%
%ADD12C,0.0160*%
%ADD13R,0.0160X0.0280*%
%ADD14R,0.0280X0.0160*%
%ADD15C,0.0050*%
%ADD16C,0.0059*%
%ADD17C,0.0010*%
D10*
X005688Y004377D02*
X005688Y004838D01*
X005918Y004838D01*
X005995Y004761D01*
X005995Y004607D01*
X005918Y004531D01*
X005688Y004531D01*
X006148Y004607D02*
X006148Y004454D01*
X006225Y004377D01*
X006378Y004377D01*
X006455Y004454D01*
X006455Y004607D01*
X006378Y004684D01*
X006225Y004684D01*
X006148Y004607D01*
X006609Y004684D02*
X006609Y004377D01*
X006915Y004377D02*
X006915Y004607D01*
X006839Y004684D01*
X006609Y004684D01*
X007069Y004607D02*
X007069Y004454D01*
X007146Y004377D01*
X007376Y004377D01*
X007376Y004301D02*
X007376Y004684D01*
X007146Y004684D01*
X007069Y004607D01*
X007222Y004224D02*
X007299Y004224D01*
X007376Y004301D01*
X007529Y004454D02*
X007606Y004377D01*
X007759Y004377D01*
X007836Y004454D01*
X007836Y004531D01*
X007759Y004607D01*
X007606Y004607D01*
X007529Y004684D01*
X007529Y004761D01*
X007606Y004838D01*
X007759Y004838D01*
X007836Y004761D01*
X008066Y004684D02*
X008220Y004684D01*
X008297Y004607D01*
X008297Y004377D01*
X008066Y004377D01*
X007990Y004454D01*
X008066Y004531D01*
X008297Y004531D01*
X008450Y004684D02*
X008604Y004684D01*
X008527Y004761D02*
X008527Y004454D01*
X008604Y004377D01*
X009217Y004684D02*
X009371Y004377D01*
X009524Y004684D01*
X009678Y004761D02*
X009755Y004838D01*
X009908Y004838D01*
X009985Y004761D01*
X009985Y004684D01*
X009908Y004607D01*
X009985Y004531D01*
X009985Y004454D01*
X009908Y004377D01*
X009755Y004377D01*
X009678Y004454D01*
X009831Y004607D02*
X009908Y004607D01*
X003085Y013706D02*
X003085Y014013D01*
X002932Y013859D02*
X003239Y013859D01*
X005491Y013859D02*
X005798Y013859D01*
D11*
X005380Y014056D02*
X005380Y013556D01*
X005130Y013306D01*
X004630Y013306D01*
X004380Y013556D01*
X004130Y013306D01*
X003630Y013306D01*
X003380Y013556D01*
X003380Y014056D01*
X003630Y014306D01*
X004130Y014306D01*
X004380Y014056D01*
X004630Y014306D01*
X005130Y014306D01*
X005380Y014056D01*
X005786Y015578D02*
X005786Y016365D01*
X005266Y016538D02*
X005266Y016853D01*
X005030Y016853D01*
X004400Y016853D02*
X004164Y016853D01*
X004164Y016538D01*
X005786Y017153D02*
X005786Y017782D01*
X005943Y017940D01*
X006573Y017940D01*
X006731Y017782D01*
X006731Y017153D01*
X007273Y017180D02*
X007273Y017518D01*
X007727Y017030D02*
X007939Y017030D01*
X008393Y017180D02*
X008393Y017518D01*
X008935Y017782D02*
X008935Y017153D01*
X008935Y017782D02*
X009093Y017940D01*
X009723Y017940D01*
X009880Y017782D01*
X009880Y017153D01*
X009880Y016365D02*
X009880Y015578D01*
X008935Y015578D01*
X008935Y016365D01*
X011006Y016050D02*
X011006Y015676D01*
X011006Y016050D02*
X012928Y016050D01*
X012928Y015696D01*
X012341Y015424D02*
X012341Y015188D01*
X011593Y015188D01*
X011593Y015424D01*
X012341Y015424D01*
X011422Y015842D02*
X011424Y015853D01*
X011429Y015864D01*
X011437Y015872D01*
X011448Y015877D01*
X011459Y015879D01*
X011470Y015877D01*
X011481Y015872D01*
X011489Y015864D01*
X011494Y015853D01*
X011496Y015842D01*
X011494Y015831D01*
X011489Y015820D01*
X011481Y015812D01*
X011470Y015807D01*
X011459Y015805D01*
X011448Y015807D01*
X011437Y015812D01*
X011429Y015820D01*
X011424Y015831D01*
X011422Y015842D01*
X011006Y013511D02*
X011006Y013137D01*
X012928Y013137D01*
X012928Y013511D01*
X013463Y010066D02*
X013739Y010066D01*
X013739Y009830D01*
X013739Y008334D02*
X013739Y008097D01*
X013502Y008097D01*
X012006Y008097D02*
X011770Y008097D01*
X011770Y008334D01*
X011770Y009830D02*
X011770Y010066D01*
X012046Y010066D01*
X009211Y010027D02*
X009211Y009869D01*
X009054Y009869D01*
X009211Y012468D02*
X009211Y012625D01*
X009054Y012625D01*
X006652Y012625D02*
X006455Y012428D01*
X006455Y010027D02*
X006455Y009869D01*
X006613Y009869D01*
X006358Y007656D02*
X005886Y007656D01*
X005138Y007145D02*
X005138Y006908D01*
X005886Y006397D02*
X006358Y006397D01*
X007106Y006908D02*
X007106Y007145D01*
X003093Y007377D02*
X002912Y007377D01*
X003004Y007255D01*
X002912Y007377D02*
X002731Y007377D01*
X002826Y007255D02*
X002902Y007371D01*
X002502Y007377D02*
X002321Y007377D01*
X002413Y007255D01*
X002321Y007377D02*
X002140Y007377D01*
X002235Y007255D02*
X002311Y007371D01*
X002497Y009810D02*
X001867Y009810D01*
X001946Y010282D02*
X002497Y010282D01*
X002497Y009810D01*
X001946Y010282D02*
X001946Y012015D01*
X002497Y012015D01*
X002497Y012487D01*
X001867Y012487D01*
X000804Y012487D02*
X000804Y009810D01*
X005786Y015578D02*
X006731Y015578D01*
X006731Y016365D01*
D12*
X007833Y015983D02*
X007833Y015959D01*
X007833Y015393D02*
X007833Y015369D01*
X007255Y013806D02*
X007231Y013806D01*
X005345Y010931D02*
X005321Y010931D01*
X003502Y012416D02*
X003502Y012440D01*
X004569Y006946D02*
X004593Y006946D01*
X007807Y007027D02*
X007831Y007027D01*
X012951Y011235D02*
X012951Y011259D01*
X013935Y012219D02*
X013935Y012243D01*
D13*
X013935Y013019D03*
X009408Y014790D03*
X003494Y011464D03*
X003395Y010849D03*
X012754Y007507D03*
X012754Y006916D03*
D14*
X005802Y009129D03*
X002912Y008491D03*
X002321Y008491D03*
D15*
X003594Y014383D02*
X003819Y014383D01*
X003894Y014458D01*
X003894Y014533D01*
X003819Y014608D01*
X003594Y014608D01*
X003594Y014383D02*
X003594Y014833D01*
X003819Y014833D01*
X003894Y014758D01*
X003894Y014683D01*
X003819Y014608D01*
X004054Y014608D02*
X004354Y014608D01*
X004354Y014683D02*
X004354Y014383D01*
X004354Y014683D02*
X004204Y014833D01*
X004054Y014683D01*
X004054Y014383D01*
X004515Y014833D02*
X004815Y014833D01*
X004665Y014833D02*
X004665Y014383D01*
X004975Y014833D02*
X005275Y014833D01*
X005125Y014833D02*
X005125Y014383D01*
X005858Y016909D02*
X006658Y016909D01*
X009008Y016909D02*
X009808Y016909D01*
X013502Y008255D02*
X013504Y008273D01*
X013510Y008289D01*
X013519Y008304D01*
X013532Y008317D01*
X013547Y008326D01*
X013563Y008332D01*
X013581Y008334D01*
X013599Y008332D01*
X013615Y008326D01*
X013630Y008317D01*
X013643Y008304D01*
X013652Y008289D01*
X013658Y008273D01*
X013660Y008255D01*
X013658Y008237D01*
X013652Y008221D01*
X013643Y008206D01*
X013630Y008193D01*
X013615Y008184D01*
X013599Y008178D01*
X013581Y008176D01*
X013563Y008178D01*
X013547Y008184D01*
X013532Y008193D01*
X013519Y008206D01*
X013510Y008221D01*
X013504Y008237D01*
X013502Y008255D01*
D16*
X004271Y005194D02*
X004123Y005073D01*
X004021Y005175D01*
X004142Y005323D01*
X004111Y005383D01*
X004091Y005447D01*
X003900Y005466D01*
X003900Y005610D01*
X004091Y005630D01*
X004111Y005694D01*
X004142Y005754D01*
X004021Y005902D01*
X004123Y006004D01*
X004271Y005883D01*
X004331Y005914D01*
X004395Y005934D01*
X004415Y006125D01*
X004559Y006125D01*
X004578Y005934D01*
X004642Y005914D01*
X004702Y005883D01*
X004850Y006004D01*
X004952Y005902D01*
X004831Y005754D01*
X004862Y005694D01*
X004882Y005630D01*
X005073Y005610D01*
X005073Y005466D01*
X004882Y005447D01*
X004862Y005383D01*
X004831Y005323D01*
X004952Y005175D01*
X004850Y005073D01*
X004702Y005194D01*
X004642Y005163D01*
X004557Y005368D01*
X004596Y005390D01*
X004628Y005420D01*
X004652Y005457D01*
X004667Y005498D01*
X004671Y005542D01*
X004665Y005586D01*
X004648Y005627D01*
X004623Y005663D01*
X004589Y005692D01*
X004550Y005712D01*
X004507Y005722D01*
X004463Y005721D01*
X004420Y005710D01*
X004381Y005690D01*
X004348Y005660D01*
X004323Y005624D01*
X004307Y005582D01*
X004302Y005538D01*
X004307Y005495D01*
X004322Y005455D01*
X004346Y005419D01*
X004378Y005389D01*
X004416Y005368D01*
X004331Y005163D01*
X004271Y005194D01*
X004256Y005181D02*
X004027Y005181D01*
X004072Y005124D02*
X004185Y005124D01*
X004296Y005181D02*
X004339Y005181D01*
X004363Y005239D02*
X004074Y005239D01*
X004121Y005297D02*
X004386Y005297D01*
X004410Y005354D02*
X004126Y005354D01*
X004102Y005412D02*
X004354Y005412D01*
X004317Y005469D02*
X003900Y005469D01*
X003900Y005527D02*
X004303Y005527D01*
X004308Y005584D02*
X003900Y005584D01*
X004046Y005872D02*
X004928Y005872D01*
X004924Y005930D02*
X004759Y005930D01*
X004830Y005987D02*
X004867Y005987D01*
X004881Y005815D02*
X004093Y005815D01*
X004139Y005757D02*
X004834Y005757D01*
X004859Y005699D02*
X004574Y005699D01*
X004638Y005642D02*
X004878Y005642D01*
X005073Y005584D02*
X004665Y005584D01*
X004670Y005527D02*
X005073Y005527D01*
X005073Y005469D02*
X004656Y005469D01*
X004619Y005412D02*
X004871Y005412D01*
X004847Y005354D02*
X004563Y005354D01*
X004587Y005297D02*
X004853Y005297D01*
X004900Y005239D02*
X004611Y005239D01*
X004634Y005181D02*
X004677Y005181D01*
X004717Y005181D02*
X004947Y005181D01*
X004901Y005124D02*
X004788Y005124D01*
X004335Y005642D02*
X004095Y005642D01*
X004114Y005699D02*
X004399Y005699D01*
X004382Y005930D02*
X004592Y005930D01*
X004573Y005987D02*
X004401Y005987D01*
X004407Y006045D02*
X004567Y006045D01*
X004561Y006102D02*
X004412Y006102D01*
X004214Y005930D02*
X004049Y005930D01*
X004106Y005987D02*
X004143Y005987D01*
D17*
X010195Y005546D02*
X010195Y004949D01*
X010387Y005165D01*
X010421Y005196D01*
X010461Y005220D01*
X010476Y005225D01*
X010491Y005228D01*
X010581Y005228D01*
X010635Y005233D01*
X010687Y005247D01*
X010735Y005271D01*
X010781Y005303D01*
X010821Y005341D01*
X010856Y005385D01*
X010894Y005451D01*
X010918Y005523D01*
X010930Y005598D01*
X010927Y005674D01*
X010919Y005715D01*
X010905Y005754D01*
X010885Y005791D01*
X010850Y005836D01*
X010805Y005872D01*
X010805Y005837D01*
X010805Y005831D01*
X010802Y005826D01*
X010791Y005811D01*
X010775Y005801D01*
X010767Y005798D01*
X010745Y005795D01*
X010722Y005800D01*
X010702Y005810D01*
X010666Y005836D01*
X010650Y005850D01*
X010635Y005867D01*
X010624Y005886D01*
X010615Y005906D01*
X010613Y005919D01*
X010613Y005932D01*
X010620Y005954D01*
X010632Y005973D01*
X010648Y005988D01*
X010668Y005999D01*
X010688Y006005D01*
X010709Y006007D01*
X010733Y006007D01*
X010732Y006008D01*
X010715Y006021D01*
X010695Y006030D01*
X010681Y006036D01*
X010672Y006040D01*
X010638Y006048D01*
X010602Y006052D01*
X010568Y006049D01*
X010535Y006040D01*
X010504Y006025D01*
X010474Y006003D01*
X010446Y005977D01*
X010429Y005953D01*
X010419Y005926D01*
X010415Y005897D01*
X010419Y005868D01*
X010430Y005841D01*
X010477Y005772D01*
X010534Y005711D01*
X010549Y005693D01*
X010559Y005672D01*
X010564Y005649D01*
X010562Y005626D01*
X010554Y005604D01*
X010541Y005585D01*
X010523Y005570D01*
X010501Y005558D01*
X010477Y005550D01*
X010452Y005546D01*
X010423Y005547D01*
X010395Y005556D01*
X010370Y005571D01*
X010357Y005585D01*
X010348Y005602D01*
X010344Y005619D01*
X010344Y005637D01*
X010348Y005655D01*
X010352Y005662D01*
X010357Y005667D01*
X010390Y005691D01*
X010396Y005694D01*
X010403Y005696D01*
X010410Y005695D01*
X010409Y005695D01*
X010410Y005695D02*
X010391Y005698D01*
X010354Y005701D01*
X010317Y005698D01*
X010290Y005691D01*
X010264Y005678D01*
X010373Y005678D01*
X010384Y005686D02*
X010281Y005686D01*
X010264Y005678D02*
X010242Y005660D01*
X010223Y005639D01*
X010208Y005610D01*
X010198Y005579D01*
X010195Y005546D01*
X010195Y005542D02*
X010921Y005542D01*
X010922Y005550D02*
X010479Y005550D01*
X010503Y005559D02*
X010924Y005559D01*
X010925Y005567D02*
X010519Y005567D01*
X010530Y005576D02*
X010926Y005576D01*
X010928Y005584D02*
X010540Y005584D01*
X010546Y005593D02*
X010929Y005593D01*
X010930Y005601D02*
X010552Y005601D01*
X010556Y005610D02*
X010929Y005610D01*
X010929Y005618D02*
X010559Y005618D01*
X010562Y005627D02*
X010929Y005627D01*
X010928Y005635D02*
X010563Y005635D01*
X010563Y005644D02*
X010928Y005644D01*
X010928Y005652D02*
X010563Y005652D01*
X010561Y005661D02*
X010928Y005661D01*
X010927Y005669D02*
X010560Y005669D01*
X010557Y005678D02*
X010926Y005678D01*
X010925Y005686D02*
X010553Y005686D01*
X010548Y005695D02*
X010923Y005695D01*
X010921Y005703D02*
X010541Y005703D01*
X010533Y005712D02*
X010920Y005712D01*
X010917Y005720D02*
X010525Y005720D01*
X010517Y005729D02*
X010914Y005729D01*
X010911Y005737D02*
X010509Y005737D01*
X010501Y005746D02*
X010908Y005746D01*
X010905Y005754D02*
X010493Y005754D01*
X010485Y005763D02*
X010900Y005763D01*
X010896Y005771D02*
X010477Y005771D01*
X010471Y005780D02*
X010891Y005780D01*
X010887Y005788D02*
X010466Y005788D01*
X010460Y005797D02*
X010736Y005797D01*
X010759Y005797D02*
X010880Y005797D01*
X010874Y005805D02*
X010782Y005805D01*
X010793Y005814D02*
X010867Y005814D01*
X010860Y005822D02*
X010800Y005822D01*
X010804Y005831D02*
X010853Y005831D01*
X010845Y005839D02*
X010805Y005839D01*
X010805Y005848D02*
X010835Y005848D01*
X010824Y005856D02*
X010805Y005856D01*
X010805Y005865D02*
X010814Y005865D01*
X010711Y005805D02*
X010454Y005805D01*
X010448Y005814D02*
X010697Y005814D01*
X010685Y005822D02*
X010443Y005822D01*
X010437Y005831D02*
X010673Y005831D01*
X010662Y005839D02*
X010431Y005839D01*
X010427Y005848D02*
X010652Y005848D01*
X010644Y005856D02*
X010424Y005856D01*
X010420Y005865D02*
X010637Y005865D01*
X010631Y005873D02*
X010419Y005873D01*
X010417Y005882D02*
X010626Y005882D01*
X010622Y005890D02*
X010416Y005890D01*
X010416Y005899D02*
X010618Y005899D01*
X010615Y005907D02*
X010417Y005907D01*
X010418Y005916D02*
X010613Y005916D01*
X010613Y005924D02*
X010419Y005924D01*
X010422Y005933D02*
X010614Y005933D01*
X010616Y005941D02*
X010425Y005941D01*
X010428Y005950D02*
X010619Y005950D01*
X010623Y005958D02*
X010433Y005958D01*
X010439Y005967D02*
X010628Y005967D01*
X010635Y005975D02*
X010445Y005975D01*
X010454Y005984D02*
X010644Y005984D01*
X010656Y005992D02*
X010463Y005992D01*
X010472Y006001D02*
X010676Y006001D01*
X010683Y006035D02*
X010525Y006035D01*
X010508Y006026D02*
X010703Y006026D01*
X010719Y006018D02*
X010495Y006018D01*
X010483Y006009D02*
X010730Y006009D01*
X010733Y006007D02*
X010733Y006007D01*
X010658Y006043D02*
X010547Y006043D01*
X010400Y005695D02*
X010306Y005695D01*
X010352Y005661D02*
X010242Y005661D01*
X010235Y005652D02*
X010348Y005652D01*
X010346Y005644D02*
X010228Y005644D01*
X010221Y005635D02*
X010344Y005635D01*
X010344Y005627D02*
X010217Y005627D01*
X010212Y005618D02*
X010345Y005618D01*
X010347Y005610D02*
X010208Y005610D01*
X010205Y005601D02*
X010349Y005601D01*
X010353Y005593D02*
X010202Y005593D01*
X010200Y005584D02*
X010357Y005584D01*
X010365Y005576D02*
X010198Y005576D01*
X010197Y005567D02*
X010376Y005567D01*
X010390Y005559D02*
X010196Y005559D01*
X010196Y005550D02*
X010413Y005550D01*
X010361Y005669D02*
X010253Y005669D01*
X010195Y005533D02*
X010920Y005533D01*
X010919Y005525D02*
X010195Y005525D01*
X010195Y005516D02*
X010916Y005516D01*
X010913Y005508D02*
X010195Y005508D01*
X010195Y005499D02*
X010910Y005499D01*
X010907Y005491D02*
X010195Y005491D01*
X010195Y005482D02*
X010904Y005482D01*
X010901Y005474D02*
X010195Y005474D01*
X010195Y005465D02*
X010899Y005465D01*
X010896Y005457D02*
X010195Y005457D01*
X010195Y005448D02*
X010892Y005448D01*
X010887Y005440D02*
X010195Y005440D01*
X010195Y005431D02*
X010883Y005431D01*
X010878Y005423D02*
X010195Y005423D01*
X010195Y005414D02*
X010873Y005414D01*
X010868Y005406D02*
X010195Y005406D01*
X010195Y005397D02*
X010863Y005397D01*
X010859Y005389D02*
X010195Y005389D01*
X010195Y005380D02*
X010853Y005380D01*
X010846Y005372D02*
X010195Y005372D01*
X010195Y005363D02*
X010839Y005363D01*
X010832Y005355D02*
X010195Y005355D01*
X010195Y005346D02*
X010826Y005346D01*
X010818Y005338D02*
X010195Y005338D01*
X010195Y005329D02*
X010809Y005329D01*
X010800Y005321D02*
X010195Y005321D01*
X010195Y005312D02*
X010791Y005312D01*
X010782Y005304D02*
X010195Y005304D01*
X010195Y005295D02*
X010770Y005295D01*
X010758Y005287D02*
X010195Y005287D01*
X010195Y005278D02*
X010746Y005278D01*
X010733Y005270D02*
X010195Y005270D01*
X010195Y005261D02*
X010716Y005261D01*
X010699Y005253D02*
X010195Y005253D01*
X010195Y005244D02*
X010677Y005244D01*
X010646Y005236D02*
X010195Y005236D01*
X010195Y005227D02*
X010489Y005227D01*
X010460Y005219D02*
X010195Y005219D01*
X010195Y005210D02*
X010445Y005210D01*
X010431Y005202D02*
X010195Y005202D01*
X010195Y005193D02*
X010418Y005193D01*
X010409Y005185D02*
X010195Y005185D01*
X010195Y005176D02*
X010400Y005176D01*
X010391Y005168D02*
X010195Y005168D01*
X010195Y005159D02*
X010382Y005159D01*
X010375Y005151D02*
X010195Y005151D01*
X010195Y005142D02*
X010367Y005142D01*
X010360Y005134D02*
X010195Y005134D01*
X010195Y005125D02*
X010352Y005125D01*
X010345Y005117D02*
X010195Y005117D01*
X010195Y005108D02*
X010337Y005108D01*
X010330Y005100D02*
X010195Y005100D01*
X010195Y005091D02*
X010322Y005091D01*
X010314Y005083D02*
X010195Y005083D01*
X010195Y005074D02*
X010307Y005074D01*
X010299Y005066D02*
X010195Y005066D01*
X010195Y005057D02*
X010292Y005057D01*
X010284Y005049D02*
X010195Y005049D01*
X010195Y005040D02*
X010277Y005040D01*
X010269Y005032D02*
X010195Y005032D01*
X010195Y005023D02*
X010262Y005023D01*
X010254Y005015D02*
X010195Y005015D01*
X010195Y005006D02*
X010247Y005006D01*
X010239Y004998D02*
X010195Y004998D01*
X010195Y004989D02*
X010231Y004989D01*
X010224Y004981D02*
X010195Y004981D01*
X010195Y004972D02*
X010216Y004972D01*
X010209Y004964D02*
X010195Y004964D01*
X010195Y004955D02*
X010201Y004955D01*
M02*
