G75*
G70*
%OFA0B0*%
%FSLAX24Y24*%
%IPPOS*%
%LPD*%
%AMOC8*
5,1,8,0,0,1.08239X$1,22.5*
%
%ADD10C,0.0030*%
%ADD11R,0.0551X0.0709*%
%ADD12R,0.0748X0.0551*%
%ADD13R,0.0591X0.0315*%
%ADD14R,0.0740X0.0740*%
%ADD15C,0.0740*%
%ADD16C,0.0436*%
%ADD17C,0.0100*%
%ADD18C,0.0120*%
D10*
X004784Y013741D02*
X005031Y013741D01*
X004784Y013988D01*
X004784Y014050D01*
X004846Y014112D01*
X004969Y014112D01*
X005031Y014050D01*
X005276Y014112D02*
X005276Y013741D01*
X005399Y013741D02*
X005152Y013741D01*
X005399Y013988D02*
X005276Y014112D01*
X005521Y013927D02*
X005768Y013927D01*
X005889Y014050D02*
X006136Y013803D01*
X006136Y013741D01*
X006257Y013803D02*
X006319Y013741D01*
X006442Y013741D01*
X006504Y013803D01*
X006257Y014050D01*
X006257Y013803D01*
X006257Y014050D02*
X006319Y014112D01*
X006442Y014112D01*
X006504Y014050D01*
X006504Y013803D01*
X006626Y013927D02*
X006872Y013927D01*
X006994Y013927D02*
X007179Y013927D01*
X007241Y013988D01*
X007241Y014050D01*
X007179Y014112D01*
X007056Y014112D01*
X006994Y014050D01*
X006994Y013803D01*
X007056Y013741D01*
X007179Y013741D01*
X007241Y013803D01*
X007362Y013741D02*
X007609Y013741D01*
X007362Y013988D01*
X007362Y014050D01*
X007424Y014112D01*
X007547Y014112D01*
X007609Y014050D01*
X008099Y014112D02*
X008346Y014112D01*
X008346Y013927D01*
X008222Y013988D01*
X008161Y013988D01*
X008099Y013927D01*
X008099Y013803D01*
X008161Y013741D01*
X008284Y013741D01*
X008346Y013803D01*
X008467Y013988D02*
X008529Y013988D01*
X008653Y013865D01*
X008774Y013865D02*
X008774Y013803D01*
X008836Y013741D01*
X008959Y013741D01*
X009021Y013803D01*
X008898Y013927D02*
X008836Y013927D01*
X008774Y013865D01*
X008836Y013927D02*
X008774Y013988D01*
X008774Y014050D01*
X008836Y014112D01*
X008959Y014112D01*
X009021Y014050D01*
X009142Y013988D02*
X009266Y013741D01*
X009389Y013988D01*
X008653Y013988D02*
X008653Y013741D01*
X006136Y014112D02*
X005889Y014112D01*
X005889Y014050D01*
D11*
X014229Y008304D03*
X014229Y006059D03*
D12*
X009052Y005430D03*
X008658Y010607D03*
D13*
X010174Y008772D03*
X010331Y008339D03*
X010174Y007906D03*
X010095Y007473D03*
X010174Y007040D03*
X010095Y006607D03*
X010174Y006174D03*
X010174Y005741D03*
D14*
X009464Y001319D03*
D15*
X008464Y001319D03*
X007464Y001319D03*
X006464Y001319D03*
X004874Y010386D03*
X003874Y010386D03*
D16*
X005465Y011961D03*
X006449Y011567D03*
X005859Y009205D03*
X007433Y008418D03*
X007827Y007827D03*
X008615Y007827D03*
X008418Y008615D03*
X009599Y009599D03*
X010977Y009599D03*
X011174Y008811D03*
X011174Y007433D03*
X012059Y006941D03*
X010189Y004874D03*
X010583Y004284D03*
X010386Y003300D03*
X009796Y002709D03*
X009599Y003496D03*
X008615Y003693D03*
X011370Y001922D03*
X012355Y002906D03*
X014520Y007237D03*
X010386Y013733D03*
X004678Y007237D03*
X004481Y006056D03*
X003496Y006056D03*
X001528Y005071D03*
X001331Y007630D03*
X001528Y010386D03*
X003496Y013142D03*
X003103Y002512D03*
D17*
X002561Y002613D02*
X007363Y002613D01*
X007286Y002536D02*
X007213Y002463D01*
X007173Y002367D01*
X007173Y001827D01*
X007135Y001811D01*
X006972Y001648D01*
X006964Y001628D01*
X006956Y001648D01*
X006793Y001811D01*
X006579Y001899D01*
X006349Y001899D01*
X006135Y001811D01*
X005972Y001648D01*
X005884Y001435D01*
X005884Y001204D01*
X005972Y000991D01*
X006135Y000828D01*
X006349Y000739D01*
X006579Y000739D01*
X006793Y000828D01*
X006956Y000991D01*
X006964Y001011D01*
X006972Y000991D01*
X007135Y000828D01*
X007349Y000739D01*
X007579Y000739D01*
X007793Y000828D01*
X007956Y000991D01*
X007997Y001091D01*
X008019Y001047D01*
X008067Y000981D01*
X008125Y000923D01*
X008191Y000875D01*
X008264Y000838D01*
X008342Y000812D01*
X008414Y000801D01*
X008414Y001269D01*
X008514Y001269D01*
X008514Y000801D01*
X008586Y000812D01*
X008664Y000838D01*
X008737Y000875D01*
X008803Y000923D01*
X008861Y000981D01*
X008884Y001013D01*
X008884Y000862D01*
X009007Y000739D01*
X009921Y000739D01*
X010044Y000862D01*
X010044Y001436D01*
X011244Y002636D01*
X012019Y002636D01*
X012112Y002543D01*
X012270Y002478D01*
X012440Y002478D01*
X012597Y002543D01*
X012718Y002663D01*
X012783Y002821D01*
X012783Y002991D01*
X012718Y003148D01*
X012597Y003269D01*
X012440Y003334D01*
X012270Y003334D01*
X012112Y003269D01*
X012019Y003176D01*
X011434Y003176D01*
X011434Y007088D01*
X011537Y007191D01*
X011546Y007213D01*
X011658Y007213D01*
X011754Y007252D01*
X011911Y007410D01*
X011985Y007483D01*
X012024Y007579D01*
X012024Y009454D01*
X011985Y009549D01*
X011788Y009746D01*
X011715Y009819D01*
X011619Y009859D01*
X011322Y009859D01*
X011219Y009962D01*
X011062Y010027D01*
X010892Y010027D01*
X010734Y009962D01*
X010631Y009859D01*
X009944Y009859D01*
X009841Y009962D01*
X009684Y010027D01*
X009514Y010027D01*
X009356Y009962D01*
X009236Y009841D01*
X009171Y009684D01*
X009171Y009514D01*
X009236Y009356D01*
X009356Y009236D01*
X009514Y009171D01*
X009684Y009171D01*
X009841Y009236D01*
X009944Y009339D01*
X010631Y009339D01*
X010734Y009236D01*
X010892Y009171D01*
X011062Y009171D01*
X011219Y009236D01*
X011322Y009339D01*
X011460Y009339D01*
X011504Y009294D01*
X011504Y007738D01*
X011499Y007733D01*
X011480Y007733D01*
X011416Y007796D01*
X011259Y007862D01*
X011088Y007862D01*
X010931Y007796D01*
X010868Y007733D01*
X010679Y007733D01*
X010679Y007971D01*
X010713Y007971D01*
X010836Y008095D01*
X010836Y008583D01*
X010713Y008706D01*
X010679Y008706D01*
X010679Y009017D01*
X010556Y009140D01*
X009791Y009140D01*
X009668Y009017D01*
X009668Y008678D01*
X009547Y008678D01*
X009452Y008638D01*
X009378Y008565D01*
X009294Y008481D01*
X008826Y008481D01*
X008846Y008529D01*
X008846Y008700D01*
X008781Y008857D01*
X008678Y008960D01*
X008678Y009294D01*
X009510Y010126D01*
X012247Y010126D01*
X012882Y009491D01*
X012882Y006594D01*
X012922Y006499D01*
X012995Y006426D01*
X013581Y005839D01*
X013677Y005799D01*
X013743Y005799D01*
X013743Y005618D01*
X013866Y005495D01*
X014591Y005495D01*
X014714Y005618D01*
X014714Y006501D01*
X014591Y006624D01*
X013866Y006624D01*
X013743Y006501D01*
X013743Y006413D01*
X013402Y006754D01*
X013402Y009651D01*
X013363Y009746D01*
X012575Y010533D01*
X012502Y010607D01*
X012406Y010646D01*
X009350Y010646D01*
X009255Y010607D01*
X009182Y010534D01*
X009182Y010557D01*
X008708Y010557D01*
X008708Y010657D01*
X008608Y010657D01*
X008608Y011032D01*
X008264Y011032D01*
X008226Y011022D01*
X008192Y011002D01*
X008164Y010974D01*
X008144Y010940D01*
X008134Y010902D01*
X008134Y010657D01*
X008608Y010657D01*
X008608Y010557D01*
X008134Y010557D01*
X008134Y010311D01*
X008144Y010273D01*
X008164Y010239D01*
X008192Y010211D01*
X008226Y010191D01*
X008264Y010181D01*
X008608Y010181D01*
X008608Y010557D01*
X008708Y010557D01*
X008708Y010181D01*
X008829Y010181D01*
X008270Y009622D01*
X008197Y009549D01*
X008158Y009454D01*
X008158Y008960D01*
X008055Y008857D01*
X007990Y008700D01*
X007990Y008529D01*
X008010Y008481D01*
X007862Y008481D01*
X007862Y008503D01*
X007796Y008660D01*
X007676Y008781D01*
X007519Y008846D01*
X007348Y008846D01*
X007191Y008781D01*
X007071Y008660D01*
X007005Y008503D01*
X007005Y008333D01*
X007071Y008175D01*
X007191Y008055D01*
X007348Y007990D01*
X007431Y007990D01*
X007399Y007912D01*
X007399Y007742D01*
X007464Y007585D01*
X007567Y007482D01*
X007567Y006988D01*
X007607Y006892D01*
X007680Y006819D01*
X007775Y006780D01*
X009650Y006780D01*
X009650Y006635D01*
X010066Y006635D01*
X010066Y006578D01*
X009650Y006578D01*
X009650Y006512D01*
X004626Y006512D01*
X004556Y006484D01*
X004396Y006484D01*
X004238Y006418D01*
X004118Y006298D01*
X004053Y006141D01*
X004053Y005970D01*
X004118Y005813D01*
X004238Y005693D01*
X004396Y005627D01*
X004566Y005627D01*
X004723Y005693D01*
X004844Y005813D01*
X004909Y005970D01*
X004909Y005992D01*
X009668Y005992D01*
X009668Y005496D01*
X009791Y005373D01*
X010556Y005373D01*
X010679Y005496D01*
X010679Y006418D01*
X010556Y006541D01*
X010540Y006541D01*
X010540Y006578D01*
X010124Y006578D01*
X010124Y006635D01*
X010540Y006635D01*
X010540Y006672D01*
X010556Y006672D01*
X010679Y006795D01*
X010679Y007173D01*
X010828Y007173D01*
X010914Y007088D01*
X010914Y004559D01*
X010826Y004647D01*
X010668Y004712D01*
X010585Y004712D01*
X010617Y004789D01*
X010617Y004960D01*
X010552Y005117D01*
X010432Y005237D01*
X010275Y005303D01*
X010104Y005303D01*
X009947Y005237D01*
X009826Y005117D01*
X009761Y004960D01*
X009761Y004789D01*
X009812Y004668D01*
X009688Y004544D01*
X008329Y004544D01*
X007581Y005292D01*
X007485Y005331D01*
X004392Y005331D01*
X003874Y005849D01*
X003925Y005970D01*
X003925Y006141D01*
X003859Y006298D01*
X003739Y006418D01*
X003582Y006484D01*
X003411Y006484D01*
X003254Y006418D01*
X003134Y006298D01*
X003068Y006141D01*
X003068Y005970D01*
X003134Y005813D01*
X003254Y005693D01*
X003324Y005664D01*
X004063Y004924D01*
X004137Y004851D01*
X004232Y004811D01*
X007326Y004811D01*
X008000Y004137D01*
X008074Y004063D01*
X008169Y004024D01*
X009847Y004024D01*
X009943Y004063D01*
X010016Y004137D01*
X010155Y004275D01*
X010155Y004199D01*
X010220Y004041D01*
X010323Y003938D01*
X010323Y003728D01*
X010301Y003728D01*
X010144Y003663D01*
X010027Y003546D01*
X010027Y003582D01*
X009962Y003739D01*
X009841Y003859D01*
X009684Y003925D01*
X009514Y003925D01*
X009356Y003859D01*
X009236Y003739D01*
X009171Y003582D01*
X009171Y003436D01*
X008704Y002969D01*
X007775Y002969D01*
X007680Y002929D01*
X007286Y002536D01*
X007264Y002514D02*
X002670Y002514D01*
X002780Y002416D02*
X007194Y002416D01*
X007173Y002317D02*
X002889Y002317D01*
X002998Y002219D02*
X007173Y002219D01*
X007173Y002120D02*
X003108Y002120D01*
X003217Y002022D02*
X007173Y002022D01*
X007173Y001923D02*
X003349Y001923D01*
X003261Y001982D02*
X002492Y002675D01*
X001827Y003467D01*
X001278Y004345D01*
X000857Y005290D01*
X000572Y006285D01*
X000428Y007310D01*
X000428Y008345D01*
X000572Y009369D01*
X000857Y010364D01*
X001278Y011309D01*
X001827Y012187D01*
X002492Y012980D01*
X003261Y013672D01*
X004119Y014251D01*
X005049Y014704D01*
X006033Y015024D01*
X007052Y015204D01*
X008086Y015240D01*
X009115Y015132D01*
X010119Y014881D01*
X011079Y014494D01*
X011975Y013976D01*
X012790Y013339D01*
X013509Y012595D01*
X014117Y011758D01*
X014603Y010844D01*
X014957Y009872D01*
X015172Y008859D01*
X015244Y007827D01*
X015172Y006795D01*
X014957Y005783D01*
X014603Y004810D01*
X014117Y003897D01*
X013509Y003060D01*
X012790Y002315D01*
X011975Y001678D01*
X011079Y001161D01*
X010119Y000773D01*
X009115Y000523D01*
X008086Y000415D01*
X007052Y000451D01*
X006033Y000630D01*
X005049Y000950D01*
X004119Y001404D01*
X003261Y001982D01*
X003495Y001825D02*
X006168Y001825D01*
X006050Y001726D02*
X003641Y001726D01*
X003787Y001628D02*
X005964Y001628D01*
X005923Y001529D02*
X003933Y001529D01*
X004079Y001431D02*
X005884Y001431D01*
X005884Y001332D02*
X004266Y001332D01*
X004468Y001234D02*
X005884Y001234D01*
X005913Y001135D02*
X004670Y001135D01*
X004871Y001037D02*
X005953Y001037D01*
X006025Y000938D02*
X005086Y000938D01*
X005389Y000840D02*
X006124Y000840D01*
X005995Y000643D02*
X009596Y000643D01*
X009923Y000741D02*
X009991Y000741D01*
X010021Y000840D02*
X010284Y000840D01*
X010044Y000938D02*
X010528Y000938D01*
X010771Y001037D02*
X010044Y001037D01*
X010044Y001135D02*
X011015Y001135D01*
X011205Y001234D02*
X010044Y001234D01*
X010044Y001332D02*
X011375Y001332D01*
X011546Y001431D02*
X010044Y001431D01*
X010137Y001529D02*
X011717Y001529D01*
X011887Y001628D02*
X010235Y001628D01*
X010334Y001726D02*
X012036Y001726D01*
X012162Y001825D02*
X010432Y001825D01*
X010531Y001923D02*
X012288Y001923D01*
X012414Y002022D02*
X010629Y002022D01*
X010728Y002120D02*
X012540Y002120D01*
X012667Y002219D02*
X010826Y002219D01*
X010925Y002317D02*
X012792Y002317D01*
X012887Y002416D02*
X011023Y002416D01*
X011122Y002514D02*
X012182Y002514D01*
X012043Y002613D02*
X011220Y002613D01*
X011174Y002906D02*
X011146Y002906D01*
X009559Y001319D01*
X009464Y001319D01*
X008932Y001825D02*
X008592Y001825D01*
X008586Y001827D02*
X008514Y001838D01*
X008514Y001369D01*
X008414Y001369D01*
X008414Y001838D01*
X008342Y001827D01*
X008264Y001801D01*
X008191Y001764D01*
X008125Y001716D01*
X008067Y001658D01*
X008019Y001592D01*
X007997Y001548D01*
X007956Y001648D01*
X007793Y001811D01*
X007693Y001852D01*
X007693Y002208D01*
X007935Y002449D01*
X008863Y002449D01*
X008959Y002489D01*
X009032Y002562D01*
X009538Y003068D01*
X009684Y003068D01*
X009841Y003134D01*
X009958Y003250D01*
X009958Y003214D01*
X010023Y003057D01*
X010144Y002937D01*
X010301Y002871D01*
X010471Y002871D01*
X010629Y002937D01*
X010749Y003057D01*
X010814Y003214D01*
X010814Y003375D01*
X010843Y003445D01*
X010843Y003938D01*
X010914Y004009D01*
X010914Y003041D01*
X009772Y001899D01*
X009007Y001899D01*
X008884Y001776D01*
X008884Y001626D01*
X008861Y001658D01*
X008803Y001716D01*
X008737Y001764D01*
X008664Y001801D01*
X008586Y001827D01*
X008514Y001825D02*
X008414Y001825D01*
X008336Y001825D02*
X007760Y001825D01*
X007693Y001923D02*
X009795Y001923D01*
X009894Y002022D02*
X007693Y002022D01*
X007693Y002120D02*
X009992Y002120D01*
X010091Y002219D02*
X007704Y002219D01*
X007803Y002317D02*
X010189Y002317D01*
X010288Y002416D02*
X007901Y002416D01*
X007827Y002709D02*
X007433Y002315D01*
X007433Y001350D01*
X007464Y001319D01*
X007050Y001726D02*
X006878Y001726D01*
X006760Y001825D02*
X007168Y001825D01*
X007878Y001726D02*
X008139Y001726D01*
X008045Y001628D02*
X007964Y001628D01*
X008414Y001628D02*
X008514Y001628D01*
X008514Y001726D02*
X008414Y001726D01*
X008414Y001529D02*
X008514Y001529D01*
X008514Y001431D02*
X008414Y001431D01*
X008414Y001234D02*
X008514Y001234D01*
X008514Y001135D02*
X008414Y001135D01*
X008414Y001037D02*
X008514Y001037D01*
X008514Y000938D02*
X008414Y000938D01*
X008414Y000840D02*
X008514Y000840D01*
X008667Y000840D02*
X008907Y000840D01*
X008884Y000938D02*
X008818Y000938D01*
X009005Y000741D02*
X007583Y000741D01*
X007804Y000840D02*
X008261Y000840D01*
X008110Y000938D02*
X007903Y000938D01*
X007975Y001037D02*
X008027Y001037D01*
X008381Y000446D02*
X007199Y000446D01*
X007345Y000741D02*
X006583Y000741D01*
X006522Y000544D02*
X009201Y000544D01*
X008883Y001628D02*
X008884Y001628D01*
X008884Y001726D02*
X008789Y001726D01*
X008984Y002514D02*
X010386Y002514D01*
X010485Y002613D02*
X009083Y002613D01*
X009181Y002711D02*
X010583Y002711D01*
X010682Y002810D02*
X009280Y002810D01*
X009378Y002908D02*
X010213Y002908D01*
X010074Y003007D02*
X009477Y003007D01*
X009772Y003105D02*
X010003Y003105D01*
X009963Y003204D02*
X009911Y003204D01*
X010020Y003598D02*
X010079Y003598D01*
X009980Y003696D02*
X010225Y003696D01*
X010323Y003795D02*
X009906Y003795D01*
X009760Y003893D02*
X010323Y003893D01*
X010270Y003992D02*
X001499Y003992D01*
X001438Y004090D02*
X008047Y004090D01*
X007949Y004189D02*
X001376Y004189D01*
X001314Y004287D02*
X007850Y004287D01*
X007752Y004386D02*
X001260Y004386D01*
X001216Y004484D02*
X007653Y004484D01*
X007555Y004583D02*
X001172Y004583D01*
X001129Y004681D02*
X007456Y004681D01*
X007358Y004780D02*
X001085Y004780D01*
X001041Y004878D02*
X004109Y004878D01*
X004011Y004977D02*
X000997Y004977D01*
X000953Y005075D02*
X003912Y005075D01*
X003814Y005174D02*
X000909Y005174D01*
X000865Y005272D02*
X003715Y005272D01*
X003617Y005371D02*
X000834Y005371D01*
X000806Y005469D02*
X003518Y005469D01*
X003420Y005568D02*
X000778Y005568D01*
X000750Y005666D02*
X003318Y005666D01*
X003182Y005765D02*
X000721Y005765D01*
X000693Y005863D02*
X003113Y005863D01*
X003072Y005962D02*
X000665Y005962D01*
X000637Y006060D02*
X003068Y006060D01*
X003076Y006159D02*
X000608Y006159D01*
X000580Y006257D02*
X003117Y006257D01*
X003191Y006356D02*
X000562Y006356D01*
X000548Y006454D02*
X003340Y006454D01*
X003653Y006454D02*
X004324Y006454D01*
X004175Y006356D02*
X003802Y006356D01*
X003876Y006257D02*
X004101Y006257D01*
X004060Y006159D02*
X003917Y006159D01*
X003925Y006060D02*
X004053Y006060D01*
X004056Y005962D02*
X003921Y005962D01*
X003880Y005863D02*
X004097Y005863D01*
X004166Y005765D02*
X003958Y005765D01*
X004057Y005666D02*
X004302Y005666D01*
X004155Y005568D02*
X008528Y005568D01*
X008528Y005480D02*
X009002Y005480D01*
X009002Y005855D01*
X008658Y005855D01*
X008620Y005845D01*
X008585Y005825D01*
X008558Y005797D01*
X008538Y005763D01*
X008528Y005725D01*
X008528Y005480D01*
X008528Y005380D02*
X008528Y005134D01*
X008538Y005096D01*
X008558Y005062D01*
X008585Y005034D01*
X008620Y005014D01*
X008658Y005004D01*
X009002Y005004D01*
X009002Y005380D01*
X008528Y005380D01*
X008528Y005371D02*
X004352Y005371D01*
X004254Y005469D02*
X009002Y005469D01*
X009002Y005480D02*
X009002Y005380D01*
X009102Y005380D01*
X009102Y005480D01*
X009002Y005480D01*
X009002Y005568D02*
X009102Y005568D01*
X009102Y005480D02*
X009102Y005855D01*
X009445Y005855D01*
X009483Y005845D01*
X009518Y005825D01*
X009546Y005797D01*
X009565Y005763D01*
X009576Y005725D01*
X009576Y005480D01*
X009102Y005480D01*
X009102Y005469D02*
X009695Y005469D01*
X009668Y005568D02*
X009576Y005568D01*
X009576Y005666D02*
X009668Y005666D01*
X009668Y005765D02*
X009565Y005765D01*
X009668Y005863D02*
X004864Y005863D01*
X004905Y005962D02*
X009668Y005962D01*
X010095Y006252D02*
X010174Y006174D01*
X010095Y006252D02*
X004678Y006252D01*
X004481Y006056D01*
X004795Y005765D02*
X008539Y005765D01*
X008528Y005666D02*
X004659Y005666D01*
X004284Y005071D02*
X007433Y005071D01*
X008221Y004284D01*
X009796Y004284D01*
X010189Y004678D01*
X010189Y004874D01*
X009883Y005174D02*
X009576Y005174D01*
X009576Y005134D02*
X009576Y005380D01*
X009102Y005380D01*
X009102Y005004D01*
X009445Y005004D01*
X009483Y005014D01*
X009518Y005034D01*
X009546Y005062D01*
X009565Y005096D01*
X009576Y005134D01*
X009553Y005075D02*
X009809Y005075D01*
X009768Y004977D02*
X007896Y004977D01*
X007797Y005075D02*
X008550Y005075D01*
X008528Y005174D02*
X007699Y005174D01*
X007600Y005272D02*
X008528Y005272D01*
X009002Y005272D02*
X009102Y005272D01*
X009102Y005174D02*
X009002Y005174D01*
X009002Y005075D02*
X009102Y005075D01*
X009102Y005371D02*
X009002Y005371D01*
X009002Y005666D02*
X009102Y005666D01*
X009102Y005765D02*
X009002Y005765D01*
X009576Y005371D02*
X010914Y005371D01*
X010914Y005469D02*
X010652Y005469D01*
X010679Y005568D02*
X010914Y005568D01*
X010914Y005666D02*
X010679Y005666D01*
X010679Y005765D02*
X010914Y005765D01*
X010914Y005863D02*
X010679Y005863D01*
X010679Y005962D02*
X010914Y005962D01*
X010914Y006060D02*
X010679Y006060D01*
X010679Y006159D02*
X010914Y006159D01*
X010914Y006257D02*
X010679Y006257D01*
X010679Y006356D02*
X010914Y006356D01*
X010914Y006454D02*
X010643Y006454D01*
X010540Y006553D02*
X010914Y006553D01*
X010914Y006651D02*
X010540Y006651D01*
X010633Y006750D02*
X010914Y006750D01*
X010914Y006848D02*
X010679Y006848D01*
X010679Y006947D02*
X010914Y006947D01*
X010914Y007045D02*
X010679Y007045D01*
X010679Y007144D02*
X010858Y007144D01*
X011174Y007433D02*
X011174Y002906D01*
X010879Y003007D02*
X010699Y003007D01*
X010769Y003105D02*
X010914Y003105D01*
X010914Y003204D02*
X010810Y003204D01*
X010814Y003302D02*
X010914Y003302D01*
X010914Y003401D02*
X010825Y003401D01*
X010843Y003499D02*
X010914Y003499D01*
X010914Y003598D02*
X010843Y003598D01*
X010843Y003696D02*
X010914Y003696D01*
X010914Y003795D02*
X010843Y003795D01*
X010843Y003893D02*
X010914Y003893D01*
X010914Y003992D02*
X010896Y003992D01*
X010583Y004284D02*
X010583Y003496D01*
X010386Y003300D01*
X010560Y002908D02*
X010780Y002908D01*
X011434Y003204D02*
X012047Y003204D01*
X012192Y003302D02*
X011434Y003302D01*
X011434Y003401D02*
X013757Y003401D01*
X013828Y003499D02*
X011434Y003499D01*
X011434Y003598D02*
X013900Y003598D01*
X013971Y003696D02*
X011434Y003696D01*
X011434Y003795D02*
X014043Y003795D01*
X014115Y003893D02*
X011434Y003893D01*
X011434Y003992D02*
X014168Y003992D01*
X014220Y004090D02*
X011434Y004090D01*
X011434Y004189D02*
X014272Y004189D01*
X014325Y004287D02*
X011434Y004287D01*
X011434Y004386D02*
X014377Y004386D01*
X014430Y004484D02*
X011434Y004484D01*
X011434Y004583D02*
X014482Y004583D01*
X014534Y004681D02*
X011434Y004681D01*
X011434Y004780D02*
X014587Y004780D01*
X014628Y004878D02*
X011434Y004878D01*
X011434Y004977D02*
X014664Y004977D01*
X014699Y005075D02*
X011434Y005075D01*
X011434Y005174D02*
X014735Y005174D01*
X014771Y005272D02*
X011434Y005272D01*
X011434Y005371D02*
X014807Y005371D01*
X014843Y005469D02*
X011434Y005469D01*
X011434Y005568D02*
X013794Y005568D01*
X013743Y005666D02*
X011434Y005666D01*
X011434Y005765D02*
X013743Y005765D01*
X013557Y005863D02*
X011434Y005863D01*
X011434Y005962D02*
X013459Y005962D01*
X013360Y006060D02*
X011434Y006060D01*
X011434Y006159D02*
X013262Y006159D01*
X013163Y006257D02*
X011434Y006257D01*
X011434Y006356D02*
X013065Y006356D01*
X012966Y006454D02*
X011434Y006454D01*
X011434Y006553D02*
X012899Y006553D01*
X012882Y006651D02*
X011434Y006651D01*
X011434Y006750D02*
X012882Y006750D01*
X012882Y006848D02*
X011434Y006848D01*
X011434Y006947D02*
X012882Y006947D01*
X012882Y007045D02*
X011434Y007045D01*
X011489Y007144D02*
X012882Y007144D01*
X012882Y007242D02*
X011729Y007242D01*
X011842Y007341D02*
X012882Y007341D01*
X012882Y007439D02*
X011941Y007439D01*
X012007Y007538D02*
X012882Y007538D01*
X012882Y007636D02*
X012024Y007636D01*
X012024Y007735D02*
X012882Y007735D01*
X012882Y007833D02*
X012024Y007833D01*
X012024Y007932D02*
X012882Y007932D01*
X012882Y008030D02*
X012024Y008030D01*
X012024Y008129D02*
X012882Y008129D01*
X012882Y008227D02*
X012024Y008227D01*
X012024Y008326D02*
X012882Y008326D01*
X012882Y008424D02*
X012024Y008424D01*
X012024Y008523D02*
X012882Y008523D01*
X012882Y008621D02*
X012024Y008621D01*
X012024Y008720D02*
X012882Y008720D01*
X012882Y008818D02*
X012024Y008818D01*
X012024Y008917D02*
X012882Y008917D01*
X012882Y009015D02*
X012024Y009015D01*
X012024Y009114D02*
X012882Y009114D01*
X012882Y009212D02*
X012024Y009212D01*
X012024Y009311D02*
X012882Y009311D01*
X012882Y009409D02*
X012024Y009409D01*
X012002Y009508D02*
X012866Y009508D01*
X012767Y009606D02*
X011928Y009606D01*
X011829Y009705D02*
X012669Y009705D01*
X012570Y009803D02*
X011731Y009803D01*
X011567Y009599D02*
X010977Y009599D01*
X009599Y009599D01*
X009902Y009902D02*
X010674Y009902D01*
X010827Y010000D02*
X009749Y010000D01*
X009482Y010099D02*
X012275Y010099D01*
X012373Y010000D02*
X011127Y010000D01*
X011280Y009902D02*
X012472Y009902D01*
X012813Y010296D02*
X014803Y010296D01*
X014767Y010394D02*
X012715Y010394D01*
X012616Y010493D02*
X014731Y010493D01*
X014695Y010591D02*
X012518Y010591D01*
X012355Y010386D02*
X009402Y010386D01*
X008418Y009402D01*
X008418Y008615D01*
X008721Y008917D02*
X009668Y008917D01*
X009668Y009015D02*
X008678Y009015D01*
X008678Y009114D02*
X009765Y009114D01*
X009784Y009212D02*
X010792Y009212D01*
X010660Y009311D02*
X009916Y009311D01*
X009414Y009212D02*
X008678Y009212D01*
X008694Y009311D02*
X009282Y009311D01*
X009214Y009409D02*
X008792Y009409D01*
X008891Y009508D02*
X009173Y009508D01*
X009171Y009606D02*
X008989Y009606D01*
X009088Y009705D02*
X009179Y009705D01*
X009186Y009803D02*
X009220Y009803D01*
X009285Y009902D02*
X009296Y009902D01*
X009383Y010000D02*
X009449Y010000D01*
X009239Y010591D02*
X008708Y010591D01*
X008708Y010657D02*
X009182Y010657D01*
X009182Y010902D01*
X009172Y010940D01*
X009152Y010974D01*
X009124Y011002D01*
X009090Y011022D01*
X009052Y011032D01*
X008708Y011032D01*
X008708Y010657D01*
X008708Y010690D02*
X008608Y010690D01*
X008608Y010788D02*
X008708Y010788D01*
X008708Y010887D02*
X008608Y010887D01*
X008608Y010985D02*
X008708Y010985D01*
X008608Y010591D02*
X006709Y010591D01*
X006709Y010493D02*
X008134Y010493D01*
X008134Y010394D02*
X006709Y010394D01*
X006709Y010296D02*
X008138Y010296D01*
X008216Y010197D02*
X006709Y010197D01*
X006709Y010099D02*
X008747Y010099D01*
X008708Y010197D02*
X008608Y010197D01*
X008608Y010296D02*
X008708Y010296D01*
X008708Y010394D02*
X008608Y010394D01*
X008608Y010493D02*
X008708Y010493D01*
X009182Y010690D02*
X014659Y010690D01*
X014623Y010788D02*
X009182Y010788D01*
X009182Y010887D02*
X014580Y010887D01*
X014528Y010985D02*
X009141Y010985D01*
X008174Y010985D02*
X006709Y010985D01*
X006709Y010887D02*
X008134Y010887D01*
X008134Y010788D02*
X006709Y010788D01*
X006709Y010690D02*
X008134Y010690D01*
X008648Y010000D02*
X006709Y010000D01*
X006709Y009902D02*
X008550Y009902D01*
X008451Y009803D02*
X006709Y009803D01*
X006709Y009744D02*
X006709Y011222D01*
X006812Y011325D01*
X006877Y011482D01*
X006877Y011652D01*
X006812Y011810D01*
X006692Y011930D01*
X006534Y011995D01*
X006364Y011995D01*
X006207Y011930D01*
X006086Y011810D01*
X006021Y011652D01*
X006021Y011482D01*
X006086Y011325D01*
X006189Y011222D01*
X006189Y009903D01*
X005919Y009633D01*
X005774Y009633D01*
X005616Y009568D01*
X005496Y009448D01*
X005431Y009290D01*
X005431Y009120D01*
X005496Y008963D01*
X005616Y008842D01*
X005774Y008777D01*
X005944Y008777D01*
X006101Y008842D01*
X006222Y008963D01*
X006287Y009120D01*
X006287Y009266D01*
X006670Y009648D01*
X006709Y009744D01*
X006693Y009705D02*
X008353Y009705D01*
X008254Y009606D02*
X006627Y009606D01*
X006529Y009508D02*
X008180Y009508D01*
X008158Y009409D02*
X006430Y009409D01*
X006332Y009311D02*
X008158Y009311D01*
X008158Y009212D02*
X006287Y009212D01*
X006284Y009114D02*
X008158Y009114D01*
X008158Y009015D02*
X006243Y009015D01*
X006176Y008917D02*
X008114Y008917D01*
X008039Y008818D02*
X007586Y008818D01*
X007737Y008720D02*
X007998Y008720D01*
X007990Y008621D02*
X007813Y008621D01*
X007853Y008523D02*
X007992Y008523D01*
X007630Y008221D02*
X009402Y008221D01*
X009599Y008418D01*
X010252Y008418D01*
X010331Y008339D01*
X010174Y007906D02*
X010095Y007827D01*
X008615Y007827D01*
X008843Y008523D02*
X009336Y008523D01*
X009434Y008621D02*
X008846Y008621D01*
X008838Y008720D02*
X009668Y008720D01*
X009668Y008818D02*
X008797Y008818D01*
X007827Y007827D02*
X007827Y007040D01*
X010174Y007040D01*
X010134Y007433D02*
X010095Y007473D01*
X011607Y007473D01*
X011764Y007630D01*
X011764Y009402D01*
X011567Y009599D01*
X011488Y009311D02*
X011294Y009311D01*
X011162Y009212D02*
X011504Y009212D01*
X011504Y009114D02*
X010582Y009114D01*
X010679Y009015D02*
X011504Y009015D01*
X011504Y008917D02*
X010679Y008917D01*
X010679Y008818D02*
X011504Y008818D01*
X011504Y008720D02*
X010679Y008720D01*
X010799Y008621D02*
X011504Y008621D01*
X011504Y008523D02*
X010836Y008523D01*
X010836Y008424D02*
X011504Y008424D01*
X011504Y008326D02*
X010836Y008326D01*
X010836Y008227D02*
X011504Y008227D01*
X011504Y008129D02*
X010836Y008129D01*
X010772Y008030D02*
X011504Y008030D01*
X011504Y007932D02*
X010679Y007932D01*
X010679Y007833D02*
X011020Y007833D01*
X010869Y007735D02*
X010679Y007735D01*
X011174Y007433D02*
X010134Y007433D01*
X009650Y006750D02*
X000507Y006750D01*
X000493Y006848D02*
X007651Y006848D01*
X007584Y006947D02*
X000479Y006947D01*
X000465Y007045D02*
X007567Y007045D01*
X007567Y007144D02*
X000451Y007144D01*
X000438Y007242D02*
X007567Y007242D01*
X007567Y007341D02*
X000428Y007341D01*
X000428Y007439D02*
X007567Y007439D01*
X007511Y007538D02*
X000428Y007538D01*
X000428Y007636D02*
X007443Y007636D01*
X007402Y007735D02*
X000428Y007735D01*
X000428Y007833D02*
X007399Y007833D01*
X007407Y007932D02*
X000428Y007932D01*
X000428Y008030D02*
X007251Y008030D01*
X007117Y008129D02*
X000428Y008129D01*
X000428Y008227D02*
X007049Y008227D01*
X007008Y008326D02*
X000428Y008326D01*
X000439Y008424D02*
X007005Y008424D01*
X007013Y008523D02*
X000453Y008523D01*
X000467Y008621D02*
X007054Y008621D01*
X007130Y008720D02*
X000481Y008720D01*
X000495Y008818D02*
X005674Y008818D01*
X005542Y008917D02*
X000508Y008917D01*
X000522Y009015D02*
X005474Y009015D01*
X005433Y009114D02*
X000536Y009114D01*
X000550Y009212D02*
X005431Y009212D01*
X005439Y009311D02*
X000564Y009311D01*
X000583Y009409D02*
X005480Y009409D01*
X005556Y009508D02*
X000612Y009508D01*
X000640Y009606D02*
X005708Y009606D01*
X005990Y009705D02*
X000668Y009705D01*
X000696Y009803D02*
X006089Y009803D01*
X006187Y009902D02*
X005065Y009902D01*
X005074Y009904D02*
X005147Y009941D01*
X005213Y009990D01*
X005271Y010047D01*
X005319Y010114D01*
X005356Y010187D01*
X005382Y010264D01*
X005393Y010336D01*
X004924Y010336D01*
X004924Y009868D01*
X004996Y009879D01*
X005074Y009904D01*
X004924Y009902D02*
X004824Y009902D01*
X004824Y009868D02*
X004824Y010336D01*
X004924Y010336D01*
X004924Y010436D01*
X004824Y010436D01*
X004824Y010905D01*
X004753Y010893D01*
X004675Y010868D01*
X004602Y010831D01*
X004536Y010783D01*
X004478Y010725D01*
X004430Y010659D01*
X004407Y010615D01*
X004366Y010715D01*
X004203Y010878D01*
X003990Y010966D01*
X003759Y010966D01*
X003546Y010878D01*
X003383Y010715D01*
X003294Y010502D01*
X003294Y010271D01*
X003383Y010058D01*
X003546Y009895D01*
X003759Y009806D01*
X003990Y009806D01*
X004203Y009895D01*
X004366Y010058D01*
X004407Y010157D01*
X004430Y010114D01*
X004478Y010047D01*
X004536Y009990D01*
X004602Y009941D01*
X004675Y009904D01*
X004753Y009879D01*
X004824Y009868D01*
X004824Y010000D02*
X004924Y010000D01*
X004924Y010099D02*
X004824Y010099D01*
X004824Y010197D02*
X004924Y010197D01*
X004924Y010296D02*
X004824Y010296D01*
X004924Y010394D02*
X006189Y010394D01*
X006189Y010296D02*
X005387Y010296D01*
X005360Y010197D02*
X006189Y010197D01*
X006189Y010099D02*
X005308Y010099D01*
X005224Y010000D02*
X006189Y010000D01*
X006449Y009796D02*
X005859Y009205D01*
X006043Y008818D02*
X007281Y008818D01*
X007433Y008418D02*
X007630Y008221D01*
X006449Y009796D02*
X006449Y011567D01*
X006148Y011872D02*
X001630Y011872D01*
X001691Y011970D02*
X006303Y011970D01*
X006596Y011970D02*
X013963Y011970D01*
X014035Y011872D02*
X006750Y011872D01*
X006827Y011773D02*
X014106Y011773D01*
X014161Y011675D02*
X006868Y011675D01*
X006877Y011576D02*
X014214Y011576D01*
X014266Y011478D02*
X006875Y011478D01*
X006835Y011379D02*
X014319Y011379D01*
X014371Y011281D02*
X006768Y011281D01*
X006709Y011182D02*
X014423Y011182D01*
X014476Y011084D02*
X006709Y011084D01*
X006189Y011084D02*
X001178Y011084D01*
X001222Y011182D02*
X006189Y011182D01*
X006131Y011281D02*
X001265Y011281D01*
X001322Y011379D02*
X006064Y011379D01*
X006023Y011478D02*
X001383Y011478D01*
X001445Y011576D02*
X006021Y011576D01*
X006030Y011675D02*
X001506Y011675D01*
X001568Y011773D02*
X006071Y011773D01*
X006189Y010985D02*
X001134Y010985D01*
X001090Y010887D02*
X003567Y010887D01*
X003456Y010788D02*
X001046Y010788D01*
X001002Y010690D02*
X003372Y010690D01*
X003331Y010591D02*
X000958Y010591D01*
X000915Y010493D02*
X003294Y010493D01*
X003294Y010394D02*
X000871Y010394D01*
X000838Y010296D02*
X003294Y010296D01*
X003325Y010197D02*
X000809Y010197D01*
X000781Y010099D02*
X003366Y010099D01*
X003440Y010000D02*
X000753Y010000D01*
X000725Y009902D02*
X003539Y009902D01*
X004210Y009902D02*
X004683Y009902D01*
X004525Y010000D02*
X004308Y010000D01*
X004383Y010099D02*
X004441Y010099D01*
X004824Y010493D02*
X004924Y010493D01*
X004924Y010436D02*
X004924Y010905D01*
X004996Y010893D01*
X005074Y010868D01*
X005147Y010831D01*
X005213Y010783D01*
X005271Y010725D01*
X005319Y010659D01*
X005356Y010586D01*
X005382Y010508D01*
X005393Y010436D01*
X004924Y010436D01*
X004924Y010591D02*
X004824Y010591D01*
X004824Y010690D02*
X004924Y010690D01*
X004924Y010788D02*
X004824Y010788D01*
X004824Y010887D02*
X004924Y010887D01*
X005017Y010887D02*
X006189Y010887D01*
X006189Y010788D02*
X005206Y010788D01*
X005297Y010690D02*
X006189Y010690D01*
X006189Y010591D02*
X005354Y010591D01*
X005384Y010493D02*
X006189Y010493D01*
X004731Y010887D02*
X004182Y010887D01*
X004293Y010788D02*
X004543Y010788D01*
X004452Y010690D02*
X004377Y010690D01*
X002223Y012660D02*
X013447Y012660D01*
X013534Y012561D02*
X002141Y012561D01*
X002058Y012463D02*
X013605Y012463D01*
X013677Y012364D02*
X001975Y012364D01*
X001893Y012266D02*
X013748Y012266D01*
X013820Y012167D02*
X001814Y012167D01*
X001753Y012069D02*
X013891Y012069D01*
X013351Y012758D02*
X002306Y012758D01*
X002388Y012857D02*
X013256Y012857D01*
X013161Y012955D02*
X002471Y012955D01*
X002574Y013054D02*
X013066Y013054D01*
X012971Y013152D02*
X002683Y013152D01*
X002793Y013251D02*
X012876Y013251D01*
X012790Y013339D02*
X012790Y013339D01*
X012778Y013349D02*
X002902Y013349D01*
X003011Y013448D02*
X012652Y013448D01*
X012525Y013546D02*
X009391Y013546D01*
X009425Y013557D02*
X009352Y013533D01*
X009283Y013498D01*
X009266Y013504D01*
X009249Y013498D01*
X009180Y013533D01*
X009106Y013557D01*
X009102Y013566D01*
X009052Y013516D01*
X008835Y013516D01*
X008743Y013516D01*
X008743Y013516D01*
X008559Y013516D01*
X008468Y013608D01*
X008377Y013516D01*
X008160Y013516D01*
X008067Y013516D01*
X008067Y013516D01*
X008006Y013578D01*
X008006Y013578D01*
X007939Y013644D01*
X007874Y013710D01*
X007874Y013710D01*
X007874Y013710D01*
X007874Y013802D01*
X007874Y013896D01*
X007874Y013896D01*
X007874Y014205D01*
X008006Y014337D01*
X008439Y014337D01*
X008562Y014213D01*
X008619Y014213D01*
X008681Y014275D01*
X008743Y014337D01*
X008866Y014337D01*
X008866Y014337D01*
X008958Y014337D01*
X009052Y014337D01*
X009052Y014337D01*
X009052Y014337D01*
X009116Y014273D01*
X009174Y014215D01*
X009266Y014184D01*
X009407Y014231D01*
X009573Y014148D01*
X009632Y013971D01*
X009474Y013655D01*
X009450Y013582D01*
X009434Y013574D01*
X009425Y013557D01*
X009471Y013645D02*
X012399Y013645D01*
X012273Y013743D02*
X009518Y013743D01*
X009567Y013842D02*
X012147Y013842D01*
X012021Y013940D02*
X009617Y013940D01*
X009610Y014039D02*
X011867Y014039D01*
X011975Y013976D02*
X011975Y013976D01*
X011696Y014137D02*
X009577Y014137D01*
X009154Y014236D02*
X011526Y014236D01*
X011355Y014334D02*
X009055Y014334D01*
X008740Y014334D02*
X008442Y014334D01*
X008540Y014236D02*
X008641Y014236D01*
X008003Y014334D02*
X007643Y014334D01*
X007641Y014337D02*
X007641Y014337D01*
X007706Y014271D01*
X007772Y014205D01*
X007772Y014205D01*
X007834Y014143D01*
X007834Y013957D01*
X007773Y013896D01*
X007834Y013835D01*
X007834Y013648D01*
X007702Y013516D01*
X007269Y013516D01*
X007057Y013516D01*
X006962Y013516D01*
X006962Y013516D01*
X006962Y013516D01*
X006901Y013578D01*
X006901Y013578D01*
X006832Y013646D01*
X006777Y013702D01*
X006721Y013702D01*
X006597Y013578D01*
X006536Y013516D01*
X006318Y013516D01*
X006226Y013516D01*
X006226Y013516D01*
X006043Y013516D01*
X005911Y013648D01*
X005911Y013710D01*
X005890Y013731D01*
X005861Y013702D01*
X005624Y013702D01*
X005624Y013648D01*
X005492Y013516D01*
X004691Y013516D01*
X004559Y013648D01*
X004559Y013835D01*
X004589Y013865D01*
X004559Y013895D01*
X004559Y014143D01*
X004621Y014205D01*
X004753Y014337D01*
X004876Y014337D01*
X004876Y014337D01*
X004936Y014337D01*
X005062Y014337D01*
X005062Y014337D01*
X005062Y014337D01*
X005094Y014305D01*
X005122Y014277D01*
X005183Y014337D01*
X005369Y014337D01*
X005501Y014205D01*
X005554Y014152D01*
X005664Y014152D01*
X005664Y014205D01*
X005796Y014337D01*
X006349Y014337D01*
X006349Y014337D01*
X006441Y014337D01*
X006536Y014337D01*
X006536Y014337D01*
X006599Y014273D01*
X006667Y014205D01*
X006667Y014205D01*
X006721Y014152D01*
X006777Y014152D01*
X006831Y014205D01*
X006962Y014337D01*
X007086Y014337D01*
X007086Y014337D01*
X007180Y014337D01*
X007272Y014337D01*
X007272Y014337D01*
X007272Y014337D01*
X007301Y014307D01*
X007331Y014337D01*
X007454Y014337D01*
X007454Y014337D01*
X007548Y014337D01*
X007641Y014337D01*
X007641Y014337D01*
X007742Y014236D02*
X007904Y014236D01*
X007874Y014137D02*
X007834Y014137D01*
X007834Y014039D02*
X007874Y014039D01*
X007874Y013940D02*
X007817Y013940D01*
X007827Y013842D02*
X007874Y013842D01*
X007874Y013743D02*
X007834Y013743D01*
X007830Y013645D02*
X007939Y013645D01*
X008038Y013546D02*
X007732Y013546D01*
X008067Y013516D02*
X008067Y013516D01*
X008407Y013546D02*
X008530Y013546D01*
X009082Y013546D02*
X009140Y013546D01*
X010255Y014827D02*
X005425Y014827D01*
X005728Y014925D02*
X009944Y014925D01*
X009549Y015024D02*
X006031Y015024D01*
X006589Y015122D02*
X009154Y015122D01*
X008269Y015221D02*
X007534Y015221D01*
X007328Y014334D02*
X007275Y014334D01*
X006960Y014334D02*
X006538Y014334D01*
X006536Y014337D02*
X006536Y014337D01*
X006637Y014236D02*
X006861Y014236D01*
X006834Y013645D02*
X006664Y013645D01*
X006565Y013546D02*
X006933Y013546D01*
X006013Y013546D02*
X005522Y013546D01*
X005621Y013645D02*
X005914Y013645D01*
X005695Y014236D02*
X005470Y014236D01*
X005372Y014334D02*
X005793Y014334D01*
X005180Y014334D02*
X005065Y014334D01*
X004750Y014334D02*
X004290Y014334D01*
X004096Y014236D02*
X004651Y014236D01*
X004559Y014137D02*
X003950Y014137D01*
X003804Y014039D02*
X004559Y014039D01*
X004559Y013940D02*
X003658Y013940D01*
X003512Y013842D02*
X004566Y013842D01*
X004559Y013743D02*
X003366Y013743D01*
X003230Y013645D02*
X004563Y013645D01*
X004661Y013546D02*
X003121Y013546D01*
X004492Y014433D02*
X011185Y014433D01*
X010986Y014531D02*
X004694Y014531D01*
X004895Y014630D02*
X010742Y014630D01*
X010499Y014728D02*
X005122Y014728D01*
X011328Y007833D02*
X011504Y007833D01*
X011501Y007735D02*
X011478Y007735D01*
X013142Y006646D02*
X013142Y009599D01*
X012355Y010386D01*
X012912Y010197D02*
X014839Y010197D01*
X014874Y010099D02*
X013010Y010099D01*
X013109Y010000D02*
X014910Y010000D01*
X014946Y009902D02*
X013207Y009902D01*
X013306Y009803D02*
X014972Y009803D01*
X014993Y009705D02*
X013380Y009705D01*
X013402Y009606D02*
X015013Y009606D01*
X015034Y009508D02*
X013402Y009508D01*
X013402Y009409D02*
X015055Y009409D01*
X015076Y009311D02*
X013402Y009311D01*
X013402Y009212D02*
X015097Y009212D01*
X015118Y009114D02*
X013402Y009114D01*
X013402Y009015D02*
X015139Y009015D01*
X015160Y008917D02*
X013402Y008917D01*
X013402Y008818D02*
X013816Y008818D01*
X013866Y008868D02*
X013743Y008745D01*
X013743Y007862D01*
X013866Y007739D01*
X014591Y007739D01*
X014714Y007862D01*
X014714Y008745D01*
X014591Y008868D01*
X013866Y008868D01*
X013743Y008720D02*
X013402Y008720D01*
X013402Y008621D02*
X013743Y008621D01*
X013743Y008523D02*
X013402Y008523D01*
X013402Y008424D02*
X013743Y008424D01*
X013743Y008326D02*
X013402Y008326D01*
X013402Y008227D02*
X013743Y008227D01*
X013743Y008129D02*
X013402Y008129D01*
X013402Y008030D02*
X013743Y008030D01*
X013743Y007932D02*
X013402Y007932D01*
X013402Y007833D02*
X013772Y007833D01*
X013402Y007735D02*
X015238Y007735D01*
X015244Y007833D02*
X014685Y007833D01*
X014714Y007932D02*
X015237Y007932D01*
X015230Y008030D02*
X014714Y008030D01*
X014714Y008129D02*
X015223Y008129D01*
X015216Y008227D02*
X014714Y008227D01*
X014714Y008326D02*
X015209Y008326D01*
X015203Y008424D02*
X014714Y008424D01*
X014714Y008523D02*
X015196Y008523D01*
X015189Y008621D02*
X014714Y008621D01*
X014714Y008720D02*
X015182Y008720D01*
X015175Y008818D02*
X014641Y008818D01*
X015231Y007636D02*
X013402Y007636D01*
X013402Y007538D02*
X015224Y007538D01*
X015217Y007439D02*
X013402Y007439D01*
X013402Y007341D02*
X015210Y007341D01*
X015203Y007242D02*
X013402Y007242D01*
X013402Y007144D02*
X015197Y007144D01*
X015190Y007045D02*
X013402Y007045D01*
X013402Y006947D02*
X015183Y006947D01*
X015176Y006848D02*
X013402Y006848D01*
X013406Y006750D02*
X015163Y006750D01*
X015172Y006795D02*
X015172Y006795D01*
X015142Y006651D02*
X013505Y006651D01*
X013603Y006553D02*
X013795Y006553D01*
X013743Y006454D02*
X013702Y006454D01*
X013729Y006059D02*
X013142Y006646D01*
X013729Y006059D02*
X014229Y006059D01*
X014714Y006060D02*
X015016Y006060D01*
X014995Y005962D02*
X014714Y005962D01*
X014714Y005863D02*
X014974Y005863D01*
X014950Y005765D02*
X014714Y005765D01*
X014714Y005666D02*
X014915Y005666D01*
X014879Y005568D02*
X014664Y005568D01*
X014714Y006159D02*
X015037Y006159D01*
X015058Y006257D02*
X014714Y006257D01*
X014714Y006356D02*
X015079Y006356D01*
X015100Y006454D02*
X014714Y006454D01*
X014663Y006553D02*
X015121Y006553D01*
X013685Y003302D02*
X012517Y003302D01*
X012663Y003204D02*
X013614Y003204D01*
X013542Y003105D02*
X012736Y003105D01*
X012776Y003007D02*
X013458Y003007D01*
X013363Y002908D02*
X012783Y002908D01*
X012778Y002810D02*
X013268Y002810D01*
X013173Y002711D02*
X012737Y002711D01*
X012667Y002613D02*
X013077Y002613D01*
X012982Y002514D02*
X012527Y002514D01*
X010914Y004583D02*
X010890Y004583D01*
X010914Y004681D02*
X010743Y004681D01*
X010613Y004780D02*
X010914Y004780D01*
X010914Y004878D02*
X010617Y004878D01*
X010610Y004977D02*
X010914Y004977D01*
X010914Y005075D02*
X010570Y005075D01*
X010496Y005174D02*
X010914Y005174D01*
X010914Y005272D02*
X010348Y005272D01*
X010031Y005272D02*
X009576Y005272D01*
X009761Y004878D02*
X007994Y004878D01*
X008093Y004780D02*
X009765Y004780D01*
X009806Y004681D02*
X008191Y004681D01*
X008290Y004583D02*
X009727Y004583D01*
X010068Y004189D02*
X010159Y004189D01*
X010200Y004090D02*
X009970Y004090D01*
X009437Y003893D02*
X001561Y003893D01*
X001622Y003795D02*
X009291Y003795D01*
X009218Y003696D02*
X001684Y003696D01*
X001745Y003598D02*
X009177Y003598D01*
X009171Y003499D02*
X001807Y003499D01*
X001883Y003401D02*
X009135Y003401D01*
X009037Y003302D02*
X001965Y003302D01*
X002048Y003204D02*
X008938Y003204D01*
X008840Y003105D02*
X002131Y003105D01*
X002213Y003007D02*
X008741Y003007D01*
X008811Y002709D02*
X007827Y002709D01*
X007658Y002908D02*
X002296Y002908D01*
X002379Y002810D02*
X007560Y002810D01*
X007461Y002711D02*
X002461Y002711D01*
X004284Y005071D02*
X003496Y005859D01*
X003496Y006056D01*
X000534Y006553D02*
X009650Y006553D01*
X009650Y006651D02*
X000521Y006651D01*
X005692Y000741D02*
X006345Y000741D01*
X006804Y000840D02*
X007124Y000840D01*
X007025Y000938D02*
X006903Y000938D01*
X008811Y002709D02*
X009599Y003496D01*
D18*
X011174Y002906D02*
X012355Y002906D01*
M02*
