G75*
G70*
%OFA0B0*%
%FSLAX24Y24*%
%IPPOS*%
%LPD*%
%AMOC8*
5,1,8,0,0,1.08239X$1,22.5*
%
%ADD10C,0.0040*%
%ADD11C,0.0020*%
%ADD12C,0.0070*%
%ADD13C,0.0030*%
%ADD14C,0.0080*%
%ADD15C,0.0160*%
%ADD16R,0.0160X0.0280*%
%ADD17R,0.0280X0.0160*%
%ADD18C,0.0050*%
%ADD19C,0.0059*%
D10*
X002883Y010286D02*
X002883Y010593D01*
X003036Y010440D02*
X002729Y010440D01*
X005682Y010440D02*
X005989Y010440D01*
D11*
X007972Y012857D02*
X007936Y012894D01*
X007972Y012857D02*
X008046Y012857D01*
X008082Y012894D01*
X008082Y012930D01*
X008046Y012967D01*
X008009Y012967D01*
X008046Y012967D02*
X008082Y013004D01*
X008082Y013040D01*
X008046Y013077D01*
X007972Y013077D01*
X007936Y013040D01*
X008157Y013004D02*
X008230Y012857D01*
X008303Y013004D01*
X008378Y013040D02*
X008414Y013077D01*
X008488Y013077D01*
X008524Y013040D01*
X008524Y013004D01*
X008488Y012967D01*
X008524Y012930D01*
X008524Y012894D01*
X008488Y012857D01*
X008414Y012857D01*
X008378Y012894D01*
X008451Y012967D02*
X008488Y012967D01*
X008555Y002721D02*
X008354Y002721D01*
X008304Y002671D01*
X008304Y002521D01*
X008605Y002521D01*
X008605Y002671D01*
X008555Y002721D01*
X008605Y002426D02*
X008304Y002426D01*
X008304Y002226D02*
X008605Y002426D01*
X008605Y002226D02*
X008304Y002226D01*
X008354Y002132D02*
X008304Y002082D01*
X008304Y001982D01*
X008354Y001932D01*
X008555Y001932D01*
X008605Y001982D01*
X008605Y002082D01*
X008555Y002132D01*
X008454Y002132D01*
X008454Y002032D01*
X007581Y002082D02*
X007581Y001982D01*
X007531Y001932D01*
X007431Y001982D02*
X007431Y002082D01*
X007481Y002132D01*
X007531Y002132D01*
X007581Y002082D01*
X007581Y002226D02*
X007581Y002376D01*
X007531Y002426D01*
X007331Y002426D01*
X007281Y002376D01*
X007281Y002226D01*
X007581Y002226D01*
X007331Y002132D02*
X007281Y002082D01*
X007281Y001982D01*
X007331Y001932D01*
X007381Y001932D01*
X007431Y001982D01*
X007431Y002521D02*
X007431Y002721D01*
X007381Y002721D02*
X007581Y002721D01*
X007581Y002521D02*
X007381Y002521D01*
X007281Y002621D01*
X007381Y002721D01*
X006597Y002721D02*
X006597Y002521D01*
X006296Y002521D01*
X006346Y002426D02*
X006296Y002376D01*
X006296Y002276D01*
X006346Y002226D01*
X006547Y002226D01*
X006597Y002276D01*
X006597Y002376D01*
X006547Y002426D01*
X006547Y002132D02*
X006597Y002082D01*
X006597Y001982D01*
X006547Y001932D01*
X006447Y001982D02*
X006447Y002082D01*
X006497Y002132D01*
X006547Y002132D01*
X006447Y001982D02*
X006397Y001932D01*
X006346Y001932D01*
X006296Y001982D01*
X006296Y002082D01*
X006346Y002132D01*
X009289Y002132D02*
X009489Y002132D01*
X009589Y002032D01*
X009489Y001932D01*
X009289Y001932D01*
X009339Y002226D02*
X009539Y002226D01*
X009589Y002276D01*
X009589Y002376D01*
X009539Y002426D01*
X009539Y002521D02*
X009339Y002521D01*
X009289Y002571D01*
X009289Y002671D01*
X009339Y002721D01*
X009539Y002721D02*
X009589Y002671D01*
X009589Y002571D01*
X009539Y002521D01*
X009339Y002426D02*
X009289Y002376D01*
X009289Y002276D01*
X009339Y002226D01*
D12*
X007924Y004919D02*
X007831Y004919D01*
X007924Y004919D02*
X008018Y005013D01*
X008018Y005480D01*
X007738Y005480D01*
X007644Y005386D01*
X007644Y005200D01*
X007738Y005106D01*
X008018Y005106D01*
X008224Y005200D02*
X008318Y005106D01*
X008598Y005106D01*
X008598Y005480D01*
X008804Y005386D02*
X008898Y005293D01*
X009085Y005293D01*
X009178Y005200D01*
X009085Y005106D01*
X008804Y005106D01*
X008804Y005386D02*
X008898Y005480D01*
X009178Y005480D01*
X009384Y005667D02*
X009665Y005667D01*
X009758Y005573D01*
X009758Y005386D01*
X009665Y005293D01*
X009384Y005293D01*
X009384Y005106D02*
X009384Y005667D01*
X008224Y005480D02*
X008224Y005200D01*
X007438Y005106D02*
X007438Y005386D01*
X007344Y005480D01*
X007064Y005480D01*
X007064Y005106D01*
X006858Y005106D02*
X006858Y005480D01*
X006671Y005667D01*
X006484Y005480D01*
X006484Y005106D01*
X006484Y005386D02*
X006858Y005386D01*
D13*
X004445Y002583D02*
X004259Y002583D01*
X004259Y002212D01*
X004259Y002336D02*
X004445Y002336D01*
X004506Y002397D01*
X004506Y002521D01*
X004445Y002583D01*
X004628Y002397D02*
X004628Y002274D01*
X004690Y002212D01*
X004813Y002212D01*
X004875Y002274D01*
X004875Y002397D01*
X004813Y002459D01*
X004690Y002459D01*
X004628Y002397D01*
X004996Y002459D02*
X004996Y002274D01*
X005058Y002212D01*
X005120Y002274D01*
X005181Y002212D01*
X005243Y002274D01*
X005243Y002459D01*
X005364Y002397D02*
X005364Y002274D01*
X005426Y002212D01*
X005550Y002212D01*
X005611Y002336D02*
X005364Y002336D01*
X005364Y002397D02*
X005426Y002459D01*
X005550Y002459D01*
X005611Y002397D01*
X005611Y002336D01*
X005733Y002336D02*
X005856Y002459D01*
X005918Y002459D01*
X005733Y002459D02*
X005733Y002212D01*
X003763Y003520D02*
X003393Y003520D01*
X003393Y003705D01*
X003455Y003767D01*
X003578Y003767D01*
X003640Y003705D01*
X003640Y003520D01*
X003640Y003644D02*
X003763Y003767D01*
X003763Y003889D02*
X003393Y004135D01*
X003393Y003889D02*
X003763Y004135D01*
X003763Y004257D02*
X003393Y004504D01*
X003393Y004625D02*
X003393Y004872D01*
X003393Y004994D02*
X003763Y005240D01*
X003763Y004994D02*
X003393Y005240D01*
X003393Y004749D02*
X003763Y004749D01*
D14*
X003087Y003957D02*
X002906Y003957D01*
X002998Y003835D01*
X002906Y003957D02*
X002725Y003957D01*
X002820Y003835D02*
X002896Y003951D01*
X002496Y003957D02*
X002315Y003957D01*
X002407Y003835D01*
X002315Y003957D02*
X002134Y003957D01*
X002229Y003835D02*
X002305Y003951D01*
X004426Y002008D02*
X004542Y001932D01*
X004548Y001922D02*
X004426Y001830D01*
X004548Y001741D02*
X004548Y001922D01*
X004548Y002103D01*
X005132Y003489D02*
X005132Y003725D01*
X005880Y004237D02*
X006352Y004237D01*
X007100Y003725D02*
X007100Y003489D01*
X006352Y002977D02*
X005880Y002977D01*
X006449Y006449D02*
X006449Y006607D01*
X006449Y006449D02*
X006607Y006449D01*
X009048Y006449D02*
X009205Y006449D01*
X009205Y006607D01*
X009205Y009048D02*
X009205Y009205D01*
X009048Y009205D01*
X011000Y009717D02*
X011000Y010091D01*
X011000Y009717D02*
X012922Y009717D01*
X012922Y010091D01*
X012335Y011768D02*
X011587Y011768D01*
X011587Y012004D01*
X012335Y012004D01*
X012335Y011768D01*
X012922Y012276D02*
X012922Y012630D01*
X011000Y012630D01*
X011000Y012256D01*
X011416Y012422D02*
X011418Y012433D01*
X011423Y012444D01*
X011431Y012452D01*
X011442Y012457D01*
X011453Y012459D01*
X011464Y012457D01*
X011475Y012452D01*
X011483Y012444D01*
X011488Y012433D01*
X011490Y012422D01*
X011488Y012411D01*
X011483Y012400D01*
X011475Y012392D01*
X011464Y012387D01*
X011453Y012385D01*
X011442Y012387D01*
X011431Y012392D01*
X011423Y012400D01*
X011418Y012411D01*
X011416Y012422D01*
X009874Y012158D02*
X008930Y012158D01*
X008930Y012945D01*
X008930Y013733D02*
X008930Y014363D01*
X009087Y014520D01*
X009717Y014520D01*
X009874Y014363D01*
X009874Y013733D01*
X009874Y012945D02*
X009874Y012158D01*
X008387Y013760D02*
X008387Y014099D01*
X007933Y013610D02*
X007721Y013610D01*
X007267Y013760D02*
X007267Y014099D01*
X006725Y014363D02*
X006725Y013733D01*
X006725Y014363D02*
X006567Y014520D01*
X005937Y014520D01*
X005780Y014363D01*
X005780Y013733D01*
X005260Y013433D02*
X005260Y013119D01*
X005260Y013433D02*
X005024Y013433D01*
X005780Y012945D02*
X005780Y012158D01*
X006725Y012158D01*
X006725Y012945D01*
X005124Y010886D02*
X004624Y010886D01*
X004374Y010636D01*
X004124Y010886D01*
X003624Y010886D01*
X003374Y010636D01*
X003374Y010136D01*
X003624Y009886D01*
X004124Y009886D01*
X004374Y010136D01*
X004624Y009886D01*
X005124Y009886D01*
X005374Y010136D01*
X005374Y010636D01*
X005124Y010886D01*
X006646Y009205D02*
X006449Y009008D01*
X002491Y009067D02*
X002491Y008595D01*
X001940Y008595D01*
X001940Y006863D01*
X002491Y006863D01*
X002491Y006390D01*
X001861Y006390D01*
X000798Y006390D02*
X000798Y009067D01*
X001861Y009067D02*
X002491Y009067D01*
X004158Y013119D02*
X004158Y013433D01*
X004394Y013433D01*
X011764Y006646D02*
X011764Y006410D01*
X011764Y006646D02*
X012040Y006646D01*
X013457Y006646D02*
X013733Y006646D01*
X013733Y006410D01*
X013733Y004914D02*
X013733Y004678D01*
X013496Y004678D01*
X012000Y004678D02*
X011764Y004678D01*
X011764Y004914D01*
D15*
X012945Y007815D02*
X012945Y007839D01*
X013930Y008603D02*
X013930Y008627D01*
X007827Y011949D02*
X007827Y011973D01*
X007827Y012540D02*
X007827Y012564D01*
X007249Y010386D02*
X007225Y010386D01*
X005339Y007511D02*
X005315Y007511D01*
X003496Y008996D02*
X003496Y009020D01*
X004366Y003625D02*
X004390Y003625D01*
X007801Y003607D02*
X007825Y003607D01*
D16*
X003496Y002709D03*
X003507Y007429D03*
X003488Y008044D03*
X009402Y011370D03*
X013930Y009599D03*
X012748Y004087D03*
X012748Y003496D03*
D17*
X005796Y005709D03*
X002906Y005071D03*
X002315Y005071D03*
D18*
X003582Y011013D02*
X003807Y011013D01*
X003882Y011088D01*
X003882Y011163D01*
X003807Y011238D01*
X003582Y011238D01*
X003582Y011013D02*
X003582Y011463D01*
X003807Y011463D01*
X003882Y011388D01*
X003882Y011313D01*
X003807Y011238D01*
X004042Y011238D02*
X004343Y011238D01*
X004343Y011313D02*
X004343Y011013D01*
X004343Y011313D02*
X004193Y011463D01*
X004042Y011313D01*
X004042Y011013D01*
X004503Y011463D02*
X004803Y011463D01*
X004653Y011463D02*
X004653Y011013D01*
X005113Y011013D02*
X005113Y011463D01*
X004963Y011463D02*
X005263Y011463D01*
X005852Y013489D02*
X006652Y013489D01*
X009002Y013489D02*
X009802Y013489D01*
X013496Y004835D02*
X013498Y004853D01*
X013504Y004869D01*
X013513Y004884D01*
X013526Y004897D01*
X013541Y004906D01*
X013557Y004912D01*
X013575Y004914D01*
X013593Y004912D01*
X013609Y004906D01*
X013624Y004897D01*
X013637Y004884D01*
X013646Y004869D01*
X013652Y004853D01*
X013654Y004835D01*
X013652Y004817D01*
X013646Y004801D01*
X013637Y004786D01*
X013624Y004773D01*
X013609Y004764D01*
X013593Y004758D01*
X013575Y004756D01*
X013557Y004758D01*
X013541Y004764D01*
X013526Y004773D01*
X013513Y004786D01*
X013504Y004801D01*
X013498Y004817D01*
X013496Y004835D01*
D19*
X011169Y005984D02*
X011169Y006127D01*
X010979Y006147D01*
X010958Y006211D01*
X010927Y006271D01*
X011048Y006419D01*
X010947Y006521D01*
X010798Y006400D01*
X010738Y006431D01*
X010674Y006451D01*
X010655Y006642D01*
X010511Y006642D01*
X010492Y006451D01*
X010428Y006431D01*
X010368Y006400D01*
X010219Y006521D01*
X010118Y006419D01*
X010239Y006271D01*
X010208Y006211D01*
X010187Y006147D01*
X009997Y006127D01*
X009997Y005984D01*
X010187Y005964D01*
X010208Y005900D01*
X010239Y005840D01*
X010118Y005692D01*
X010219Y005590D01*
X010368Y005711D01*
X010428Y005680D01*
X010512Y005885D01*
X010475Y005906D01*
X010443Y005936D01*
X010419Y005972D01*
X010404Y006012D01*
X010399Y006056D01*
X010404Y006099D01*
X010419Y006141D01*
X010444Y006177D01*
X010477Y006207D01*
X010516Y006227D01*
X010559Y006238D01*
X010603Y006239D01*
X010646Y006229D01*
X010686Y006209D01*
X010719Y006180D01*
X010745Y006144D01*
X010761Y006103D01*
X010768Y006060D01*
X010763Y006016D01*
X010749Y005974D01*
X010724Y005937D01*
X010692Y005907D01*
X010654Y005885D01*
X010738Y005680D01*
X010798Y005711D01*
X010947Y005590D01*
X011048Y005692D01*
X010927Y005840D01*
X010958Y005900D01*
X010979Y005964D01*
X011169Y005984D01*
X011169Y006021D02*
X010764Y006021D01*
X010765Y006078D02*
X011169Y006078D01*
X011088Y006136D02*
X010748Y006136D01*
X010704Y006193D02*
X010964Y006193D01*
X010938Y006251D02*
X010229Y006251D01*
X010208Y006308D02*
X010958Y006308D01*
X011005Y006366D02*
X010161Y006366D01*
X010122Y006424D02*
X010339Y006424D01*
X010414Y006424D02*
X010752Y006424D01*
X010827Y006424D02*
X011044Y006424D01*
X010986Y006481D02*
X010898Y006481D01*
X010671Y006481D02*
X010495Y006481D01*
X010501Y006539D02*
X010666Y006539D01*
X010660Y006596D02*
X010506Y006596D01*
X010268Y006481D02*
X010180Y006481D01*
X010202Y006193D02*
X010462Y006193D01*
X010418Y006136D02*
X010078Y006136D01*
X009997Y006078D02*
X010401Y006078D01*
X010403Y006021D02*
X009997Y006021D01*
X010188Y005963D02*
X010424Y005963D01*
X010476Y005906D02*
X010206Y005906D01*
X010235Y005848D02*
X010497Y005848D01*
X010473Y005790D02*
X010198Y005790D01*
X010151Y005733D02*
X010449Y005733D01*
X010324Y005675D02*
X010134Y005675D01*
X010192Y005618D02*
X010253Y005618D01*
X010669Y005848D02*
X010931Y005848D01*
X010960Y005906D02*
X010690Y005906D01*
X010742Y005963D02*
X010978Y005963D01*
X010968Y005790D02*
X010693Y005790D01*
X010717Y005733D02*
X011015Y005733D01*
X011032Y005675D02*
X010842Y005675D01*
X010913Y005618D02*
X010974Y005618D01*
M02*
