%
M48
M72
T01C0.0236
T02C0.0400
%
T01
X3103Y2512
X1528Y5071
X3496Y6056
X4481Y6056
X4678Y7237
X5859Y9205
X7433Y8418
X7827Y7827
X8615Y7827
X8418Y8615
X9599Y9599
X10977Y9599
X11174Y8811
X11174Y7433
X12059Y6941
X10189Y4874
X10583Y4284
X10386Y3300
X9796Y2709
X9599Y3496
X8615Y3693
X11370Y1922
X12355Y2906
X14520Y7237
X10386Y13733
X6449Y11567
X5465Y11961
X3496Y13142
X1528Y10386
X1331Y7630
T02
X3874Y10386
X4874Y10386
X6464Y1319
X7464Y1319
X8464Y1319
X9464Y1319
M30
