%
M48
M72
T01C0.0236
T02C0.0400
T03C0.0551
%
T01
X3109Y5932
X1534Y8491
X3502Y9475
X4487Y9475
X4683Y10656
X5865Y12625
X7439Y11838
X7833Y11247
X8620Y11247
X8424Y12034
X9605Y13019
X10983Y13019
X11180Y12231
X11180Y10853
X12065Y10361
X10195Y8294
X10589Y7704
X10392Y6719
X9802Y6129
X9605Y6916
X8620Y7113
X11376Y5342
X12361Y6326
X14526Y10656
X10392Y17153
X6455Y14987
X5471Y15381
X3502Y16562
X1534Y13806
X1337Y11050
X5668Y5145
T02
X4880Y13806
X3880Y13806
T03
X7030Y2979
X9030Y2979
M30
