G75*
G70*
%OFA0B0*%
%FSLAX24Y24*%
%IPPOS*%
%LPD*%
%AMOC8*
5,1,8,0,0,1.08239X$1,22.5*
%
%ADD10R,0.0315X0.0118*%
%ADD11R,0.0118X0.0315*%
%ADD12R,0.0748X0.0433*%
%ADD13R,0.0354X0.0276*%
%ADD14R,0.0551X0.0138*%
%ADD15R,0.0748X0.0709*%
%ADD16R,0.0276X0.0354*%
%ADD17R,0.0217X0.0472*%
%ADD18R,0.0630X0.0748*%
%ADD19R,0.0315X0.0354*%
%ADD20R,0.0433X0.0394*%
%ADD21R,0.0315X0.0315*%
%ADD22R,0.0709X0.0315*%
%ADD23R,0.0315X0.0984*%
%ADD24R,0.0315X0.0657*%
%ADD25R,0.0657X0.0315*%
D10*
X006489Y006843D03*
X006489Y007040D03*
X006489Y007237D03*
X006489Y007433D03*
X006489Y007630D03*
X006489Y007827D03*
X006489Y008024D03*
X006489Y008221D03*
X006489Y008418D03*
X006489Y008615D03*
X006489Y008811D03*
X009166Y008811D03*
X009166Y008615D03*
X009166Y008418D03*
X009166Y008221D03*
X009166Y008024D03*
X009166Y007827D03*
X009166Y007630D03*
X009166Y007433D03*
X009166Y007237D03*
X009166Y007040D03*
X009166Y006843D03*
D11*
X008811Y006489D03*
X008615Y006489D03*
X008418Y006489D03*
X008221Y006489D03*
X008024Y006489D03*
X007827Y006489D03*
X007630Y006489D03*
X007433Y006489D03*
X007237Y006489D03*
X007040Y006489D03*
X006843Y006489D03*
X006843Y009166D03*
X007040Y009166D03*
X007237Y009166D03*
X007433Y009166D03*
X007630Y009166D03*
X007827Y009166D03*
X008024Y009166D03*
X008221Y009166D03*
X008418Y009166D03*
X008615Y009166D03*
X008811Y009166D03*
D12*
X006844Y004059D03*
X006844Y003154D03*
X005388Y003154D03*
X005388Y004059D03*
D13*
X004378Y003881D03*
X004378Y003369D03*
X002906Y004815D03*
X002906Y005327D03*
X002315Y005327D03*
X002315Y004815D03*
X005327Y007255D03*
X005327Y007767D03*
X005796Y005965D03*
X005796Y005453D03*
X007813Y003863D03*
X007813Y003351D03*
X007237Y010130D03*
X007237Y010642D03*
D14*
X002412Y008241D03*
X002412Y007985D03*
X002412Y007729D03*
X002412Y007473D03*
X002412Y007217D03*
D15*
X001369Y006154D03*
X001369Y009304D03*
D16*
X003241Y002709D03*
X003752Y002709D03*
X003763Y007429D03*
X003252Y007429D03*
X003232Y008044D03*
X003744Y008044D03*
X003752Y009008D03*
X003241Y009008D03*
X007571Y011961D03*
X008083Y011961D03*
X008083Y012552D03*
X007571Y012552D03*
X009146Y011370D03*
X009658Y011370D03*
X012689Y007827D03*
X013201Y007827D03*
X013674Y008615D03*
X014185Y008615D03*
X014185Y009599D03*
X013674Y009599D03*
X013004Y004087D03*
X012493Y004087D03*
X012493Y003496D03*
X013004Y003496D03*
D17*
X008201Y013418D03*
X007453Y013418D03*
X007453Y014441D03*
X007827Y014441D03*
X008201Y014441D03*
D18*
X009402Y013989D03*
X009402Y012689D03*
X006252Y012689D03*
X006252Y013989D03*
D19*
X005083Y012764D03*
X004335Y012764D03*
X004709Y013591D03*
D20*
X003650Y011961D03*
X002981Y011961D03*
D21*
X002906Y004185D03*
X002906Y003595D03*
X002315Y003595D03*
X002315Y004185D03*
X004185Y001922D03*
X004776Y001922D03*
D22*
X010911Y010424D03*
X010911Y010924D03*
X010911Y011424D03*
X010911Y011924D03*
X013011Y011924D03*
X013011Y011424D03*
X013011Y010924D03*
X013011Y010424D03*
D23*
X012748Y005012D03*
D24*
X012748Y006475D03*
D25*
X011935Y006162D03*
X011935Y005662D03*
X011935Y005162D03*
X013561Y005162D03*
X013561Y005662D03*
X013561Y006162D03*
M02*
