G75*
G70*
%OFA0B0*%
%FSLAX24Y24*%
%IPPOS*%
%LPD*%
%AMOC8*
5,1,8,0,0,1.08239X$1,22.5*
%
%ADD10C,0.0100*%
%ADD11R,0.0315X0.0118*%
%ADD12R,0.0118X0.0315*%
%ADD13R,0.0748X0.0433*%
%ADD14R,0.0354X0.0276*%
%ADD15R,0.0551X0.0138*%
%ADD16R,0.0748X0.0709*%
%ADD17R,0.0276X0.0354*%
%ADD18R,0.0217X0.0472*%
%ADD19R,0.0630X0.0748*%
%ADD20R,0.0315X0.0354*%
%ADD21R,0.0433X0.0394*%
%ADD22R,0.0315X0.0315*%
%ADD23R,0.0740X0.0740*%
%ADD24C,0.0740*%
%ADD25R,0.0709X0.0315*%
%ADD26R,0.0315X0.0984*%
%ADD27R,0.0315X0.0657*%
%ADD28R,0.0657X0.0315*%
%ADD29C,0.0436*%
%ADD30C,0.0120*%
%ADD31C,0.0320*%
%ADD32C,0.0500*%
%ADD33C,0.0160*%
%ADD34C,0.0240*%
D10*
X002463Y002647D02*
X001794Y003444D01*
X001243Y004326D01*
X000820Y005277D01*
X000533Y006277D01*
X000388Y007307D01*
X000388Y008347D01*
X000533Y009378D01*
X000820Y010378D01*
X001243Y011328D01*
X001794Y012210D01*
X002463Y013007D01*
X003236Y013703D01*
X004099Y014285D01*
X005034Y014741D01*
X006023Y015063D01*
X007048Y015243D01*
X008087Y015280D01*
X009122Y015171D01*
X010132Y014919D01*
X011096Y014530D01*
X011997Y014009D01*
X012817Y013369D01*
X012817Y013369D01*
X013540Y012621D01*
X014151Y011779D01*
X014640Y010860D01*
X014995Y009883D01*
X015212Y008865D01*
X015284Y007827D01*
X015212Y006789D01*
X014995Y005772D01*
X014640Y004794D01*
X014151Y003875D01*
X013540Y003034D01*
X012817Y002285D01*
X011997Y001645D01*
X011096Y001125D01*
X010132Y000735D01*
X009122Y000483D01*
X008087Y000375D01*
X007048Y000411D01*
X006023Y000592D01*
X005034Y000913D01*
X004099Y001369D01*
X003236Y001951D01*
X002463Y002647D01*
X002501Y002613D02*
X002933Y002613D01*
X002933Y002711D02*
X002409Y002711D01*
X002327Y002810D02*
X002933Y002810D01*
X002933Y002908D02*
X002244Y002908D01*
X002161Y003007D02*
X002983Y003007D01*
X003021Y003044D02*
X002933Y002957D01*
X002933Y002461D01*
X003032Y002362D01*
X003449Y002362D01*
X003496Y002410D01*
X003544Y002362D01*
X003788Y002362D01*
X003929Y002221D01*
X003858Y002150D01*
X003858Y001694D01*
X003958Y001594D01*
X004413Y001594D01*
X004496Y001677D01*
X004498Y001672D01*
X004526Y001644D01*
X004561Y001624D01*
X004599Y001614D01*
X004747Y001614D01*
X004747Y001893D01*
X004805Y001893D01*
X004805Y001950D01*
X005083Y001950D01*
X005083Y002099D01*
X005073Y002137D01*
X005053Y002171D01*
X005026Y002199D01*
X004991Y002219D01*
X004953Y002229D01*
X004805Y002229D01*
X004805Y001950D01*
X004747Y001950D01*
X004747Y002229D01*
X004599Y002229D01*
X004561Y002219D01*
X004526Y002199D01*
X004498Y002171D01*
X004496Y002167D01*
X004413Y002249D01*
X004405Y002249D01*
X004405Y002367D01*
X004277Y002496D01*
X004060Y002712D01*
X004060Y002957D01*
X003961Y003056D01*
X003544Y003056D01*
X003496Y003009D01*
X003461Y003044D01*
X003461Y003208D01*
X003520Y003268D01*
X003520Y005177D01*
X003576Y005233D01*
X005460Y005233D01*
X005548Y005145D01*
X006043Y005145D01*
X006131Y005233D01*
X006922Y005233D01*
X007328Y005639D01*
X007410Y005721D01*
X007410Y004966D01*
X007145Y004701D01*
X004586Y004701D01*
X004287Y004401D01*
X004158Y004273D01*
X004158Y004189D01*
X003520Y004189D01*
X003520Y004287D02*
X004173Y004287D01*
X004158Y004189D02*
X004131Y004189D01*
X004031Y004089D01*
X004031Y003672D01*
X004093Y003611D01*
X004081Y003599D01*
X004061Y003565D01*
X004051Y003526D01*
X004051Y003388D01*
X004359Y003388D01*
X004359Y003350D01*
X004051Y003350D01*
X004051Y003211D01*
X004061Y003173D01*
X004081Y003139D01*
X004109Y003111D01*
X004143Y003091D01*
X004181Y003081D01*
X004359Y003081D01*
X004359Y003350D01*
X004397Y003350D01*
X004397Y003081D01*
X004575Y003081D01*
X004613Y003091D01*
X004648Y003111D01*
X004676Y003139D01*
X004695Y003173D01*
X004706Y003211D01*
X004706Y003350D01*
X004397Y003350D01*
X004397Y003388D01*
X004706Y003388D01*
X004706Y003526D01*
X004696Y003560D01*
X004844Y003413D01*
X004844Y002867D01*
X004943Y002767D01*
X005832Y002767D01*
X005932Y002867D01*
X005932Y003441D01*
X005832Y003540D01*
X005338Y003540D01*
X005214Y003665D01*
X005214Y003665D01*
X005206Y003673D01*
X005832Y003673D01*
X005932Y003772D01*
X005932Y004261D01*
X006300Y004261D01*
X006300Y003772D01*
X006400Y003673D01*
X007289Y003673D01*
X007389Y003772D01*
X007389Y003839D01*
X007466Y003839D01*
X007466Y003654D01*
X007528Y003593D01*
X007516Y003581D01*
X007496Y003546D01*
X007486Y003508D01*
X007486Y003370D01*
X007794Y003370D01*
X007794Y003332D01*
X007486Y003332D01*
X007486Y003193D01*
X007496Y003155D01*
X007516Y003121D01*
X007544Y003093D01*
X007578Y003073D01*
X007616Y003063D01*
X007794Y003063D01*
X007794Y003332D01*
X007832Y003332D01*
X007832Y003370D01*
X008140Y003370D01*
X008140Y003508D01*
X008130Y003546D01*
X008110Y003581D01*
X008098Y003593D01*
X008160Y003654D01*
X008160Y004071D01*
X008061Y004170D01*
X008033Y004170D01*
X008033Y004192D01*
X007941Y004284D01*
X008047Y004390D01*
X008047Y004737D01*
X008198Y004586D01*
X008327Y004458D01*
X008720Y004458D01*
X008985Y004193D01*
X008985Y003391D01*
X008917Y003323D01*
X008130Y002535D01*
X007369Y002535D01*
X006657Y001824D01*
X006571Y001859D01*
X006357Y001859D01*
X006158Y001777D01*
X006006Y001625D01*
X005924Y001427D01*
X005924Y001212D01*
X006006Y001014D01*
X006158Y000862D01*
X006357Y000779D01*
X006571Y000779D01*
X006770Y000862D01*
X006922Y001014D01*
X006964Y001115D01*
X007006Y001014D01*
X007158Y000862D01*
X007357Y000779D01*
X007571Y000779D01*
X007770Y000862D01*
X007922Y001014D01*
X007975Y001142D01*
X007982Y001120D01*
X008019Y001047D01*
X008067Y000981D01*
X008125Y000923D01*
X008191Y000875D01*
X008264Y000838D01*
X008342Y000812D01*
X008414Y000801D01*
X008414Y001269D01*
X008514Y001269D01*
X008514Y000801D01*
X008586Y000812D01*
X008664Y000838D01*
X008737Y000875D01*
X008803Y000923D01*
X008861Y000981D01*
X008909Y001047D01*
X008924Y001077D01*
X008924Y000879D01*
X009024Y000779D01*
X009904Y000779D01*
X010004Y000879D01*
X010004Y001760D01*
X009904Y001859D01*
X009024Y001859D01*
X008924Y001760D01*
X008924Y001562D01*
X008909Y001592D01*
X008861Y001658D01*
X008803Y001716D01*
X008737Y001764D01*
X008664Y001801D01*
X008586Y001827D01*
X008514Y001838D01*
X008514Y001369D01*
X008414Y001369D01*
X008414Y001838D01*
X008342Y001827D01*
X008264Y001801D01*
X008191Y001764D01*
X008125Y001716D01*
X008067Y001658D01*
X008019Y001592D01*
X007982Y001519D01*
X007975Y001497D01*
X007922Y001625D01*
X007770Y001777D01*
X007571Y001859D01*
X007357Y001859D01*
X007286Y001830D01*
X007551Y002095D01*
X008312Y002095D01*
X008441Y002224D01*
X008441Y002224D01*
X009099Y002883D01*
X010280Y002883D01*
X010309Y002911D01*
X010463Y002911D01*
X010606Y002971D01*
X010715Y003080D01*
X010774Y003222D01*
X010774Y003276D01*
X011265Y003276D01*
X011394Y003405D01*
X011658Y003670D01*
X011870Y003670D01*
X012135Y003405D01*
X012185Y003355D01*
X012185Y003256D01*
X012135Y003235D01*
X012026Y003126D01*
X011967Y002983D01*
X011967Y002829D01*
X012026Y002686D01*
X012135Y002577D01*
X012278Y002518D01*
X012432Y002518D01*
X012575Y002577D01*
X012674Y002676D01*
X012844Y002676D01*
X012978Y002811D01*
X013234Y003067D01*
X013234Y003171D01*
X013312Y003249D01*
X013312Y003744D01*
X013264Y003792D01*
X013312Y003839D01*
X013312Y004335D01*
X013213Y004434D01*
X013060Y004434D01*
X013076Y004450D01*
X013076Y005421D01*
X013103Y005394D01*
X013093Y005377D01*
X013083Y005339D01*
X013083Y005191D01*
X013533Y005191D01*
X013533Y005334D01*
X013590Y005334D01*
X013590Y005191D01*
X013533Y005191D01*
X013533Y005133D01*
X013590Y005133D01*
X013590Y004854D01*
X013910Y004854D01*
X013948Y004865D01*
X013982Y004884D01*
X014010Y004912D01*
X014030Y004946D01*
X014040Y004985D01*
X014040Y005133D01*
X013590Y005133D01*
X013590Y005191D01*
X014040Y005191D01*
X014040Y005339D01*
X014030Y005377D01*
X014020Y005394D01*
X014060Y005434D01*
X014060Y005890D01*
X014038Y005912D01*
X014060Y005934D01*
X014060Y006390D01*
X013961Y006489D01*
X013162Y006489D01*
X013111Y006438D01*
X013076Y006473D01*
X013076Y006874D01*
X012978Y006971D01*
X012978Y007526D01*
X013005Y007510D01*
X013044Y007500D01*
X013182Y007500D01*
X013182Y007808D01*
X013220Y007808D01*
X013220Y007500D01*
X013359Y007500D01*
X013397Y007510D01*
X013431Y007530D01*
X013459Y007558D01*
X013479Y007592D01*
X013489Y007630D01*
X013489Y007808D01*
X013220Y007808D01*
X013220Y007846D01*
X013182Y007846D01*
X013182Y008154D01*
X013044Y008154D01*
X013005Y008144D01*
X012971Y008124D01*
X012959Y008112D01*
X012898Y008174D01*
X012481Y008174D01*
X012382Y008075D01*
X012382Y007663D01*
X011492Y007663D01*
X011393Y007762D01*
X011251Y007822D01*
X011096Y007822D01*
X010954Y007762D01*
X010845Y007653D01*
X010786Y007511D01*
X010786Y007356D01*
X010689Y007260D01*
X009493Y007260D01*
X009493Y008001D01*
X009887Y008001D01*
X010016Y008130D01*
X010477Y008591D01*
X010606Y008720D01*
X010606Y009479D01*
X010648Y009379D01*
X010757Y009270D01*
X010900Y009211D01*
X011054Y009211D01*
X011197Y009270D01*
X011306Y009379D01*
X011365Y009522D01*
X011365Y009676D01*
X011306Y009819D01*
X011197Y009928D01*
X011197Y010096D01*
X011336Y010096D01*
X011435Y010196D01*
X011435Y010204D01*
X011439Y010204D01*
X013119Y008523D01*
X013248Y008395D01*
X013366Y008395D01*
X013366Y008367D01*
X013465Y008267D01*
X013882Y008267D01*
X013944Y008329D01*
X013956Y008317D01*
X013990Y008298D01*
X014028Y008287D01*
X014167Y008287D01*
X014167Y008596D01*
X014204Y008596D01*
X014204Y008287D01*
X014343Y008287D01*
X014381Y008298D01*
X014415Y008317D01*
X014443Y008345D01*
X014463Y008380D01*
X014473Y008418D01*
X014473Y008596D01*
X014204Y008596D01*
X014204Y008633D01*
X014473Y008633D01*
X014473Y008811D01*
X014463Y008850D01*
X014443Y008884D01*
X014415Y008912D01*
X014381Y008932D01*
X014343Y008942D01*
X014204Y008942D01*
X014204Y008633D01*
X014167Y008633D01*
X014167Y008942D01*
X014028Y008942D01*
X013990Y008932D01*
X013956Y008912D01*
X013944Y008900D01*
X013882Y008962D01*
X013465Y008962D01*
X013384Y008880D01*
X012886Y009379D01*
X013366Y009379D01*
X013366Y009351D01*
X013465Y009252D01*
X013882Y009252D01*
X013944Y009313D01*
X013956Y009302D01*
X013990Y009282D01*
X014028Y009272D01*
X014167Y009272D01*
X014167Y009580D01*
X014204Y009580D01*
X014204Y009272D01*
X014343Y009272D01*
X014381Y009282D01*
X014415Y009302D01*
X014443Y009330D01*
X014463Y009364D01*
X014473Y009402D01*
X014473Y009580D01*
X014204Y009580D01*
X014204Y009618D01*
X014167Y009618D01*
X014167Y009926D01*
X014028Y009926D01*
X013990Y009916D01*
X013956Y009896D01*
X013944Y009884D01*
X013882Y009946D01*
X013465Y009946D01*
X013366Y009846D01*
X013366Y009819D01*
X012840Y009819D01*
X012181Y010477D01*
X012181Y010871D01*
X012052Y011000D01*
X011908Y011144D01*
X011435Y011144D01*
X011435Y011152D01*
X011413Y011174D01*
X011435Y011196D01*
X011435Y011652D01*
X011395Y011691D01*
X011405Y011708D01*
X011415Y011746D01*
X011415Y011895D01*
X010940Y011895D01*
X010940Y011952D01*
X011415Y011952D01*
X011415Y012101D01*
X011405Y012139D01*
X011385Y012173D01*
X011357Y012201D01*
X011323Y012221D01*
X011285Y012231D01*
X010940Y012231D01*
X010940Y011952D01*
X010882Y011952D01*
X010882Y011895D01*
X010407Y011895D01*
X010407Y011746D01*
X010417Y011708D01*
X010427Y011691D01*
X010387Y011652D01*
X010387Y011644D01*
X009940Y011644D01*
X009866Y011718D01*
X009450Y011718D01*
X009402Y011670D01*
X009354Y011718D01*
X009110Y011718D01*
X009040Y011787D01*
X008391Y011787D01*
X008391Y012209D01*
X008343Y012256D01*
X008391Y012304D01*
X008391Y012548D01*
X008421Y012579D01*
X008421Y013053D01*
X008479Y013111D01*
X008479Y013128D01*
X008889Y013128D01*
X008975Y013163D01*
X008967Y013155D01*
X008947Y013121D01*
X008937Y013083D01*
X008937Y012739D01*
X009352Y012739D01*
X009352Y012639D01*
X009452Y012639D01*
X009452Y012165D01*
X009737Y012165D01*
X009775Y012176D01*
X009809Y012195D01*
X009837Y012223D01*
X009857Y012257D01*
X009867Y012296D01*
X009867Y012639D01*
X009452Y012639D01*
X009452Y012739D01*
X009867Y012739D01*
X009867Y013083D01*
X009857Y013121D01*
X009837Y013155D01*
X009809Y013183D01*
X009775Y013203D01*
X009737Y013213D01*
X009452Y013213D01*
X009452Y012739D01*
X009352Y012739D01*
X009352Y013213D01*
X009067Y013213D01*
X009029Y013203D01*
X009023Y013200D01*
X009268Y013445D01*
X009787Y013445D01*
X009887Y013544D01*
X009887Y014433D01*
X009787Y014533D01*
X009017Y014533D01*
X008917Y014433D01*
X008917Y013914D01*
X008711Y013708D01*
X008479Y013708D01*
X008479Y013724D01*
X008380Y013824D01*
X008022Y013824D01*
X007923Y013724D01*
X007923Y013504D01*
X007911Y013475D01*
X007911Y013360D01*
X007923Y013332D01*
X007923Y013111D01*
X007981Y013053D01*
X007981Y012899D01*
X007875Y012899D01*
X007813Y012837D01*
X007801Y012849D01*
X007767Y012869D01*
X007729Y012879D01*
X007590Y012879D01*
X007590Y012570D01*
X007552Y012570D01*
X007552Y012533D01*
X007283Y012533D01*
X007283Y012355D01*
X007294Y012317D01*
X007313Y012282D01*
X007339Y012256D01*
X007313Y012230D01*
X007294Y012196D01*
X007283Y012158D01*
X007283Y011980D01*
X007552Y011980D01*
X007552Y011942D01*
X007283Y011942D01*
X007283Y011787D01*
X006778Y011787D01*
X006669Y011896D01*
X006526Y011955D01*
X006372Y011955D01*
X006229Y011896D01*
X006120Y011787D01*
X006061Y011645D01*
X006061Y011490D01*
X006120Y011347D01*
X006229Y011238D01*
X006372Y011179D01*
X006526Y011179D01*
X006669Y011238D01*
X006778Y011347D01*
X007854Y011347D01*
X007863Y011338D01*
X007863Y010433D01*
X008788Y009508D01*
X008788Y009493D01*
X008682Y009493D01*
X008662Y009473D01*
X008615Y009473D01*
X008615Y009426D01*
X008615Y009426D01*
X008615Y009426D01*
X008615Y009473D01*
X008567Y009473D01*
X008547Y009493D01*
X007457Y009493D01*
X007457Y009823D01*
X007484Y009823D01*
X007584Y009922D01*
X007584Y010339D01*
X007522Y010400D01*
X007534Y010412D01*
X007554Y010446D01*
X007564Y010485D01*
X007564Y010623D01*
X007256Y010623D01*
X007256Y010661D01*
X007564Y010661D01*
X007564Y010800D01*
X007554Y010838D01*
X007534Y010872D01*
X007506Y010900D01*
X007472Y010920D01*
X007434Y010930D01*
X007256Y010930D01*
X007256Y010661D01*
X007218Y010661D01*
X007218Y010930D01*
X007040Y010930D01*
X007002Y010920D01*
X006967Y010900D01*
X006939Y010872D01*
X006920Y010838D01*
X006909Y010800D01*
X006909Y010661D01*
X007218Y010661D01*
X007218Y010623D01*
X006909Y010623D01*
X006909Y010485D01*
X006920Y010446D01*
X006939Y010412D01*
X006951Y010400D01*
X006889Y010339D01*
X006889Y009922D01*
X006989Y009823D01*
X007017Y009823D01*
X007017Y009539D01*
X006866Y009690D01*
X006737Y009819D01*
X006161Y009819D01*
X006032Y009690D01*
X005936Y009593D01*
X005781Y009593D01*
X005639Y009534D01*
X005530Y009425D01*
X005471Y009282D01*
X005471Y009128D01*
X005530Y008985D01*
X005639Y008876D01*
X005739Y008835D01*
X004390Y008835D01*
X004193Y008638D01*
X003461Y008638D01*
X003461Y008673D01*
X003511Y008723D01*
X003522Y008711D01*
X003557Y008691D01*
X003595Y008681D01*
X003733Y008681D01*
X003733Y008989D01*
X003771Y008989D01*
X003771Y008681D01*
X003910Y008681D01*
X003948Y008691D01*
X003982Y008711D01*
X004010Y008739D01*
X004030Y008773D01*
X004040Y008811D01*
X004040Y008989D01*
X003771Y008989D01*
X003771Y009027D01*
X003733Y009027D01*
X003733Y009335D01*
X003595Y009335D01*
X003557Y009325D01*
X003522Y009305D01*
X003511Y009294D01*
X003449Y009355D01*
X003032Y009355D01*
X002933Y009256D01*
X002933Y008761D01*
X003021Y008673D01*
X003021Y008638D01*
X002736Y008638D01*
X002605Y008507D01*
X002605Y010090D01*
X002612Y010096D01*
X003410Y010096D01*
X003417Y010080D01*
X003569Y009928D01*
X003767Y009846D01*
X003982Y009846D01*
X004180Y009928D01*
X004332Y010080D01*
X004385Y010209D01*
X004393Y010187D01*
X004430Y010114D01*
X004478Y010047D01*
X004536Y009990D01*
X004602Y009941D01*
X004675Y009904D01*
X004753Y009879D01*
X004824Y009868D01*
X004824Y010336D01*
X004924Y010336D01*
X004924Y009868D01*
X004996Y009879D01*
X005074Y009904D01*
X005147Y009941D01*
X005213Y009990D01*
X005271Y010047D01*
X005319Y010114D01*
X005356Y010187D01*
X005382Y010264D01*
X005393Y010336D01*
X004924Y010336D01*
X004924Y010436D01*
X004824Y010436D01*
X004824Y010905D01*
X004753Y010893D01*
X004675Y010868D01*
X004602Y010831D01*
X004536Y010783D01*
X004478Y010725D01*
X004430Y010659D01*
X004393Y010586D01*
X004385Y010564D01*
X004332Y010692D01*
X004180Y010844D01*
X003982Y010926D01*
X003767Y010926D01*
X003569Y010844D01*
X003417Y010692D01*
X003410Y010676D01*
X002612Y010676D01*
X002605Y010683D01*
X002605Y011054D01*
X003146Y011594D01*
X003268Y011594D01*
X003315Y011642D01*
X003363Y011594D01*
X003937Y011594D01*
X004037Y011694D01*
X004037Y011937D01*
X004516Y012417D01*
X004563Y012417D01*
X004663Y012517D01*
X004663Y013012D01*
X004563Y013111D01*
X004107Y013111D01*
X004008Y013012D01*
X004008Y012729D01*
X003607Y012328D01*
X003363Y012328D01*
X003315Y012280D01*
X003268Y012328D01*
X002694Y012328D01*
X002594Y012228D01*
X002594Y011863D01*
X002151Y011419D01*
X002070Y011338D01*
X002025Y011231D01*
X002025Y008439D01*
X001967Y008380D01*
X001967Y007334D01*
X001988Y007312D01*
X001987Y007306D01*
X001987Y007217D01*
X002412Y007217D01*
X002412Y007217D01*
X001987Y007217D01*
X001987Y007128D01*
X001997Y007090D01*
X002017Y007056D01*
X002045Y007028D01*
X002079Y007008D01*
X002117Y006998D01*
X002412Y006998D01*
X002412Y007217D01*
X002412Y007217D01*
X002412Y006998D01*
X002708Y006998D01*
X002746Y007008D01*
X002780Y007028D01*
X002808Y007056D01*
X002828Y007090D01*
X002838Y007128D01*
X002838Y007217D01*
X002838Y007306D01*
X002836Y007312D01*
X002858Y007334D01*
X002858Y007509D01*
X002860Y007509D01*
X002944Y007425D01*
X002944Y007181D01*
X003043Y007082D01*
X003460Y007082D01*
X003507Y007129D01*
X003555Y007082D01*
X003972Y007082D01*
X004071Y007181D01*
X004071Y007213D01*
X004090Y007213D01*
X004178Y007213D01*
X004180Y007216D01*
X004183Y007216D01*
X004244Y007280D01*
X004966Y008001D01*
X005034Y008001D01*
X005030Y007996D01*
X005010Y007962D01*
X005000Y007924D01*
X005000Y007785D01*
X005308Y007785D01*
X005308Y007748D01*
X005000Y007748D01*
X005000Y007609D01*
X005010Y007571D01*
X005030Y007537D01*
X005042Y007525D01*
X004980Y007463D01*
X004980Y007047D01*
X005080Y006947D01*
X005455Y006947D01*
X005374Y006866D01*
X003012Y006866D01*
X002224Y006079D01*
X002095Y005950D01*
X002095Y005635D01*
X002068Y005635D01*
X001968Y005535D01*
X001968Y005119D01*
X002016Y005071D01*
X001968Y005024D01*
X001968Y004607D01*
X002068Y004508D01*
X002082Y004508D01*
X001988Y004413D01*
X001988Y003958D01*
X002055Y003890D01*
X001988Y003823D01*
X001988Y003367D01*
X002087Y003267D01*
X002543Y003267D01*
X002611Y003335D01*
X002678Y003267D01*
X003021Y003267D01*
X003021Y003044D01*
X003021Y003105D02*
X002079Y003105D01*
X001996Y003204D02*
X003021Y003204D01*
X003241Y003300D02*
X003241Y002709D01*
X002933Y002514D02*
X002611Y002514D01*
X002720Y002416D02*
X002979Y002416D01*
X002829Y002317D02*
X003833Y002317D01*
X003927Y002219D02*
X002939Y002219D01*
X003048Y002120D02*
X003858Y002120D01*
X003858Y002022D02*
X003158Y002022D01*
X003277Y001923D02*
X003858Y001923D01*
X003858Y001825D02*
X003423Y001825D01*
X003569Y001726D02*
X003858Y001726D01*
X003924Y001628D02*
X003715Y001628D01*
X003861Y001529D02*
X005966Y001529D01*
X005926Y001431D02*
X004008Y001431D01*
X004175Y001332D02*
X005924Y001332D01*
X005924Y001234D02*
X004377Y001234D01*
X004578Y001135D02*
X005956Y001135D01*
X005997Y001037D02*
X004780Y001037D01*
X004982Y000938D02*
X006082Y000938D01*
X006212Y000840D02*
X005260Y000840D01*
X005563Y000741D02*
X010146Y000741D01*
X009964Y000840D02*
X010390Y000840D01*
X010634Y000938D02*
X010004Y000938D01*
X010004Y001037D02*
X010878Y001037D01*
X011114Y001135D02*
X010004Y001135D01*
X010004Y001234D02*
X011285Y001234D01*
X011455Y001332D02*
X010004Y001332D01*
X010004Y001431D02*
X011626Y001431D01*
X011796Y001529D02*
X010004Y001529D01*
X010004Y001628D02*
X011967Y001628D01*
X012101Y001726D02*
X010004Y001726D01*
X009939Y001825D02*
X012227Y001825D01*
X012353Y001923D02*
X007379Y001923D01*
X007477Y002022D02*
X012479Y002022D01*
X012605Y002120D02*
X008337Y002120D01*
X008435Y002219D02*
X012731Y002219D01*
X012847Y002317D02*
X008534Y002317D01*
X008632Y002416D02*
X012943Y002416D01*
X013038Y002514D02*
X008731Y002514D01*
X008829Y002613D02*
X012099Y002613D01*
X012015Y002711D02*
X008928Y002711D01*
X009026Y002810D02*
X011975Y002810D01*
X011967Y002908D02*
X010306Y002908D01*
X010189Y003103D02*
X009363Y003103D01*
X009205Y003260D01*
X009205Y003103D01*
X009008Y003103D01*
X008221Y002315D01*
X007460Y002315D01*
X006464Y001319D01*
X006846Y000938D02*
X007082Y000938D01*
X006997Y001037D02*
X006931Y001037D01*
X006716Y000840D02*
X007212Y000840D01*
X006851Y000446D02*
X008763Y000446D01*
X008667Y000840D02*
X008964Y000840D01*
X008924Y000938D02*
X008818Y000938D01*
X008901Y001037D02*
X008924Y001037D01*
X008514Y001037D02*
X008414Y001037D01*
X008414Y001135D02*
X008514Y001135D01*
X008514Y001234D02*
X008414Y001234D01*
X008414Y001431D02*
X008514Y001431D01*
X008514Y001529D02*
X008414Y001529D01*
X008414Y001628D02*
X008514Y001628D01*
X008514Y001726D02*
X008414Y001726D01*
X008414Y001825D02*
X008514Y001825D01*
X008592Y001825D02*
X008989Y001825D01*
X008924Y001726D02*
X008789Y001726D01*
X008883Y001628D02*
X008924Y001628D01*
X008336Y001825D02*
X007656Y001825D01*
X007821Y001726D02*
X008139Y001726D01*
X008045Y001628D02*
X007920Y001628D01*
X007962Y001529D02*
X007987Y001529D01*
X007972Y001135D02*
X007977Y001135D01*
X007931Y001037D02*
X008027Y001037D01*
X008110Y000938D02*
X007846Y000938D01*
X007716Y000840D02*
X008261Y000840D01*
X008414Y000840D02*
X008514Y000840D01*
X008514Y000938D02*
X008414Y000938D01*
X009366Y000544D02*
X006293Y000544D01*
X005866Y000643D02*
X009761Y000643D01*
X008207Y002613D02*
X004160Y002613D01*
X004062Y002711D02*
X008305Y002711D01*
X008404Y002810D02*
X007331Y002810D01*
X007289Y002767D02*
X007389Y002867D01*
X007389Y003441D01*
X007289Y003540D01*
X006400Y003540D01*
X006300Y003441D01*
X006300Y002867D01*
X006400Y002767D01*
X007289Y002767D01*
X007389Y002908D02*
X008502Y002908D01*
X008601Y003007D02*
X007389Y003007D01*
X007389Y003105D02*
X007532Y003105D01*
X007486Y003204D02*
X007389Y003204D01*
X007389Y003302D02*
X007486Y003302D01*
X007486Y003401D02*
X007389Y003401D01*
X007330Y003499D02*
X007486Y003499D01*
X007523Y003598D02*
X005281Y003598D01*
X005122Y003445D02*
X004687Y003881D01*
X004378Y003881D01*
X004378Y004181D01*
X004678Y004481D01*
X007237Y004481D01*
X007630Y004874D01*
X007630Y006489D01*
X007433Y006489D02*
X007433Y005662D01*
X007040Y005268D01*
X007040Y005071D01*
X004481Y005071D01*
X003890Y004481D01*
X003890Y003300D01*
X004756Y002433D01*
X004756Y001922D01*
X004805Y001923D02*
X006756Y001923D01*
X006658Y001825D02*
X006656Y001825D01*
X006855Y002022D02*
X005083Y002022D01*
X005078Y002120D02*
X006953Y002120D01*
X007052Y002219D02*
X004992Y002219D01*
X004805Y002219D02*
X004747Y002219D01*
X004747Y002120D02*
X004805Y002120D01*
X004805Y002022D02*
X004747Y002022D01*
X004805Y001893D02*
X005083Y001893D01*
X005083Y001744D01*
X005073Y001706D01*
X005053Y001672D01*
X005026Y001644D01*
X004991Y001624D01*
X004953Y001614D01*
X004805Y001614D01*
X004805Y001893D01*
X004805Y001825D02*
X004747Y001825D01*
X004747Y001726D02*
X004805Y001726D01*
X004805Y001628D02*
X004747Y001628D01*
X004555Y001628D02*
X004447Y001628D01*
X004185Y001922D02*
X004185Y002276D01*
X003752Y002709D01*
X004060Y002810D02*
X004901Y002810D01*
X004844Y002908D02*
X004060Y002908D01*
X004010Y003007D02*
X004844Y003007D01*
X004844Y003105D02*
X004637Y003105D01*
X004703Y003204D02*
X004844Y003204D01*
X004844Y003302D02*
X004706Y003302D01*
X004706Y003401D02*
X004844Y003401D01*
X004758Y003499D02*
X004706Y003499D01*
X004397Y003302D02*
X004359Y003302D01*
X004359Y003204D02*
X004397Y003204D01*
X004397Y003105D02*
X004359Y003105D01*
X004120Y003105D02*
X003461Y003105D01*
X003461Y003204D02*
X004053Y003204D01*
X004051Y003302D02*
X003520Y003302D01*
X003520Y003401D02*
X004051Y003401D01*
X004051Y003499D02*
X003520Y003499D01*
X003520Y003598D02*
X004080Y003598D01*
X004031Y003696D02*
X003520Y003696D01*
X003520Y003795D02*
X004031Y003795D01*
X004031Y003893D02*
X003520Y003893D01*
X003520Y003992D02*
X004031Y003992D01*
X004032Y004090D02*
X003520Y004090D01*
X003520Y004386D02*
X004271Y004386D01*
X004370Y004484D02*
X003520Y004484D01*
X003520Y004583D02*
X004468Y004583D01*
X004567Y004681D02*
X003520Y004681D01*
X003520Y004780D02*
X007224Y004780D01*
X007323Y004878D02*
X003520Y004878D01*
X003520Y004977D02*
X007410Y004977D01*
X007410Y005075D02*
X003520Y005075D01*
X003520Y005174D02*
X005520Y005174D01*
X005796Y005453D02*
X003508Y005453D01*
X003496Y005465D01*
X003300Y005268D01*
X003300Y003693D01*
X003300Y003359D01*
X003241Y003300D01*
X003300Y003693D02*
X003004Y003693D01*
X002906Y003595D01*
X002315Y003595D01*
X002053Y003302D02*
X001913Y003302D01*
X001988Y003401D02*
X001831Y003401D01*
X001760Y003499D02*
X001988Y003499D01*
X001988Y003598D02*
X001698Y003598D01*
X001637Y003696D02*
X001988Y003696D01*
X001988Y003795D02*
X001575Y003795D01*
X001514Y003893D02*
X002052Y003893D01*
X001988Y003992D02*
X001452Y003992D01*
X001390Y004090D02*
X001988Y004090D01*
X001988Y004189D02*
X001329Y004189D01*
X001267Y004287D02*
X001988Y004287D01*
X001988Y004386D02*
X001216Y004386D01*
X001173Y004484D02*
X002059Y004484D01*
X001993Y004583D02*
X001129Y004583D01*
X001085Y004681D02*
X001968Y004681D01*
X001968Y004780D02*
X001041Y004780D01*
X000997Y004878D02*
X001968Y004878D01*
X001968Y004977D02*
X000953Y004977D01*
X000910Y005075D02*
X002012Y005075D01*
X001968Y005174D02*
X000866Y005174D01*
X000822Y005272D02*
X001968Y005272D01*
X001968Y005371D02*
X000793Y005371D01*
X000765Y005469D02*
X001968Y005469D01*
X002000Y005568D02*
X000736Y005568D01*
X000708Y005666D02*
X000888Y005666D01*
X000924Y005630D02*
X000825Y005729D01*
X000825Y006579D01*
X000924Y006678D01*
X001813Y006678D01*
X001913Y006579D01*
X001913Y005729D01*
X001813Y005630D01*
X000924Y005630D01*
X000825Y005765D02*
X000680Y005765D01*
X000652Y005863D02*
X000825Y005863D01*
X000825Y005962D02*
X000623Y005962D01*
X000595Y006060D02*
X000825Y006060D01*
X000825Y006159D02*
X000567Y006159D01*
X000539Y006257D02*
X000825Y006257D01*
X000825Y006356D02*
X000522Y006356D01*
X000508Y006454D02*
X000825Y006454D01*
X000825Y006553D02*
X000494Y006553D01*
X000480Y006651D02*
X000897Y006651D01*
X001252Y006843D02*
X001331Y007119D01*
X001331Y007040D01*
X001410Y007119D01*
X001410Y006961D01*
X001528Y007000D01*
X001449Y007040D01*
X001489Y007040D02*
X001410Y006843D01*
X001410Y006922D01*
X001489Y007000D01*
X001528Y007000D02*
X001607Y006961D01*
X001489Y007079D01*
X001489Y007158D01*
X001607Y007237D01*
X001528Y007237D01*
X001489Y007197D01*
X001489Y007158D01*
X001489Y007197D02*
X001410Y007119D01*
X001331Y007119D02*
X001331Y007237D01*
X001331Y007729D01*
X001331Y007748D02*
X001331Y008575D01*
X000924Y008779D02*
X000825Y008879D01*
X000825Y009728D01*
X000924Y009828D01*
X001813Y009828D01*
X001913Y009728D01*
X001913Y008879D01*
X001813Y008779D01*
X000924Y008779D01*
X000886Y008818D02*
X000454Y008818D01*
X000440Y008720D02*
X002025Y008720D01*
X002025Y008818D02*
X001852Y008818D01*
X001913Y008917D02*
X002025Y008917D01*
X002025Y009015D02*
X001913Y009015D01*
X001913Y009114D02*
X002025Y009114D01*
X002025Y009212D02*
X001913Y009212D01*
X001922Y009205D02*
X001725Y009205D01*
X001725Y009402D01*
X001331Y009402D01*
X001725Y009402D02*
X001922Y009205D01*
X001922Y009402D01*
X001725Y009205D01*
X001725Y009402D02*
X001922Y009402D01*
X001913Y009409D02*
X002025Y009409D01*
X002025Y009311D02*
X001913Y009311D01*
X001913Y009508D02*
X002025Y009508D01*
X002025Y009606D02*
X001913Y009606D01*
X001913Y009705D02*
X002025Y009705D01*
X002025Y009803D02*
X001838Y009803D01*
X002025Y009902D02*
X000683Y009902D01*
X000711Y010000D02*
X002025Y010000D01*
X002025Y010099D02*
X000740Y010099D01*
X000768Y010197D02*
X002025Y010197D01*
X002025Y010296D02*
X000796Y010296D01*
X000827Y010394D02*
X002025Y010394D01*
X002025Y010493D02*
X000871Y010493D01*
X000915Y010591D02*
X002025Y010591D01*
X002025Y010690D02*
X000959Y010690D01*
X001002Y010788D02*
X002025Y010788D01*
X002025Y010887D02*
X001046Y010887D01*
X001090Y010985D02*
X002025Y010985D01*
X002025Y011084D02*
X001134Y011084D01*
X001178Y011182D02*
X002025Y011182D01*
X002046Y011281D02*
X001222Y011281D01*
X001275Y011379D02*
X002111Y011379D01*
X002151Y011419D02*
X002151Y011419D01*
X002209Y011478D02*
X001336Y011478D01*
X001398Y011576D02*
X002308Y011576D01*
X002406Y011675D02*
X001459Y011675D01*
X001521Y011773D02*
X002505Y011773D01*
X002594Y011872D02*
X001582Y011872D01*
X001644Y011970D02*
X002594Y011970D01*
X002594Y012069D02*
X001706Y012069D01*
X001767Y012167D02*
X002594Y012167D01*
X002631Y012266D02*
X001840Y012266D01*
X001923Y012364D02*
X003643Y012364D01*
X003741Y012463D02*
X002006Y012463D01*
X002088Y012561D02*
X003840Y012561D01*
X003938Y012660D02*
X002171Y012660D01*
X002254Y012758D02*
X004008Y012758D01*
X004008Y012857D02*
X002336Y012857D01*
X002419Y012955D02*
X004008Y012955D01*
X004049Y013054D02*
X002514Y013054D01*
X002624Y013152D02*
X005815Y013152D01*
X005817Y013155D02*
X005798Y013121D01*
X005787Y013083D01*
X005787Y012739D01*
X006202Y012739D01*
X006202Y012639D01*
X006302Y012639D01*
X006302Y012165D01*
X006587Y012165D01*
X006625Y012176D01*
X006659Y012195D01*
X006687Y012223D01*
X006707Y012257D01*
X006717Y012296D01*
X006717Y012639D01*
X006302Y012639D01*
X006302Y012739D01*
X006202Y012739D01*
X006202Y013213D01*
X005918Y013213D01*
X005880Y013203D01*
X005845Y013183D01*
X005817Y013155D01*
X005787Y013054D02*
X005369Y013054D01*
X005411Y013012D02*
X005311Y013111D01*
X004855Y013111D01*
X004756Y013012D01*
X004756Y012517D01*
X004855Y012417D01*
X005311Y012417D01*
X005411Y012517D01*
X005411Y013012D01*
X005411Y012955D02*
X005787Y012955D01*
X005787Y012857D02*
X005411Y012857D01*
X005411Y012758D02*
X005787Y012758D01*
X005787Y012639D02*
X005787Y012296D01*
X005798Y012257D01*
X005817Y012223D01*
X005845Y012195D01*
X005880Y012176D01*
X005918Y012165D01*
X006202Y012165D01*
X006202Y012639D01*
X005787Y012639D01*
X005787Y012561D02*
X005411Y012561D01*
X005411Y012660D02*
X006202Y012660D01*
X006202Y012758D02*
X006302Y012758D01*
X006302Y012739D02*
X006302Y013213D01*
X006587Y013213D01*
X006625Y013203D01*
X006659Y013183D01*
X006687Y013155D01*
X006707Y013121D01*
X006717Y013083D01*
X006717Y012739D01*
X006302Y012739D01*
X006302Y012660D02*
X007283Y012660D01*
X007283Y012748D02*
X007283Y012570D01*
X007552Y012570D01*
X007552Y012879D01*
X007414Y012879D01*
X007376Y012869D01*
X007341Y012849D01*
X007313Y012821D01*
X007294Y012787D01*
X007283Y012748D01*
X007286Y012758D02*
X006717Y012758D01*
X006717Y012857D02*
X007355Y012857D01*
X007274Y013011D02*
X007175Y013111D01*
X007175Y013724D01*
X007274Y013824D01*
X007632Y013824D01*
X007731Y013724D01*
X007731Y013111D01*
X007632Y013011D01*
X007274Y013011D01*
X007232Y013054D02*
X006717Y013054D01*
X006717Y012955D02*
X007981Y012955D01*
X007980Y013054D02*
X007674Y013054D01*
X007731Y013152D02*
X007923Y013152D01*
X007923Y013251D02*
X007731Y013251D01*
X007731Y013349D02*
X007916Y013349D01*
X007911Y013448D02*
X007731Y013448D01*
X007731Y013546D02*
X007923Y013546D01*
X007923Y013645D02*
X007731Y013645D01*
X007713Y013743D02*
X007942Y013743D01*
X008022Y014035D02*
X007992Y014065D01*
X007955Y014055D01*
X007831Y014055D01*
X007831Y014437D01*
X007823Y014437D01*
X007823Y014055D01*
X007699Y014055D01*
X007662Y014065D01*
X007632Y014035D01*
X007397Y014035D01*
X007393Y014033D01*
X007160Y014033D01*
X006869Y013743D01*
X006763Y013699D01*
X006737Y013699D01*
X006737Y013544D01*
X006638Y013445D01*
X005867Y013445D01*
X005825Y013486D01*
X005766Y013427D01*
X005684Y013345D01*
X005578Y013301D01*
X004994Y013301D01*
X004937Y013244D01*
X004481Y013244D01*
X004382Y013343D01*
X004382Y013839D01*
X004481Y013938D01*
X004937Y013938D01*
X004994Y013881D01*
X005400Y013881D01*
X005694Y014175D01*
X005767Y014206D01*
X005767Y014433D01*
X005867Y014533D01*
X006638Y014533D01*
X006737Y014433D01*
X006737Y014431D01*
X006794Y014488D01*
X006875Y014569D01*
X006982Y014613D01*
X007175Y014613D01*
X007175Y014748D01*
X007183Y014757D01*
X007183Y014944D01*
X007222Y015036D01*
X007292Y015106D01*
X007384Y015144D01*
X008271Y015144D01*
X008362Y015106D01*
X008433Y015036D01*
X008471Y014944D01*
X008471Y014757D01*
X008479Y014748D01*
X008479Y014135D01*
X008380Y014035D01*
X008022Y014035D01*
X008019Y014039D02*
X007635Y014039D01*
X007823Y014137D02*
X007831Y014137D01*
X007823Y014236D02*
X007831Y014236D01*
X007823Y014334D02*
X007831Y014334D01*
X007823Y014433D02*
X007831Y014433D01*
X007831Y014446D02*
X007831Y014644D01*
X007823Y014644D01*
X007823Y014446D01*
X007831Y014446D01*
X007823Y014531D02*
X007831Y014531D01*
X007823Y014630D02*
X007831Y014630D01*
X007453Y014441D02*
X007433Y014461D01*
X007175Y014630D02*
X004804Y014630D01*
X004602Y014531D02*
X005865Y014531D01*
X005767Y014433D02*
X004401Y014433D01*
X004199Y014334D02*
X005767Y014334D01*
X005767Y014236D02*
X004025Y014236D01*
X003879Y014137D02*
X005656Y014137D01*
X005558Y014039D02*
X003733Y014039D01*
X003587Y013940D02*
X005459Y013940D01*
X005787Y013448D02*
X005864Y013448D01*
X005688Y013349D02*
X007175Y013349D01*
X007175Y013251D02*
X004944Y013251D01*
X004797Y013054D02*
X004621Y013054D01*
X004663Y012955D02*
X004756Y012955D01*
X004756Y012857D02*
X004663Y012857D01*
X004663Y012758D02*
X004756Y012758D01*
X004756Y012660D02*
X004663Y012660D01*
X004663Y012561D02*
X004756Y012561D01*
X004810Y012463D02*
X004608Y012463D01*
X004463Y012364D02*
X005787Y012364D01*
X005787Y012463D02*
X005356Y012463D01*
X005795Y012266D02*
X004365Y012266D01*
X004266Y012167D02*
X005911Y012167D01*
X006202Y012167D02*
X006302Y012167D01*
X006302Y012266D02*
X006202Y012266D01*
X006202Y012364D02*
X006302Y012364D01*
X006302Y012463D02*
X006202Y012463D01*
X006202Y012561D02*
X006302Y012561D01*
X006302Y012857D02*
X006202Y012857D01*
X006202Y012955D02*
X006302Y012955D01*
X006302Y013054D02*
X006202Y013054D01*
X006202Y013152D02*
X006302Y013152D01*
X006689Y013152D02*
X007175Y013152D01*
X007175Y013448D02*
X006641Y013448D01*
X006737Y013546D02*
X007175Y013546D01*
X007175Y013645D02*
X006737Y013645D01*
X006870Y013743D02*
X007194Y013743D01*
X006968Y013842D02*
X008845Y013842D01*
X008917Y013940D02*
X007067Y013940D01*
X006739Y014433D02*
X006737Y014433D01*
X006639Y014531D02*
X006837Y014531D01*
X007175Y014728D02*
X005006Y014728D01*
X005296Y014827D02*
X007183Y014827D01*
X007183Y014925D02*
X005599Y014925D01*
X005902Y015024D02*
X007216Y015024D01*
X007330Y015122D02*
X006359Y015122D01*
X006918Y015221D02*
X008651Y015221D01*
X008438Y015024D02*
X009714Y015024D01*
X009319Y015122D02*
X008324Y015122D01*
X008471Y014925D02*
X010109Y014925D01*
X010361Y014827D02*
X008471Y014827D01*
X008479Y014728D02*
X010605Y014728D01*
X010849Y014630D02*
X008479Y014630D01*
X008479Y014531D02*
X009015Y014531D01*
X008917Y014433D02*
X008479Y014433D01*
X008479Y014334D02*
X008917Y014334D01*
X008917Y014236D02*
X008479Y014236D01*
X008479Y014137D02*
X008917Y014137D01*
X008917Y014039D02*
X008383Y014039D01*
X008461Y013743D02*
X008746Y013743D01*
X009173Y013349D02*
X012836Y013349D01*
X012931Y013251D02*
X009074Y013251D01*
X008965Y013152D02*
X008948Y013152D01*
X008937Y013054D02*
X008422Y013054D01*
X008421Y012955D02*
X008937Y012955D01*
X008937Y012857D02*
X008421Y012857D01*
X008421Y012758D02*
X008937Y012758D01*
X008937Y012639D02*
X008937Y012296D01*
X008947Y012257D01*
X008967Y012223D01*
X008995Y012195D01*
X009029Y012176D01*
X009067Y012165D01*
X009352Y012165D01*
X009352Y012639D01*
X008937Y012639D01*
X008937Y012561D02*
X008404Y012561D01*
X008391Y012463D02*
X008937Y012463D01*
X008937Y012364D02*
X008391Y012364D01*
X008352Y012266D02*
X008945Y012266D01*
X009061Y012167D02*
X008391Y012167D01*
X008391Y012069D02*
X010407Y012069D01*
X010407Y012101D02*
X010407Y011952D01*
X010882Y011952D01*
X010882Y012231D01*
X010537Y012231D01*
X010499Y012221D01*
X010465Y012201D01*
X010437Y012173D01*
X010417Y012139D01*
X010407Y012101D01*
X010433Y012167D02*
X009743Y012167D01*
X009859Y012266D02*
X013798Y012266D01*
X013726Y012364D02*
X009867Y012364D01*
X009867Y012463D02*
X013654Y012463D01*
X013583Y012561D02*
X009867Y012561D01*
X009867Y012758D02*
X013407Y012758D01*
X013502Y012660D02*
X009452Y012660D01*
X009452Y012758D02*
X009352Y012758D01*
X009352Y012660D02*
X008421Y012660D01*
X008201Y012670D02*
X008083Y012552D01*
X008083Y011961D01*
X008083Y011626D01*
X008083Y011567D02*
X008221Y011567D01*
X008103Y011685D01*
X008063Y011685D02*
X007945Y011567D01*
X008063Y011449D01*
X008103Y011449D02*
X008221Y011567D01*
X008949Y011567D01*
X009146Y011370D01*
X009397Y011675D02*
X009407Y011675D01*
X009055Y011773D02*
X010407Y011773D01*
X010410Y011675D02*
X009909Y011675D01*
X009711Y011424D02*
X009658Y011370D01*
X009658Y010524D01*
X010052Y010130D01*
X010052Y008870D01*
X009796Y008615D01*
X009166Y008615D01*
X009166Y008811D02*
X008615Y008811D01*
X008615Y009166D01*
X008615Y009481D01*
X007453Y010642D01*
X007237Y010642D01*
X006508Y010642D01*
X006370Y010504D01*
X006370Y010307D01*
X006292Y010386D01*
X006252Y010386D01*
X004874Y010386D01*
X004924Y010394D02*
X006945Y010394D01*
X006909Y010493D02*
X005384Y010493D01*
X005382Y010508D02*
X005356Y010586D01*
X005319Y010659D01*
X005271Y010725D01*
X005213Y010783D01*
X005147Y010831D01*
X005074Y010868D01*
X004996Y010893D01*
X004924Y010905D01*
X004924Y010436D01*
X005393Y010436D01*
X005382Y010508D01*
X005354Y010591D02*
X006909Y010591D01*
X006909Y010690D02*
X005297Y010690D01*
X005206Y010788D02*
X006909Y010788D01*
X006954Y010887D02*
X005017Y010887D01*
X004924Y010887D02*
X004824Y010887D01*
X004731Y010887D02*
X004078Y010887D01*
X004236Y010788D02*
X004543Y010788D01*
X004452Y010690D02*
X004333Y010690D01*
X004374Y010591D02*
X004395Y010591D01*
X004381Y010197D02*
X004389Y010197D01*
X004340Y010099D02*
X004441Y010099D01*
X004525Y010000D02*
X004252Y010000D01*
X004115Y009902D02*
X004683Y009902D01*
X004824Y009902D02*
X004924Y009902D01*
X004924Y010000D02*
X004824Y010000D01*
X004824Y010099D02*
X004924Y010099D01*
X004924Y010197D02*
X004824Y010197D01*
X004824Y010296D02*
X004924Y010296D01*
X004924Y010493D02*
X004824Y010493D01*
X004824Y010591D02*
X004924Y010591D01*
X004924Y010690D02*
X004824Y010690D01*
X004824Y010788D02*
X004924Y010788D01*
X005387Y010296D02*
X006889Y010296D01*
X006889Y010197D02*
X005360Y010197D01*
X005308Y010099D02*
X006889Y010099D01*
X006889Y010000D02*
X005224Y010000D01*
X005065Y009902D02*
X006910Y009902D01*
X007017Y009803D02*
X006753Y009803D01*
X006851Y009705D02*
X007017Y009705D01*
X007040Y009638D02*
X006370Y010307D01*
X006252Y010386D02*
X006370Y010504D01*
X006365Y011182D02*
X002734Y011182D01*
X002832Y011281D02*
X006187Y011281D01*
X006107Y011379D02*
X002931Y011379D01*
X003029Y011478D02*
X006066Y011478D01*
X006061Y011576D02*
X003128Y011576D01*
X002635Y011084D02*
X007863Y011084D01*
X007863Y011182D02*
X006533Y011182D01*
X006711Y011281D02*
X007863Y011281D01*
X007945Y011567D02*
X008024Y011567D01*
X008083Y011567D01*
X008083Y010524D01*
X009008Y009599D01*
X009008Y009481D01*
X009126Y009599D01*
X009008Y009599D01*
X009008Y009481D02*
X009008Y009363D01*
X008811Y009166D01*
X009040Y009084D02*
X009040Y009020D01*
X009166Y009020D01*
X009166Y008844D01*
X009166Y008844D01*
X009166Y009020D01*
X009343Y009020D01*
X009381Y009010D01*
X009415Y008991D01*
X009443Y008963D01*
X009463Y008928D01*
X009473Y008890D01*
X009473Y008835D01*
X009705Y008835D01*
X009832Y008962D01*
X009832Y009283D01*
X009819Y009270D01*
X009676Y009211D01*
X009522Y009211D01*
X009379Y009270D01*
X009270Y009379D01*
X009228Y009379D01*
X009228Y009271D01*
X009040Y009084D01*
X009070Y009114D02*
X009832Y009114D01*
X009832Y009212D02*
X009679Y009212D01*
X009518Y009212D02*
X009169Y009212D01*
X009228Y009311D02*
X009338Y009311D01*
X009363Y009015D02*
X009832Y009015D01*
X009786Y008917D02*
X009466Y008917D01*
X009166Y008917D02*
X009166Y008917D01*
X009166Y009015D02*
X009166Y009015D01*
X008906Y008811D02*
X008906Y008811D01*
X008858Y008811D01*
X008858Y008764D01*
X008838Y008744D01*
X008838Y008638D01*
X008609Y008638D01*
X008609Y008692D01*
X008550Y008834D01*
X008546Y008838D01*
X008547Y008838D01*
X008567Y008858D01*
X008615Y008858D01*
X008662Y008858D01*
X008682Y008838D01*
X008858Y008838D01*
X008858Y008811D01*
X008906Y008811D01*
X008858Y008818D02*
X008557Y008818D01*
X008615Y008858D02*
X008615Y008906D01*
X008615Y008858D01*
X008615Y008906D02*
X008615Y008906D01*
X008615Y008906D01*
X008597Y008720D02*
X008838Y008720D01*
X009166Y008418D02*
X008418Y008418D01*
X008221Y008615D01*
X007433Y008418D02*
X007237Y008221D01*
X007237Y007630D01*
X007040Y007433D01*
X006489Y007433D01*
X006252Y007433D01*
X005465Y006646D01*
X003103Y006646D01*
X002315Y005859D01*
X002315Y005327D01*
X002095Y005666D02*
X001850Y005666D01*
X001913Y005765D02*
X002095Y005765D01*
X002095Y005863D02*
X001913Y005863D01*
X001913Y005962D02*
X002107Y005962D01*
X002206Y006060D02*
X001913Y006060D01*
X001922Y006056D02*
X001725Y006252D01*
X001725Y006056D01*
X001331Y006056D01*
X001725Y006056D02*
X001922Y006252D01*
X001922Y006056D01*
X001725Y006056D01*
X001725Y006252D02*
X001922Y006252D01*
X001913Y006257D02*
X002403Y006257D01*
X002501Y006356D02*
X001913Y006356D01*
X001913Y006454D02*
X002600Y006454D01*
X002698Y006553D02*
X001913Y006553D01*
X001841Y006651D02*
X002797Y006651D01*
X002709Y006744D02*
X001823Y006744D01*
X001607Y006961D01*
X001489Y007079D02*
X001331Y007237D01*
X001528Y007237D01*
X001607Y007237D02*
X002512Y007237D01*
X002412Y007217D02*
X002838Y007217D01*
X002412Y007217D01*
X002412Y007217D01*
X002412Y007144D02*
X002412Y007144D01*
X002412Y007045D02*
X002412Y007045D01*
X002797Y007045D02*
X004981Y007045D01*
X004980Y007144D02*
X004034Y007144D01*
X004208Y007242D02*
X004980Y007242D01*
X004980Y007341D02*
X004305Y007341D01*
X004404Y007439D02*
X004980Y007439D01*
X005029Y007538D02*
X004502Y007538D01*
X004601Y007636D02*
X005000Y007636D01*
X005000Y007735D02*
X004699Y007735D01*
X004798Y007833D02*
X005000Y007833D01*
X005071Y007827D02*
X004678Y007433D01*
X004678Y007237D01*
X004382Y006941D01*
X002906Y006941D01*
X002709Y006744D01*
X002895Y006750D02*
X000467Y006750D01*
X000453Y006848D02*
X002994Y006848D01*
X002981Y007144D02*
X002838Y007144D01*
X002838Y007242D02*
X002944Y007242D01*
X002944Y007341D02*
X002858Y007341D01*
X002858Y007439D02*
X002930Y007439D01*
X002952Y007729D02*
X003252Y007429D01*
X002952Y007729D02*
X002412Y007729D01*
X002412Y007985D02*
X003369Y007985D01*
X003232Y008044D01*
X003300Y008418D02*
X002827Y008418D01*
X002650Y008241D01*
X002412Y008241D01*
X002315Y008241D01*
X002315Y008300D01*
X002412Y008241D02*
X002589Y008241D01*
X002605Y008523D02*
X002621Y008523D01*
X002605Y008621D02*
X002719Y008621D01*
X002605Y008720D02*
X002974Y008720D01*
X002933Y008818D02*
X002605Y008818D01*
X002605Y008917D02*
X002933Y008917D01*
X002933Y009015D02*
X002605Y009015D01*
X002605Y009114D02*
X002933Y009114D01*
X002933Y009212D02*
X002605Y009212D01*
X002605Y009311D02*
X002987Y009311D01*
X003241Y009008D02*
X003241Y008477D01*
X003300Y008418D01*
X004284Y008418D01*
X004481Y008615D01*
X006489Y008615D01*
X006843Y008615D01*
X007000Y008457D01*
X007000Y007788D01*
X006843Y007630D01*
X006489Y007630D01*
X006489Y007827D02*
X006252Y007827D01*
X005662Y007237D01*
X005345Y007237D01*
X005327Y007255D01*
X005454Y006947D02*
X000439Y006947D01*
X000425Y007045D02*
X002027Y007045D01*
X001987Y007144D02*
X000411Y007144D01*
X000397Y007242D02*
X001987Y007242D01*
X001967Y007341D02*
X000388Y007341D01*
X000388Y007439D02*
X001967Y007439D01*
X001967Y007538D02*
X000388Y007538D01*
X000388Y007636D02*
X001967Y007636D01*
X001967Y007735D02*
X000388Y007735D01*
X000388Y007833D02*
X001967Y007833D01*
X001967Y007932D02*
X000388Y007932D01*
X000388Y008030D02*
X001967Y008030D01*
X001967Y008129D02*
X000388Y008129D01*
X000388Y008227D02*
X001967Y008227D01*
X001967Y008326D02*
X000388Y008326D01*
X000399Y008424D02*
X002011Y008424D01*
X002025Y008523D02*
X000413Y008523D01*
X000427Y008621D02*
X002025Y008621D01*
X002605Y009409D02*
X005523Y009409D01*
X005482Y009311D02*
X003973Y009311D01*
X003982Y009305D02*
X003948Y009325D01*
X003910Y009335D01*
X003771Y009335D01*
X003771Y009027D01*
X004040Y009027D01*
X004040Y009205D01*
X004030Y009243D01*
X004010Y009278D01*
X003982Y009305D01*
X004038Y009212D02*
X005471Y009212D01*
X005477Y009114D02*
X004040Y009114D01*
X003771Y009114D02*
X003733Y009114D01*
X003733Y009212D02*
X003771Y009212D01*
X003771Y009311D02*
X003733Y009311D01*
X003531Y009311D02*
X003494Y009311D01*
X003771Y009015D02*
X005517Y009015D01*
X005598Y008917D02*
X004040Y008917D01*
X004040Y008818D02*
X004373Y008818D01*
X004275Y008720D02*
X003991Y008720D01*
X003771Y008720D02*
X003733Y008720D01*
X003733Y008818D02*
X003771Y008818D01*
X003771Y008917D02*
X003733Y008917D01*
X003514Y008720D02*
X003507Y008720D01*
X003744Y008044D02*
X004304Y008044D01*
X004678Y008418D01*
X006489Y008418D01*
X006489Y008221D02*
X004874Y008221D01*
X004087Y007433D01*
X003885Y007429D01*
X003763Y007429D01*
X004896Y007932D02*
X005002Y007932D01*
X005071Y007827D02*
X005859Y007827D01*
X006056Y008024D01*
X006489Y008024D01*
X006115Y008001D02*
X005626Y007512D01*
X005612Y007525D01*
X005624Y007537D01*
X005644Y007571D01*
X005654Y007609D01*
X005654Y007748D01*
X005346Y007748D01*
X005346Y007785D01*
X005654Y007785D01*
X005654Y007924D01*
X005644Y007962D01*
X005624Y007996D01*
X005620Y008001D01*
X006115Y008001D01*
X006046Y007932D02*
X005652Y007932D01*
X005654Y007833D02*
X005947Y007833D01*
X005849Y007735D02*
X005654Y007735D01*
X005654Y007636D02*
X005750Y007636D01*
X005652Y007538D02*
X005625Y007538D01*
X006056Y006843D02*
X005465Y006252D01*
X005071Y006252D01*
X004678Y006252D01*
X004481Y006056D01*
X003496Y006056D02*
X002906Y005465D01*
X002906Y005327D01*
X002906Y004815D02*
X002906Y004185D01*
X002315Y004185D02*
X002315Y004815D01*
X002304Y006159D02*
X001913Y006159D01*
X001410Y006882D02*
X001410Y006961D01*
X001331Y007040D02*
X001331Y006882D01*
X000825Y008917D02*
X000468Y008917D01*
X000482Y009015D02*
X000825Y009015D01*
X000825Y009114D02*
X000496Y009114D01*
X000510Y009212D02*
X000825Y009212D01*
X000825Y009311D02*
X000524Y009311D01*
X000542Y009409D02*
X000825Y009409D01*
X000825Y009508D02*
X000570Y009508D01*
X000598Y009606D02*
X000825Y009606D01*
X000825Y009705D02*
X000627Y009705D01*
X000655Y009803D02*
X000900Y009803D01*
X002355Y010150D02*
X002552Y010347D01*
X002552Y010386D01*
X002552Y010426D01*
X002355Y010622D01*
X002605Y010690D02*
X003416Y010690D01*
X003513Y010788D02*
X002605Y010788D01*
X002605Y010887D02*
X003671Y010887D01*
X004017Y011675D02*
X006074Y011675D01*
X006114Y011773D02*
X004037Y011773D01*
X004037Y011872D02*
X006205Y011872D01*
X006449Y011567D02*
X007945Y011567D01*
X008024Y011567D02*
X008037Y011568D01*
X008050Y011573D01*
X008061Y011580D01*
X008070Y011589D01*
X008077Y011600D01*
X008082Y011613D01*
X008083Y011626D01*
X008391Y011872D02*
X010407Y011872D01*
X010407Y011970D02*
X008391Y011970D01*
X008201Y012670D02*
X008201Y013418D01*
X007833Y012857D02*
X007788Y012857D01*
X007590Y012857D02*
X007552Y012857D01*
X007552Y012758D02*
X007590Y012758D01*
X007590Y012660D02*
X007552Y012660D01*
X007552Y012561D02*
X006717Y012561D01*
X006717Y012463D02*
X007283Y012463D01*
X007283Y012364D02*
X006717Y012364D01*
X006709Y012266D02*
X007330Y012266D01*
X007286Y012167D02*
X006593Y012167D01*
X006694Y011872D02*
X007283Y011872D01*
X007283Y012069D02*
X004168Y012069D01*
X004069Y011970D02*
X007552Y011970D01*
X007552Y011980D02*
X007552Y012288D01*
X007552Y012533D01*
X007590Y012533D01*
X007590Y011980D01*
X007552Y011980D01*
X007552Y012069D02*
X007590Y012069D01*
X007590Y012167D02*
X007552Y012167D01*
X007552Y012266D02*
X007590Y012266D01*
X007590Y012364D02*
X007552Y012364D01*
X007552Y012463D02*
X007590Y012463D01*
X007863Y010985D02*
X002605Y010985D01*
X002605Y010000D02*
X003497Y010000D01*
X003633Y009902D02*
X002605Y009902D01*
X002605Y009803D02*
X006145Y009803D01*
X006047Y009705D02*
X002605Y009705D01*
X002605Y009606D02*
X005948Y009606D01*
X006252Y009599D02*
X005859Y009205D01*
X005612Y009508D02*
X002605Y009508D01*
X006056Y006843D02*
X006489Y006843D01*
X006489Y007040D02*
X007827Y007040D01*
X008615Y007827D01*
X009166Y008221D02*
X009796Y008221D01*
X010386Y008811D01*
X010386Y010189D01*
X010111Y010465D01*
X010111Y010701D01*
X010333Y010924D01*
X010911Y010924D01*
X010858Y010977D01*
X010911Y010924D02*
X011817Y010924D01*
X011961Y010780D01*
X011961Y010386D01*
X012748Y009599D01*
X013674Y009599D01*
X013941Y009311D02*
X013947Y009311D01*
X014167Y009311D02*
X014204Y009311D01*
X014204Y009409D02*
X014167Y009409D01*
X014167Y009508D02*
X014204Y009508D01*
X014204Y009606D02*
X015054Y009606D01*
X015033Y009705D02*
X014473Y009705D01*
X014473Y009618D02*
X014473Y009796D01*
X014463Y009834D01*
X014443Y009868D01*
X014415Y009896D01*
X014381Y009916D01*
X014343Y009926D01*
X014204Y009926D01*
X014204Y009618D01*
X014473Y009618D01*
X014473Y009508D02*
X015075Y009508D01*
X015096Y009409D02*
X014473Y009409D01*
X014424Y009311D02*
X015117Y009311D01*
X015138Y009212D02*
X013053Y009212D01*
X013151Y009114D02*
X015159Y009114D01*
X015180Y009015D02*
X013250Y009015D01*
X013348Y008917D02*
X013420Y008917D01*
X013339Y008615D02*
X013674Y008615D01*
X013927Y008917D02*
X013964Y008917D01*
X014167Y008917D02*
X014204Y008917D01*
X014204Y008818D02*
X014167Y008818D01*
X014167Y008720D02*
X014204Y008720D01*
X014204Y008621D02*
X015229Y008621D01*
X015236Y008523D02*
X014473Y008523D01*
X014473Y008424D02*
X015243Y008424D01*
X015249Y008326D02*
X014423Y008326D01*
X014204Y008326D02*
X014167Y008326D01*
X014167Y008424D02*
X014204Y008424D01*
X014204Y008523D02*
X014167Y008523D01*
X013947Y008326D02*
X013940Y008326D01*
X013479Y008062D02*
X013459Y008096D01*
X013431Y008124D01*
X013397Y008144D01*
X013359Y008154D01*
X013220Y008154D01*
X013220Y007846D01*
X013489Y007846D01*
X013489Y008024D01*
X013479Y008062D01*
X013487Y008030D02*
X015270Y008030D01*
X015277Y007932D02*
X013489Y007932D01*
X013489Y007735D02*
X015278Y007735D01*
X015284Y007833D02*
X013220Y007833D01*
X013220Y007735D02*
X013182Y007735D01*
X013182Y007636D02*
X013220Y007636D01*
X013220Y007538D02*
X013182Y007538D01*
X012978Y007439D02*
X015257Y007439D01*
X015250Y007341D02*
X012978Y007341D01*
X012978Y007242D02*
X015243Y007242D01*
X015237Y007144D02*
X012978Y007144D01*
X012978Y007045D02*
X015230Y007045D01*
X015223Y006947D02*
X013003Y006947D01*
X013076Y006848D02*
X015216Y006848D01*
X015212Y006789D02*
X015212Y006789D01*
X015203Y006750D02*
X013076Y006750D01*
X013076Y006651D02*
X015182Y006651D01*
X015161Y006553D02*
X013076Y006553D01*
X013094Y006454D02*
X013127Y006454D01*
X012421Y006454D02*
X012370Y006454D01*
X012335Y006489D02*
X011536Y006489D01*
X011437Y006390D01*
X011437Y005934D01*
X011459Y005912D01*
X011437Y005890D01*
X011437Y005842D01*
X010886Y005291D01*
X010757Y005162D01*
X010757Y004769D01*
X010660Y004672D01*
X010526Y004672D01*
X010577Y004797D01*
X010577Y004952D01*
X010518Y005094D01*
X010409Y005203D01*
X010267Y005263D01*
X010112Y005263D01*
X010016Y005359D01*
X009887Y005488D01*
X009296Y005488D01*
X009031Y005753D01*
X009031Y006252D01*
X009040Y006261D01*
X009040Y006634D01*
X009166Y006634D01*
X009343Y006634D01*
X009381Y006644D01*
X009415Y006664D01*
X009443Y006692D01*
X009463Y006726D01*
X009473Y006764D01*
X009473Y006820D01*
X010871Y006820D01*
X011097Y007045D01*
X011251Y007045D01*
X011393Y007104D01*
X011492Y007203D01*
X012510Y007203D01*
X012518Y007195D01*
X012518Y007181D01*
X012518Y006971D01*
X012421Y006874D01*
X012421Y006403D01*
X012335Y006489D01*
X012421Y006553D02*
X009040Y006553D01*
X009040Y006454D02*
X011501Y006454D01*
X011437Y006356D02*
X009040Y006356D01*
X009037Y006257D02*
X011437Y006257D01*
X011437Y006159D02*
X009031Y006159D01*
X009031Y006060D02*
X011437Y006060D01*
X011437Y005962D02*
X009031Y005962D01*
X009031Y005863D02*
X011437Y005863D01*
X011359Y005765D02*
X009031Y005765D01*
X009118Y005666D02*
X011260Y005666D01*
X011162Y005568D02*
X009217Y005568D01*
X009205Y005268D02*
X009796Y005268D01*
X010189Y004874D01*
X010439Y005174D02*
X010768Y005174D01*
X010757Y005075D02*
X010526Y005075D01*
X010567Y004977D02*
X010757Y004977D01*
X010757Y004878D02*
X010577Y004878D01*
X010570Y004780D02*
X010757Y004780D01*
X010669Y004681D02*
X010529Y004681D01*
X010583Y004284D02*
X010977Y004678D01*
X010977Y005071D01*
X011567Y005662D01*
X011935Y005662D01*
X011935Y005162D02*
X011658Y005162D01*
X011370Y004874D01*
X011370Y004284D01*
X012296Y004284D01*
X012493Y004087D01*
X013004Y004087D02*
X013004Y003496D01*
X013004Y003162D01*
X013174Y003007D02*
X013513Y003007D01*
X013591Y003105D02*
X013234Y003105D01*
X013267Y003204D02*
X013663Y003204D01*
X013735Y003302D02*
X013312Y003302D01*
X013312Y003401D02*
X013806Y003401D01*
X013878Y003499D02*
X013312Y003499D01*
X013312Y003598D02*
X013949Y003598D01*
X014021Y003696D02*
X013312Y003696D01*
X013267Y003795D02*
X014092Y003795D01*
X014161Y003893D02*
X013312Y003893D01*
X013312Y003992D02*
X014213Y003992D01*
X014265Y004090D02*
X013312Y004090D01*
X013312Y004189D02*
X014318Y004189D01*
X014370Y004287D02*
X013312Y004287D01*
X013261Y004386D02*
X014422Y004386D01*
X014475Y004484D02*
X013076Y004484D01*
X013076Y004583D02*
X014527Y004583D01*
X014580Y004681D02*
X013076Y004681D01*
X013076Y004780D02*
X014632Y004780D01*
X014670Y004878D02*
X013971Y004878D01*
X014038Y004977D02*
X014706Y004977D01*
X014742Y005075D02*
X014040Y005075D01*
X014040Y005272D02*
X014814Y005272D01*
X014849Y005371D02*
X014032Y005371D01*
X014060Y005469D02*
X014885Y005469D01*
X014921Y005568D02*
X014060Y005568D01*
X014060Y005666D02*
X014957Y005666D01*
X014993Y005765D02*
X014060Y005765D01*
X014060Y005863D02*
X015015Y005863D01*
X015036Y005962D02*
X014060Y005962D01*
X014060Y006060D02*
X015057Y006060D01*
X015078Y006159D02*
X014060Y006159D01*
X014060Y006257D02*
X015099Y006257D01*
X015120Y006356D02*
X014060Y006356D01*
X013996Y006454D02*
X015140Y006454D01*
X014717Y007237D02*
X013221Y007237D01*
X013221Y008181D01*
X012788Y008615D01*
X011292Y008615D01*
X011095Y008811D01*
X011057Y009212D02*
X012430Y009212D01*
X012332Y009311D02*
X011237Y009311D01*
X011318Y009409D02*
X012233Y009409D01*
X012135Y009508D02*
X011359Y009508D01*
X011365Y009606D02*
X012036Y009606D01*
X011938Y009705D02*
X011353Y009705D01*
X011312Y009803D02*
X011839Y009803D01*
X011741Y009902D02*
X011223Y009902D01*
X011197Y010000D02*
X011642Y010000D01*
X011544Y010099D02*
X011338Y010099D01*
X011435Y010197D02*
X011445Y010197D01*
X011530Y010424D02*
X010977Y010424D01*
X010977Y009599D01*
X010716Y009311D02*
X010606Y009311D01*
X010606Y009409D02*
X010635Y009409D01*
X010606Y009212D02*
X010896Y009212D01*
X010606Y009114D02*
X012529Y009114D01*
X012627Y009015D02*
X010606Y009015D01*
X010606Y008917D02*
X012726Y008917D01*
X012824Y008818D02*
X010606Y008818D01*
X010605Y008720D02*
X012923Y008720D01*
X013021Y008621D02*
X010507Y008621D01*
X010408Y008523D02*
X013120Y008523D01*
X013218Y008424D02*
X010310Y008424D01*
X010211Y008326D02*
X013407Y008326D01*
X013221Y008221D02*
X013221Y008181D01*
X013220Y008129D02*
X013182Y008129D01*
X013182Y008030D02*
X013220Y008030D01*
X013220Y007932D02*
X013182Y007932D01*
X012978Y008129D02*
X012943Y008129D01*
X013424Y008129D02*
X015263Y008129D01*
X015256Y008227D02*
X010113Y008227D01*
X010014Y008129D02*
X012435Y008129D01*
X012382Y008030D02*
X009916Y008030D01*
X009493Y007932D02*
X012382Y007932D01*
X012382Y007833D02*
X009493Y007833D01*
X009493Y007735D02*
X010926Y007735D01*
X010837Y007636D02*
X009493Y007636D01*
X009493Y007538D02*
X010797Y007538D01*
X010786Y007439D02*
X009493Y007439D01*
X009493Y007341D02*
X010770Y007341D01*
X010780Y007040D02*
X011174Y007433D01*
X011433Y007144D02*
X012518Y007144D01*
X012518Y007045D02*
X011096Y007045D01*
X010998Y006947D02*
X012494Y006947D01*
X012421Y006848D02*
X010899Y006848D01*
X010780Y007040D02*
X009166Y007040D01*
X008811Y007040D01*
X008615Y006843D01*
X007237Y006843D01*
X007237Y006489D01*
X007237Y005859D01*
X006831Y005453D01*
X005796Y005453D01*
X006071Y005174D02*
X007410Y005174D01*
X007410Y005272D02*
X006961Y005272D01*
X007060Y005371D02*
X007410Y005371D01*
X007410Y005469D02*
X007158Y005469D01*
X007257Y005568D02*
X007410Y005568D01*
X007410Y005666D02*
X007355Y005666D01*
X007040Y006056D02*
X006843Y005859D01*
X005902Y005859D01*
X005796Y005965D01*
X007040Y006056D02*
X007040Y006489D01*
X007237Y007237D02*
X006489Y007237D01*
X007237Y007237D02*
X007827Y007827D01*
X000150Y007827D02*
X000159Y008204D01*
X000187Y008579D01*
X000233Y008953D01*
X000298Y009325D01*
X000380Y009692D01*
X000481Y010056D01*
X000599Y010413D01*
X000734Y010765D01*
X000887Y011109D01*
X001056Y011446D01*
X001242Y011774D01*
X001444Y012092D01*
X001661Y012400D01*
X001893Y012697D01*
X002139Y012983D01*
X002399Y013255D01*
X002671Y013515D01*
X002957Y013761D01*
X003254Y013993D01*
X003562Y014210D01*
X003880Y014412D01*
X004208Y014598D01*
X004545Y014767D01*
X004889Y014920D01*
X005241Y015055D01*
X005598Y015173D01*
X005962Y015274D01*
X006329Y015356D01*
X006701Y015421D01*
X007075Y015467D01*
X007450Y015495D01*
X007827Y015504D01*
X008204Y015495D01*
X008579Y015467D01*
X008953Y015421D01*
X009325Y015356D01*
X009692Y015274D01*
X010056Y015173D01*
X010413Y015055D01*
X010765Y014920D01*
X011109Y014767D01*
X011446Y014598D01*
X011774Y014412D01*
X012092Y014210D01*
X012400Y013993D01*
X012697Y013761D01*
X012983Y013515D01*
X013255Y013255D01*
X013515Y012983D01*
X013761Y012697D01*
X013993Y012400D01*
X014210Y012092D01*
X014412Y011774D01*
X014598Y011446D01*
X014767Y011109D01*
X014920Y010765D01*
X015055Y010413D01*
X015173Y010056D01*
X015274Y009692D01*
X015356Y009325D01*
X015421Y008953D01*
X015467Y008579D01*
X015495Y008204D01*
X015504Y007827D01*
X015495Y007450D01*
X015467Y007075D01*
X015421Y006701D01*
X015356Y006329D01*
X015274Y005962D01*
X015173Y005598D01*
X015055Y005241D01*
X014920Y004889D01*
X014767Y004545D01*
X014598Y004208D01*
X014412Y003880D01*
X014210Y003562D01*
X013993Y003254D01*
X013761Y002957D01*
X013515Y002671D01*
X013255Y002399D01*
X012983Y002139D01*
X012697Y001893D01*
X012400Y001661D01*
X012092Y001444D01*
X011774Y001242D01*
X011446Y001056D01*
X011109Y000887D01*
X010765Y000734D01*
X010413Y000599D01*
X010056Y000481D01*
X009692Y000380D01*
X009325Y000298D01*
X008953Y000233D01*
X008579Y000187D01*
X008204Y000159D01*
X007827Y000150D01*
X007450Y000159D01*
X007075Y000187D01*
X006701Y000233D01*
X006329Y000298D01*
X005962Y000380D01*
X005598Y000481D01*
X005241Y000599D01*
X004889Y000734D01*
X004545Y000887D01*
X004208Y001056D01*
X003880Y001242D01*
X003562Y001444D01*
X003254Y001661D01*
X002957Y001893D01*
X002671Y002139D01*
X002399Y002399D01*
X002139Y002671D01*
X001893Y002957D01*
X001661Y003254D01*
X001444Y003562D01*
X001242Y003880D01*
X001056Y004208D01*
X000887Y004545D01*
X000734Y004889D01*
X000599Y005241D01*
X000481Y005598D01*
X000380Y005962D01*
X000298Y006329D01*
X000233Y006701D01*
X000187Y007075D01*
X000159Y007450D01*
X000150Y007827D01*
X002578Y003302D02*
X002643Y003302D01*
X004259Y002514D02*
X007347Y002514D01*
X007249Y002416D02*
X004357Y002416D01*
X004405Y002317D02*
X007150Y002317D01*
X006358Y002810D02*
X005874Y002810D01*
X005932Y002908D02*
X006300Y002908D01*
X006300Y003007D02*
X005932Y003007D01*
X005932Y003105D02*
X006300Y003105D01*
X006300Y003204D02*
X005932Y003204D01*
X005932Y003302D02*
X006300Y003302D01*
X006300Y003401D02*
X005932Y003401D01*
X005874Y003499D02*
X006359Y003499D01*
X006377Y003696D02*
X005855Y003696D01*
X005932Y003795D02*
X006300Y003795D01*
X006300Y003893D02*
X005932Y003893D01*
X005932Y003992D02*
X006300Y003992D01*
X006300Y004090D02*
X005932Y004090D01*
X005932Y004189D02*
X006300Y004189D01*
X006844Y004087D02*
X006844Y004059D01*
X007406Y004059D01*
X007552Y004205D01*
X007709Y004205D01*
X007709Y004363D01*
X007630Y004284D01*
X007709Y004205D01*
X007813Y004101D01*
X007813Y003863D01*
X007827Y003863D01*
X008160Y003893D02*
X008985Y003893D01*
X008985Y003795D02*
X008160Y003795D01*
X008160Y003696D02*
X008985Y003696D01*
X008985Y003598D02*
X008103Y003598D01*
X008140Y003499D02*
X008985Y003499D01*
X008985Y003401D02*
X008140Y003401D01*
X008140Y003332D02*
X007832Y003332D01*
X007832Y003063D01*
X008010Y003063D01*
X008048Y003073D01*
X008082Y003093D01*
X008110Y003121D01*
X008130Y003155D01*
X008140Y003193D01*
X008140Y003332D01*
X008140Y003302D02*
X008896Y003302D01*
X008798Y003204D02*
X008140Y003204D01*
X008122Y003300D02*
X007827Y003300D01*
X007832Y003302D02*
X007794Y003302D01*
X007794Y003204D02*
X007832Y003204D01*
X007832Y003105D02*
X007794Y003105D01*
X008094Y003105D02*
X008699Y003105D01*
X009008Y003103D02*
X009107Y003201D01*
X009205Y003103D01*
X009363Y003103D01*
X009205Y003260D02*
X009205Y003300D01*
X009205Y004284D01*
X008811Y004678D01*
X008418Y004678D01*
X008024Y005071D01*
X008024Y006489D01*
X008221Y006489D02*
X008221Y005268D01*
X008418Y005071D01*
X008811Y005071D01*
X009599Y004284D01*
X009599Y003890D01*
X010977Y003890D01*
X011370Y004284D01*
X011567Y003890D02*
X011174Y003496D01*
X010583Y003496D01*
X010386Y003300D01*
X010189Y003103D01*
X010642Y003007D02*
X011976Y003007D01*
X012017Y003105D02*
X010726Y003105D01*
X010767Y003204D02*
X012103Y003204D01*
X012185Y003302D02*
X011290Y003302D01*
X011389Y003401D02*
X012140Y003401D01*
X012041Y003499D02*
X011487Y003499D01*
X011586Y003598D02*
X011943Y003598D01*
X011961Y003890D02*
X012355Y003496D01*
X012493Y003496D01*
X011961Y003890D02*
X011567Y003890D01*
X012610Y002613D02*
X013133Y002613D01*
X013228Y002711D02*
X012879Y002711D01*
X012977Y002810D02*
X013323Y002810D01*
X013418Y002908D02*
X013076Y002908D01*
X013213Y004854D02*
X013175Y004865D01*
X013141Y004884D01*
X013113Y004912D01*
X013093Y004946D01*
X013083Y004985D01*
X013083Y005133D01*
X013533Y005133D01*
X013533Y004854D01*
X013213Y004854D01*
X013151Y004878D02*
X013076Y004878D01*
X013076Y004977D02*
X013085Y004977D01*
X013076Y005075D02*
X013083Y005075D01*
X013076Y005174D02*
X013533Y005174D01*
X013590Y005174D02*
X014778Y005174D01*
X013590Y005272D02*
X013533Y005272D01*
X013533Y005075D02*
X013590Y005075D01*
X013590Y004977D02*
X013533Y004977D01*
X013533Y004878D02*
X013590Y004878D01*
X013083Y005272D02*
X013076Y005272D01*
X013076Y005371D02*
X013091Y005371D01*
X012421Y006651D02*
X009393Y006651D01*
X009469Y006750D02*
X012421Y006750D01*
X012040Y006922D02*
X011449Y006922D01*
X011016Y006489D01*
X009874Y006489D01*
X009520Y006843D01*
X009166Y006811D02*
X009166Y006634D01*
X009166Y006811D01*
X009166Y006811D01*
X009166Y006750D02*
X009166Y006750D01*
X009166Y006651D02*
X009166Y006651D01*
X008811Y006489D02*
X008811Y005662D01*
X009205Y005268D01*
X009906Y005469D02*
X011063Y005469D01*
X010965Y005371D02*
X010004Y005371D01*
X010103Y005272D02*
X010866Y005272D01*
X009599Y003890D02*
X009599Y003496D01*
X009205Y003300D02*
X009107Y003201D01*
X008516Y003693D02*
X008122Y003300D01*
X008160Y003992D02*
X008985Y003992D01*
X008985Y004090D02*
X008141Y004090D01*
X008033Y004189D02*
X008985Y004189D01*
X008891Y004287D02*
X007945Y004287D01*
X008043Y004386D02*
X008792Y004386D01*
X008300Y004484D02*
X008047Y004484D01*
X008047Y004583D02*
X008202Y004583D01*
X008103Y004681D02*
X008047Y004681D01*
X007827Y004481D02*
X007709Y004363D01*
X007630Y004284D02*
X007552Y004205D01*
X007827Y004481D02*
X007827Y006489D01*
X006858Y004073D02*
X006844Y004059D01*
X007312Y003696D02*
X007466Y003696D01*
X007466Y003795D02*
X007389Y003795D01*
X005388Y003154D02*
X005337Y003103D01*
X005388Y003154D02*
X005122Y003154D01*
X005122Y003445D01*
X005122Y003154D02*
X005071Y003103D01*
X004560Y002219D02*
X004444Y002219D01*
X005083Y001825D02*
X006272Y001825D01*
X006107Y001726D02*
X005079Y001726D01*
X004997Y001628D02*
X006008Y001628D01*
X011421Y007735D02*
X012382Y007735D01*
X012670Y007552D02*
X012552Y007433D01*
X012591Y007433D02*
X012748Y007276D01*
X013439Y007538D02*
X015264Y007538D01*
X015271Y007636D02*
X013489Y007636D01*
X013339Y008615D02*
X011530Y010424D01*
X010977Y010424D02*
X010911Y010424D01*
X010111Y010465D02*
X009993Y010583D01*
X010111Y010701D01*
X009711Y011424D02*
X010911Y011424D01*
X010882Y011751D02*
X010882Y011895D01*
X010940Y011895D01*
X010940Y011751D01*
X010882Y011751D01*
X010882Y011773D02*
X010940Y011773D01*
X010940Y011872D02*
X010882Y011872D01*
X010882Y011970D02*
X010940Y011970D01*
X010940Y012069D02*
X010882Y012069D01*
X010882Y012167D02*
X010940Y012167D01*
X011389Y012167D02*
X012502Y012167D01*
X012487Y012152D02*
X012487Y011696D01*
X012509Y011674D01*
X012487Y011652D01*
X012487Y011196D01*
X012509Y011174D01*
X012487Y011152D01*
X012487Y010696D01*
X012509Y010674D01*
X012487Y010652D01*
X012487Y010196D01*
X012586Y010096D01*
X013436Y010096D01*
X013535Y010196D01*
X013535Y010652D01*
X013513Y010674D01*
X013535Y010696D01*
X013535Y011152D01*
X013513Y011174D01*
X013535Y011196D01*
X013535Y011652D01*
X013513Y011674D01*
X013535Y011696D01*
X013535Y012152D01*
X013436Y012251D01*
X012586Y012251D01*
X012487Y012152D01*
X012487Y012069D02*
X011415Y012069D01*
X011415Y011970D02*
X012487Y011970D01*
X012487Y011872D02*
X011415Y011872D01*
X011415Y011773D02*
X012487Y011773D01*
X012508Y011675D02*
X011412Y011675D01*
X011435Y011576D02*
X012487Y011576D01*
X012487Y011478D02*
X011435Y011478D01*
X011435Y011379D02*
X012487Y011379D01*
X012487Y011281D02*
X011435Y011281D01*
X011422Y011182D02*
X012500Y011182D01*
X012487Y011084D02*
X011969Y011084D01*
X012067Y010985D02*
X012487Y010985D01*
X012487Y010887D02*
X012166Y010887D01*
X012181Y010788D02*
X012487Y010788D01*
X012493Y010690D02*
X012181Y010690D01*
X012181Y010591D02*
X012487Y010591D01*
X012487Y010493D02*
X012181Y010493D01*
X012264Y010394D02*
X012487Y010394D01*
X012487Y010296D02*
X012363Y010296D01*
X012461Y010197D02*
X012487Y010197D01*
X012560Y010099D02*
X012584Y010099D01*
X012658Y010000D02*
X014953Y010000D01*
X014989Y009902D02*
X014406Y009902D01*
X014471Y009803D02*
X015012Y009803D01*
X014917Y010099D02*
X013438Y010099D01*
X013535Y010197D02*
X014881Y010197D01*
X014845Y010296D02*
X013535Y010296D01*
X013535Y010394D02*
X014809Y010394D01*
X014773Y010493D02*
X013535Y010493D01*
X013535Y010591D02*
X014738Y010591D01*
X014702Y010690D02*
X013529Y010690D01*
X013535Y010788D02*
X014666Y010788D01*
X014626Y010887D02*
X013535Y010887D01*
X013535Y010985D02*
X014573Y010985D01*
X014521Y011084D02*
X013535Y011084D01*
X013522Y011182D02*
X014469Y011182D01*
X014416Y011281D02*
X013535Y011281D01*
X013535Y011379D02*
X014364Y011379D01*
X014311Y011478D02*
X013535Y011478D01*
X013535Y011576D02*
X014259Y011576D01*
X014207Y011675D02*
X013514Y011675D01*
X013535Y011773D02*
X014154Y011773D01*
X014084Y011872D02*
X013535Y011872D01*
X013535Y011970D02*
X014012Y011970D01*
X013941Y012069D02*
X013535Y012069D01*
X013520Y012167D02*
X013869Y012167D01*
X013312Y012857D02*
X009867Y012857D01*
X009867Y012955D02*
X013217Y012955D01*
X013122Y013054D02*
X009867Y013054D01*
X009839Y013152D02*
X013026Y013152D01*
X012716Y013448D02*
X009790Y013448D01*
X009887Y013546D02*
X012590Y013546D01*
X012464Y013645D02*
X009887Y013645D01*
X009887Y013743D02*
X012338Y013743D01*
X012212Y013842D02*
X009887Y013842D01*
X009887Y013940D02*
X012086Y013940D01*
X011997Y014009D02*
X011997Y014009D01*
X011947Y014039D02*
X009887Y014039D01*
X009887Y014137D02*
X011776Y014137D01*
X011606Y014236D02*
X009887Y014236D01*
X009887Y014334D02*
X011435Y014334D01*
X011264Y014433D02*
X009887Y014433D01*
X009789Y014531D02*
X011093Y014531D01*
X009452Y013152D02*
X009352Y013152D01*
X009352Y013054D02*
X009452Y013054D01*
X009452Y012955D02*
X009352Y012955D01*
X009352Y012857D02*
X009452Y012857D01*
X009452Y012561D02*
X009352Y012561D01*
X009352Y012463D02*
X009452Y012463D01*
X009452Y012364D02*
X009352Y012364D01*
X009352Y012266D02*
X009452Y012266D01*
X009452Y012167D02*
X009352Y012167D01*
X007863Y010887D02*
X007519Y010887D01*
X007564Y010788D02*
X007863Y010788D01*
X007863Y010690D02*
X007564Y010690D01*
X007564Y010591D02*
X007863Y010591D01*
X007863Y010493D02*
X007564Y010493D01*
X007528Y010394D02*
X007902Y010394D01*
X008000Y010296D02*
X007584Y010296D01*
X007584Y010197D02*
X008099Y010197D01*
X008197Y010099D02*
X007584Y010099D01*
X007584Y010000D02*
X008296Y010000D01*
X008394Y009902D02*
X007563Y009902D01*
X007457Y009803D02*
X008493Y009803D01*
X008591Y009705D02*
X007457Y009705D01*
X007457Y009606D02*
X008690Y009606D01*
X008788Y009508D02*
X007457Y009508D01*
X007237Y009166D02*
X007237Y010130D01*
X007040Y009638D02*
X007040Y009166D01*
X006843Y009166D02*
X006843Y009402D01*
X006646Y009599D01*
X006252Y009599D01*
X006950Y009606D02*
X007017Y009606D01*
X007218Y010690D02*
X007256Y010690D01*
X007256Y010788D02*
X007218Y010788D01*
X007218Y010887D02*
X007256Y010887D01*
X009126Y009599D02*
X009599Y009599D01*
X012757Y009902D02*
X013421Y009902D01*
X013926Y009902D02*
X013965Y009902D01*
X014167Y009902D02*
X014204Y009902D01*
X014204Y009803D02*
X014167Y009803D01*
X014167Y009705D02*
X014204Y009705D01*
X014407Y008917D02*
X015201Y008917D01*
X015215Y008818D02*
X014471Y008818D01*
X014473Y008720D02*
X015222Y008720D01*
X013407Y009311D02*
X012954Y009311D01*
X008221Y014441D02*
X008201Y014441D01*
X004474Y013251D02*
X002733Y013251D01*
X002842Y013349D02*
X004382Y013349D01*
X004382Y013448D02*
X002952Y013448D01*
X003061Y013546D02*
X004382Y013546D01*
X004382Y013645D02*
X003171Y013645D01*
X003295Y013743D02*
X004382Y013743D01*
X004385Y013842D02*
X003441Y013842D01*
D11*
X006489Y008811D03*
X006489Y008615D03*
X006489Y008418D03*
X006489Y008221D03*
X006489Y008024D03*
X006489Y007827D03*
X006489Y007630D03*
X006489Y007433D03*
X006489Y007237D03*
X006489Y007040D03*
X006489Y006843D03*
X009166Y006843D03*
X009166Y007040D03*
X009166Y007237D03*
X009166Y007433D03*
X009166Y007630D03*
X009166Y007827D03*
X009166Y008024D03*
X009166Y008221D03*
X009166Y008418D03*
X009166Y008615D03*
X009166Y008811D03*
D12*
X008811Y009166D03*
X008615Y009166D03*
X008418Y009166D03*
X008221Y009166D03*
X008024Y009166D03*
X007827Y009166D03*
X007630Y009166D03*
X007433Y009166D03*
X007237Y009166D03*
X007040Y009166D03*
X006843Y009166D03*
X006843Y006489D03*
X007040Y006489D03*
X007237Y006489D03*
X007433Y006489D03*
X007630Y006489D03*
X007827Y006489D03*
X008024Y006489D03*
X008221Y006489D03*
X008418Y006489D03*
X008615Y006489D03*
X008811Y006489D03*
D13*
X006844Y004059D03*
X006844Y003154D03*
X005388Y003154D03*
X005388Y004059D03*
D14*
X004378Y003881D03*
X004378Y003369D03*
X002906Y004815D03*
X002906Y005327D03*
X002315Y005327D03*
X002315Y004815D03*
X005327Y007255D03*
X005327Y007767D03*
X005796Y005965D03*
X005796Y005453D03*
X007813Y003863D03*
X007813Y003351D03*
X007237Y010130D03*
X007237Y010642D03*
D15*
X002412Y008241D03*
X002412Y007985D03*
X002412Y007729D03*
X002412Y007473D03*
X002412Y007217D03*
D16*
X001369Y006154D03*
X001369Y009304D03*
D17*
X003241Y009008D03*
X003752Y009008D03*
X003744Y008044D03*
X003232Y008044D03*
X003252Y007429D03*
X003763Y007429D03*
X007571Y011961D03*
X008083Y011961D03*
X008083Y012552D03*
X007571Y012552D03*
X009146Y011370D03*
X009658Y011370D03*
X012689Y007827D03*
X013201Y007827D03*
X013674Y008615D03*
X014185Y008615D03*
X014185Y009599D03*
X013674Y009599D03*
X013004Y004087D03*
X012493Y004087D03*
X012493Y003496D03*
X013004Y003496D03*
X003752Y002709D03*
X003241Y002709D03*
D18*
X007453Y013418D03*
X008201Y013418D03*
X008201Y014441D03*
X007827Y014441D03*
X007453Y014441D03*
D19*
X006252Y013989D03*
X006252Y012689D03*
X009402Y012689D03*
X009402Y013989D03*
D20*
X005083Y012764D03*
X004335Y012764D03*
X004709Y013591D03*
D21*
X003650Y011961D03*
X002981Y011961D03*
D22*
X002906Y004185D03*
X002906Y003595D03*
X002315Y003595D03*
X002315Y004185D03*
X004185Y001922D03*
X004776Y001922D03*
D23*
X009464Y001319D03*
D24*
X008464Y001319D03*
X007464Y001319D03*
X006464Y001319D03*
X004874Y010386D03*
X003874Y010386D03*
D25*
X010911Y010424D03*
X010911Y010924D03*
X010911Y011424D03*
X010911Y011924D03*
X013011Y011924D03*
X013011Y011424D03*
X013011Y010924D03*
X013011Y010424D03*
D26*
X012748Y005012D03*
D27*
X012748Y006475D03*
D28*
X011935Y006162D03*
X011935Y005662D03*
X011935Y005162D03*
X013561Y005162D03*
X013561Y005662D03*
X013561Y006162D03*
D29*
X014717Y007237D03*
X012453Y008615D03*
X011174Y007433D03*
X012059Y006941D03*
X011075Y008811D03*
X010977Y009599D03*
X009599Y009599D03*
X008221Y008615D03*
X007433Y008418D03*
X007827Y007827D03*
X008615Y007827D03*
X005859Y009205D03*
X004678Y007237D03*
X004481Y006056D03*
X003496Y006056D03*
X003890Y004481D03*
X001528Y005071D03*
X001331Y007729D03*
X005367Y011863D03*
X006449Y011567D03*
X003496Y013142D03*
X011075Y013536D03*
X010189Y004874D03*
X010583Y004284D03*
X010386Y003300D03*
X009599Y003496D03*
X009796Y002512D03*
X008516Y003693D03*
X011370Y001922D03*
X012355Y002906D03*
D30*
X012748Y002906D01*
X013004Y003162D01*
X013061Y006162D02*
X012748Y006475D01*
X012748Y007276D01*
X012748Y007433D01*
X012689Y007493D01*
X012689Y007827D01*
X012748Y007433D02*
X012591Y007433D01*
X012552Y007433D01*
X011174Y007433D01*
X012040Y006922D02*
X012059Y006941D01*
X013061Y006162D02*
X013561Y006162D01*
X009520Y006843D02*
X009166Y006843D01*
D31*
X001331Y006843D02*
X001331Y006056D01*
X001331Y005465D01*
X001331Y006056D02*
X000741Y006056D01*
X001331Y008615D02*
X001331Y009205D01*
X001331Y009402D02*
X001331Y009993D01*
X001331Y009402D02*
X000741Y009402D01*
D32*
X004874Y009874D02*
X004874Y010386D01*
X004874Y010937D01*
X004914Y010386D02*
X005583Y010386D01*
X008457Y001882D02*
X008457Y000859D01*
D33*
X002315Y008337D02*
X002315Y008615D01*
X007237Y013930D02*
X007827Y013930D01*
X007827Y013241D01*
X007827Y013930D02*
X008418Y013930D01*
X008201Y014441D02*
X008221Y014461D01*
X008221Y014894D01*
X007433Y014894D01*
X007433Y014461D01*
X007827Y014520D02*
X007827Y013930D01*
D34*
X007335Y014323D02*
X007453Y014441D01*
X007335Y014323D02*
X007040Y014323D01*
X006705Y013989D01*
X006252Y013989D01*
X006193Y013930D01*
X005859Y013930D01*
X005520Y013591D01*
X004709Y013591D01*
X004335Y012764D02*
X004335Y012646D01*
X003650Y011961D01*
X002981Y011961D02*
X002981Y011839D01*
X002315Y011174D01*
X002315Y010386D01*
X002552Y010386D01*
X003874Y010386D01*
X002315Y010386D02*
X002315Y008615D01*
X002315Y008300D01*
X008201Y013418D02*
X008831Y013418D01*
X009402Y013989D01*
M02*
